<svg width="30" height="30" viewBox="0 0 30 30" fill="none" xmlns="http://www.w3.org/2000/svg">
<circle cx="15" cy="15" r="15" fill="white"/>
<ellipse cx="17.8209" cy="21.4133" rx="6.62484" ry="2.17295" transform="rotate(-8.53868 17.8209 21.4133)" fill="#D9D9D9"/>
<path d="M7.76315 18.8404L6.76346 11.1801L6.36359 8.38239C6.36359 8.18256 6.69682 7.67631 8.02974 7.25C9.69589 6.71711 10.6289 6.51727 13.8946 6.38405C17.1602 6.25083 19.4262 6.85033 21.159 7.38322C22.5452 7.80954 22.4919 8.23036 22.4253 8.58223L22.0254 11.5797C21.781 13.134 21.2523 16.7488 21.0924 18.7738C20.9324 20.7988 20.0927 21.8379 19.6928 22.1044C17.0936 23.7696 15.9606 23.6364 14.2945 23.7696C12.6283 23.9029 10.2957 22.9037 9.09607 22.0377C8.13637 21.345 7.80758 19.6175 7.76315 18.8404Z" fill="#BBB9B5" stroke="#79564C" stroke-width="0.7"/>
<path d="M6.63692 9.64453C8.94522 11.0001 15.2931 12.8978 22.218 9.64453" stroke="#79564C" stroke-width="0.7" stroke-linecap="round"/>
<path d="M9.11357 17.5641V14.0809C9.11357 13.9192 9.29663 13.8233 9.43385 13.9088C12.3734 15.7417 15.5287 14.7772 17.0444 13.897C17.1832 13.8165 17.3635 13.9142 17.3635 14.0746V17.5548C17.3635 17.6161 17.3343 17.675 17.2857 17.7124C13.8157 20.3819 10.4846 18.8619 9.17782 17.7097C9.13585 17.6727 9.11357 17.6201 9.11357 17.5641Z" fill="#F8EFDD" stroke="#79564C" stroke-width="0.2" stroke-linecap="round"/>
<path d="M10.9536 15.9219C10.9536 15.9297 10.9512 15.9395 10.9463 15.9512C10.9443 15.9551 10.9429 15.959 10.9419 15.9629C10.9409 15.9668 10.9395 15.9717 10.9375 15.9775C10.9346 15.9824 10.9331 15.9863 10.9331 15.9893C10.9331 15.9922 10.9326 15.9946 10.9316 15.9966C10.9287 16.0005 10.9268 16.0039 10.9258 16.0068C10.9248 16.0088 10.9233 16.0107 10.9214 16.0127C10.9194 16.0195 10.917 16.0269 10.9141 16.0347C10.9121 16.0415 10.9082 16.0459 10.9023 16.0479C10.9014 16.0518 10.9009 16.0557 10.9009 16.0596C10.9019 16.0635 10.9014 16.0664 10.8994 16.0684C10.8916 16.0879 10.8843 16.1069 10.8774 16.1255C10.8716 16.1431 10.8647 16.1602 10.8569 16.1768C10.8589 16.1865 10.8569 16.1943 10.8511 16.2002C10.8462 16.2061 10.8423 16.2129 10.8394 16.2207C10.8374 16.2236 10.8364 16.2271 10.8364 16.231C10.8374 16.2349 10.8374 16.2383 10.8364 16.2412C10.8354 16.2441 10.8335 16.2471 10.8306 16.25C10.8276 16.252 10.8271 16.2549 10.8291 16.2588C10.8193 16.2676 10.8135 16.2788 10.8115 16.2925C10.8096 16.3052 10.8057 16.3169 10.7998 16.3276C10.7979 16.3306 10.7954 16.3335 10.7925 16.3364C10.7905 16.3384 10.7886 16.3413 10.7866 16.3452C10.7808 16.356 10.7749 16.3662 10.769 16.376C10.7642 16.3848 10.7607 16.394 10.7588 16.4038C10.7539 16.4087 10.75 16.4141 10.7471 16.4199C10.7441 16.4258 10.7412 16.4316 10.7383 16.4375C10.7334 16.4482 10.729 16.4565 10.7251 16.4624C10.7222 16.4673 10.7192 16.4727 10.7163 16.4785C10.7144 16.4805 10.7134 16.4829 10.7134 16.4858C10.7134 16.4888 10.7114 16.4912 10.7075 16.4932C10.7056 16.502 10.7026 16.5088 10.6987 16.5137C10.6948 16.5186 10.6924 16.5264 10.6914 16.5371C10.6895 16.5391 10.6875 16.541 10.6855 16.543C10.6846 16.5449 10.6831 16.5474 10.6812 16.5503C10.6792 16.5659 10.6748 16.5796 10.668 16.5913C10.6611 16.6021 10.6558 16.6147 10.6519 16.6294C10.6499 16.6323 10.6475 16.6348 10.6445 16.6367C10.6426 16.6387 10.6406 16.6411 10.6387 16.644C10.6367 16.6528 10.6343 16.6606 10.6313 16.6675C10.6284 16.6743 10.6235 16.6797 10.6167 16.6836C10.6177 16.6924 10.6162 16.7007 10.6123 16.7085C10.6094 16.7153 10.606 16.7227 10.6021 16.7305C10.6001 16.7354 10.5981 16.7402 10.5962 16.7451C10.5952 16.749 10.5933 16.7534 10.5903 16.7583C10.5854 16.769 10.5815 16.7773 10.5786 16.7832C10.5767 16.7891 10.5737 16.793 10.5698 16.7949C10.5688 16.8096 10.5649 16.8213 10.5581 16.8301C10.5513 16.8379 10.5469 16.8486 10.5449 16.8623C10.543 16.8652 10.5396 16.8672 10.5347 16.8682C10.5308 16.8682 10.5278 16.8701 10.5259 16.874C10.5239 16.876 10.5234 16.8789 10.5244 16.8828C10.5254 16.8857 10.5249 16.8887 10.5229 16.8916C10.5181 16.9023 10.5151 16.9102 10.5142 16.915C10.5132 16.9189 10.5117 16.9233 10.5098 16.9282C10.5049 16.9341 10.502 16.938 10.501 16.9399C10.501 16.9419 10.5 16.9438 10.498 16.9458C10.4932 16.9526 10.4883 16.9614 10.4834 16.9722C10.4795 16.9819 10.4756 16.9922 10.4717 17.0029C10.4678 17.0098 10.4639 17.0156 10.46 17.0205C10.457 17.0264 10.4517 17.0308 10.4438 17.0337C10.4448 17.0376 10.4443 17.04 10.4424 17.041C10.4404 17.042 10.4399 17.0449 10.4409 17.0498C10.436 17.0527 10.4312 17.0552 10.4263 17.0571C10.4224 17.0591 10.4165 17.0576 10.4087 17.0527C10.4019 17.0479 10.3979 17.0444 10.397 17.0425C10.397 17.0415 10.396 17.0405 10.394 17.0396C10.3892 17.0347 10.3867 17.0308 10.3867 17.0278C10.3867 17.0259 10.3867 17.0244 10.3867 17.0234C10.3848 17.0205 10.3823 17.0176 10.3794 17.0146C10.3774 17.0127 10.3755 17.0103 10.3735 17.0073C10.3716 17.0034 10.3696 17 10.3677 16.9971C10.3667 16.9932 10.3652 16.9893 10.3633 16.9854C10.3613 16.9824 10.3594 16.9795 10.3574 16.9766C10.3564 16.9736 10.355 16.9702 10.353 16.9663C10.3511 16.9624 10.3486 16.959 10.3457 16.9561C10.3438 16.9531 10.3418 16.9502 10.3398 16.9473C10.335 16.9414 10.3315 16.9375 10.3296 16.9355C10.3286 16.9336 10.3276 16.9321 10.3267 16.9312C10.3237 16.9233 10.3213 16.9189 10.3193 16.918C10.3184 16.916 10.3174 16.9141 10.3164 16.9121C10.3096 16.9023 10.3047 16.8945 10.3018 16.8887C10.2988 16.8818 10.2959 16.876 10.293 16.8711C10.291 16.8662 10.2891 16.8623 10.2871 16.8594C10.2852 16.8564 10.2827 16.853 10.2798 16.8491C10.2759 16.8413 10.2729 16.8369 10.271 16.8359C10.27 16.834 10.2695 16.8325 10.2695 16.8315C10.2646 16.8267 10.2617 16.8232 10.2607 16.8213C10.2607 16.8193 10.2603 16.8179 10.2593 16.8169C10.2554 16.813 10.2515 16.8091 10.2476 16.8052C10.2446 16.8003 10.2422 16.7939 10.2402 16.7861C10.2354 16.7812 10.231 16.7764 10.2271 16.7715C10.2241 16.7656 10.2217 16.7583 10.2197 16.7495C10.2168 16.7437 10.2148 16.7383 10.2139 16.7334C10.2129 16.7275 10.2109 16.7217 10.208 16.7158C10.2031 16.709 10.1997 16.7036 10.1978 16.6997C10.1968 16.6948 10.1958 16.6914 10.1948 16.6895C10.1938 16.6865 10.1934 16.6841 10.1934 16.6821C10.1934 16.6792 10.1924 16.6763 10.1904 16.6733C10.1885 16.6685 10.186 16.6631 10.1831 16.6572C10.1812 16.6514 10.1807 16.6455 10.1816 16.6396C10.1777 16.6367 10.1753 16.6338 10.1743 16.6309C10.1743 16.627 10.1733 16.623 10.1714 16.6191C10.1665 16.6123 10.1641 16.6074 10.1641 16.6045C10.1641 16.6006 10.1636 16.5977 10.1626 16.5957C10.1606 16.5908 10.1587 16.5869 10.1567 16.584C10.1548 16.5801 10.1528 16.5762 10.1509 16.5723C10.1489 16.5684 10.1479 16.5645 10.1479 16.5605C10.1489 16.5566 10.147 16.5537 10.1421 16.5518C10.1421 16.5488 10.1421 16.5459 10.1421 16.543C10.1431 16.54 10.1436 16.5376 10.1436 16.5356C10.1396 16.5269 10.1367 16.521 10.1348 16.5181C10.1338 16.5142 10.1323 16.5107 10.1304 16.5078C10.1294 16.4912 10.1255 16.478 10.1187 16.4683C10.1128 16.4575 10.1094 16.4438 10.1084 16.4272C10.1035 16.4136 10.1001 16.4038 10.0981 16.3979C10.0972 16.3911 10.0952 16.3848 10.0923 16.3789C10.0913 16.376 10.0898 16.373 10.0879 16.3701C10.0869 16.3672 10.0859 16.3643 10.085 16.3613C10.084 16.3516 10.0825 16.3447 10.0806 16.3408C10.0796 16.3359 10.0781 16.332 10.0762 16.3291C10.0742 16.3232 10.0732 16.3154 10.0732 16.3057C10.0693 16.2988 10.0669 16.2935 10.0659 16.2896C10.0649 16.2847 10.063 16.2803 10.0601 16.2764C10.0581 16.2744 10.0571 16.271 10.0571 16.2661C10.0571 16.2603 10.0562 16.2549 10.0542 16.25C10.0532 16.2441 10.0508 16.2388 10.0469 16.2339C10.0479 16.2231 10.0459 16.2158 10.041 16.2119C10.0371 16.207 10.0356 16.2002 10.0366 16.1914C10.0269 16.1689 10.02 16.1514 10.0161 16.1387C10.0142 16.1309 10.0122 16.1235 10.0103 16.1167C10.0083 16.1099 10.0063 16.103 10.0044 16.0962C10.0015 16.0884 9.99902 16.0806 9.99707 16.0728C9.99512 16.0649 9.99316 16.0581 9.99121 16.0522C9.98828 16.0454 9.98584 16.0386 9.98389 16.0317C9.98193 16.0249 9.97949 16.0181 9.97656 16.0112C9.97852 16.0034 9.97803 15.9966 9.9751 15.9907C9.97217 15.9839 9.9707 15.9756 9.9707 15.9658C9.97461 15.9609 9.97803 15.9556 9.98096 15.9497C9.98291 15.9438 9.98633 15.9385 9.99121 15.9336C10 15.9316 10.0098 15.9302 10.0205 15.9292C10.0312 15.9282 10.04 15.9248 10.0469 15.9189C10.0566 15.918 10.0674 15.9165 10.0791 15.9146C10.0908 15.9116 10.1025 15.9092 10.1143 15.9072C10.126 15.9033 10.1353 15.9023 10.1421 15.9043C10.1489 15.9062 10.1558 15.9126 10.1626 15.9233C10.1626 15.9272 10.1626 15.9312 10.1626 15.9351C10.1636 15.938 10.1631 15.9404 10.1611 15.9424C10.1631 15.9473 10.1641 15.9526 10.1641 15.9585C10.165 15.9644 10.1665 15.9712 10.1685 15.979C10.1694 15.9839 10.1704 15.9893 10.1714 15.9951C10.1733 16.001 10.1748 16.0063 10.1758 16.0112C10.1768 16.0161 10.1768 16.0215 10.1758 16.0273C10.1748 16.0322 10.1763 16.0366 10.1802 16.0405C10.1782 16.0493 10.1777 16.0547 10.1787 16.0566C10.1807 16.0576 10.1816 16.0586 10.1816 16.0596C10.1836 16.0693 10.1851 16.0771 10.186 16.083C10.188 16.0889 10.1899 16.0947 10.1919 16.1006C10.1938 16.1045 10.1943 16.1074 10.1934 16.1094C10.1934 16.1104 10.1943 16.1128 10.1963 16.1167C10.2002 16.1274 10.2021 16.1348 10.2021 16.1387C10.2021 16.1426 10.2021 16.146 10.2021 16.1489C10.2041 16.1558 10.2065 16.1621 10.2095 16.168C10.2124 16.1738 10.2163 16.1792 10.2212 16.1841C10.2231 16.1948 10.2256 16.2051 10.2285 16.2148C10.2314 16.2236 10.2344 16.2329 10.2373 16.2427L10.2417 16.2603C10.2446 16.27 10.2466 16.2773 10.2476 16.2822C10.2495 16.2861 10.2515 16.29 10.2534 16.2939C10.2554 16.2959 10.2573 16.2993 10.2593 16.3042C10.2612 16.3091 10.2622 16.314 10.2622 16.3188C10.2632 16.3218 10.2646 16.3247 10.2666 16.3276C10.2686 16.3296 10.2705 16.3325 10.2725 16.3364C10.2744 16.3442 10.2754 16.3491 10.2754 16.3511C10.2764 16.3521 10.2773 16.3535 10.2783 16.3555C10.2832 16.3652 10.2866 16.3745 10.2886 16.3833C10.2905 16.3921 10.2939 16.4004 10.2988 16.4082C10.3027 16.4189 10.3057 16.4263 10.3076 16.4302C10.3096 16.4341 10.3115 16.438 10.3135 16.4419C10.3135 16.4478 10.3145 16.4531 10.3164 16.458C10.3184 16.4619 10.3198 16.4648 10.3208 16.4668C10.3228 16.4707 10.3237 16.4751 10.3237 16.48C10.3247 16.4839 10.3271 16.4873 10.3311 16.4902C10.335 16.498 10.3374 16.5044 10.3384 16.5093C10.3394 16.5132 10.3408 16.5161 10.3428 16.5181C10.3428 16.522 10.3438 16.5259 10.3457 16.5298C10.3477 16.5327 10.3496 16.5361 10.3516 16.54C10.3535 16.5498 10.3555 16.5566 10.3574 16.5605C10.3594 16.5674 10.3618 16.5737 10.3647 16.5796C10.3687 16.5845 10.3716 16.5903 10.3735 16.5972C10.3755 16.6011 10.3765 16.605 10.3765 16.6089C10.3765 16.6118 10.3774 16.6152 10.3794 16.6191C10.3833 16.624 10.3853 16.6274 10.3853 16.6294C10.3862 16.6313 10.3872 16.6333 10.3882 16.6353C10.3901 16.6411 10.3926 16.6475 10.3955 16.6543C10.3994 16.6602 10.4023 16.666 10.4043 16.6719C10.4111 16.6631 10.4155 16.6567 10.4175 16.6528C10.4194 16.6479 10.4214 16.6426 10.4233 16.6367C10.4253 16.6309 10.4272 16.6255 10.4292 16.6206C10.4312 16.6147 10.4331 16.6094 10.4351 16.6045C10.436 16.6016 10.4365 16.5986 10.4365 16.5957C10.4375 16.5918 10.4385 16.5889 10.4395 16.5869C10.4473 16.5684 10.4575 16.5488 10.4702 16.5283C10.4722 16.5254 10.4736 16.5229 10.4746 16.521C10.4766 16.519 10.478 16.5166 10.479 16.5137C10.481 16.5088 10.4824 16.5039 10.4834 16.499C10.4854 16.4932 10.4878 16.4873 10.4907 16.4814C10.4985 16.4678 10.5039 16.4565 10.5068 16.4478C10.5107 16.439 10.5151 16.4307 10.52 16.4229C10.522 16.418 10.5239 16.4141 10.5259 16.4111C10.5288 16.4082 10.5322 16.4043 10.5361 16.3994C10.54 16.3916 10.543 16.3867 10.5449 16.3848C10.5469 16.3828 10.5479 16.3813 10.5479 16.3804C10.5498 16.3726 10.5513 16.3682 10.5522 16.3672C10.5532 16.3662 10.5542 16.3652 10.5552 16.3643C10.5591 16.3574 10.5615 16.3525 10.5625 16.3496C10.5635 16.3467 10.5645 16.3438 10.5654 16.3408C10.5693 16.334 10.5728 16.3276 10.5757 16.3218C10.5796 16.3159 10.583 16.3091 10.5859 16.3013C10.5869 16.2983 10.5884 16.293 10.5903 16.2852C10.5972 16.2725 10.6021 16.2622 10.605 16.2544C10.6079 16.2466 10.6113 16.2402 10.6152 16.2354C10.6172 16.2324 10.6196 16.2275 10.6226 16.2207C10.6255 16.2139 10.6279 16.2075 10.6299 16.2017C10.6357 16.1938 10.6392 16.188 10.6401 16.1841C10.6411 16.1802 10.6426 16.1772 10.6445 16.1753C10.6475 16.1704 10.6499 16.166 10.6519 16.1621C10.6548 16.1582 10.6572 16.1538 10.6592 16.1489C10.6641 16.1382 10.6685 16.1299 10.6724 16.124C10.6763 16.1172 10.6792 16.1113 10.6812 16.1064C10.6831 16.1016 10.6851 16.0967 10.687 16.0918C10.6899 16.0869 10.6934 16.0825 10.6973 16.0786C10.6973 16.0679 10.6992 16.0586 10.7031 16.0508C10.708 16.042 10.7104 16.0342 10.7104 16.0273C10.7114 16.0195 10.7139 16.0132 10.7178 16.0083C10.7158 15.9985 10.7163 15.9893 10.7192 15.9805C10.7231 15.9707 10.7241 15.9614 10.7222 15.9526C10.731 15.938 10.7427 15.9277 10.7573 15.9219C10.7651 15.918 10.7734 15.916 10.7822 15.916C10.792 15.915 10.8013 15.9136 10.8101 15.9116C10.813 15.9106 10.8154 15.9092 10.8174 15.9072C10.8203 15.9053 10.8232 15.9038 10.8262 15.9028C10.832 15.9009 10.8384 15.9004 10.8452 15.9014C10.853 15.9014 10.8599 15.9014 10.8657 15.9014C10.8687 15.9004 10.8716 15.8994 10.8745 15.8984C10.8774 15.8975 10.8804 15.8965 10.8833 15.8955C10.8931 15.8994 10.8994 15.9004 10.9023 15.8984C10.9062 15.8965 10.9106 15.8955 10.9155 15.8955C10.9175 15.8975 10.9199 15.8984 10.9229 15.8984C10.9268 15.8984 10.9307 15.8994 10.9346 15.9014C10.9404 15.9092 10.9448 15.9141 10.9478 15.916C10.9507 15.917 10.9526 15.9189 10.9536 15.9219ZM12.1343 16.4976C12.1343 16.5171 12.1318 16.5371 12.127 16.5576C12.123 16.5771 12.1187 16.5957 12.1138 16.6133C12.1128 16.6162 12.1123 16.6191 12.1123 16.6221C12.1123 16.625 12.1118 16.6274 12.1108 16.6294C12.1099 16.6323 12.1079 16.6353 12.105 16.6382C12.103 16.6411 12.1016 16.644 12.1006 16.647C12.0977 16.6587 12.0962 16.6689 12.0962 16.6777C12.0972 16.6865 12.0957 16.6953 12.0918 16.7041C12.0869 16.7119 12.0835 16.7168 12.0815 16.7188C12.0796 16.7207 12.0776 16.7241 12.0757 16.729C12.0708 16.7368 12.0669 16.7437 12.064 16.7495C12.061 16.7544 12.0576 16.7578 12.0537 16.7598C12.0537 16.7617 12.0532 16.7642 12.0522 16.7671C12.0513 16.769 12.0513 16.772 12.0522 16.7759C12.0444 16.7817 12.0391 16.7891 12.0361 16.7979C12.0342 16.8057 12.0298 16.8135 12.0229 16.8213C12.0171 16.8281 12.0132 16.833 12.0112 16.8359C12.0103 16.8379 12.0088 16.8398 12.0068 16.8418C12.0039 16.8447 12.001 16.8472 11.998 16.8491C11.9951 16.8501 11.9922 16.8521 11.9893 16.855C11.9814 16.8647 11.9746 16.8721 11.9688 16.877C11.9629 16.8818 11.959 16.8877 11.957 16.8945C11.9502 16.8965 11.9453 16.8989 11.9424 16.9019C11.9346 16.9077 11.9302 16.9121 11.9292 16.915C11.9282 16.917 11.9268 16.9185 11.9248 16.9194C11.9189 16.9243 11.9141 16.9272 11.9102 16.9282C11.9062 16.9292 11.9033 16.9307 11.9014 16.9326C11.8955 16.9375 11.8877 16.9424 11.8779 16.9473C11.8682 16.9512 11.8604 16.9561 11.8545 16.9619C11.8438 16.9668 11.8364 16.9712 11.8325 16.9751C11.8296 16.978 11.8262 16.9805 11.8223 16.9824C11.8174 16.9854 11.812 16.9873 11.8062 16.9883C11.8013 16.9893 11.7979 16.9927 11.7959 16.9985C11.7832 17.0024 11.7729 17.0059 11.7651 17.0088C11.7583 17.0127 11.7495 17.0151 11.7388 17.0161C11.7339 17.021 11.7246 17.0249 11.7109 17.0278C11.6982 17.0317 11.6865 17.0342 11.6758 17.0352C11.6709 17.0352 11.666 17.0347 11.6611 17.0337C11.6562 17.0337 11.6514 17.0337 11.6465 17.0337C11.6406 17.0347 11.6348 17.0361 11.6289 17.0381C11.624 17.041 11.6191 17.0425 11.6143 17.0425C11.6104 17.0435 11.6064 17.043 11.6025 17.041C11.5996 17.0391 11.5957 17.0371 11.5908 17.0352C11.5801 17.0361 11.5713 17.0371 11.5645 17.0381C11.5576 17.04 11.5513 17.041 11.5454 17.041C11.5396 17.042 11.5332 17.042 11.5264 17.041C11.5205 17.04 11.5151 17.0391 11.5103 17.0381C11.5083 17.04 11.5034 17.04 11.4956 17.0381C11.4888 17.0371 11.4844 17.0356 11.4824 17.0337C11.4756 17.0386 11.4688 17.0391 11.4619 17.0352C11.4551 17.0312 11.4482 17.0283 11.4414 17.0264C11.4316 17.0234 11.4219 17.022 11.4121 17.022C11.4033 17.0229 11.395 17.02 11.3872 17.0132C11.3647 17.0132 11.3486 17.0073 11.3389 16.9956C11.3252 16.9927 11.3164 16.9902 11.3125 16.9883C11.3086 16.9863 11.3042 16.9839 11.2993 16.981C11.2954 16.9771 11.292 16.9746 11.2891 16.9736C11.2861 16.9717 11.2832 16.9692 11.2803 16.9663C11.2754 16.9624 11.2715 16.96 11.2686 16.959C11.2666 16.958 11.2646 16.9565 11.2627 16.9546C11.2598 16.9517 11.2568 16.9482 11.2539 16.9443C11.252 16.9404 11.2495 16.9375 11.2466 16.9355C11.2417 16.9355 11.2373 16.9346 11.2334 16.9326C11.2305 16.9297 11.2266 16.9258 11.2217 16.9209C11.2168 16.917 11.2109 16.9126 11.2041 16.9077C11.1982 16.9019 11.1943 16.896 11.1924 16.8901C11.1865 16.8882 11.1807 16.8862 11.1748 16.8843C11.1689 16.8823 11.1646 16.8794 11.1616 16.8755C11.1538 16.8677 11.1475 16.8613 11.1426 16.8564C11.1377 16.8516 11.1338 16.8467 11.1309 16.8418C11.126 16.8311 11.1221 16.8242 11.1191 16.8213C11.1162 16.8174 11.1128 16.814 11.1089 16.811C11.1011 16.8003 11.0947 16.7915 11.0898 16.7847C11.085 16.7778 11.0811 16.772 11.0781 16.7671C11.0742 16.7642 11.0713 16.7607 11.0693 16.7568C11.0674 16.7529 11.0654 16.749 11.0635 16.7451C11.0625 16.7402 11.0605 16.7358 11.0576 16.7319C11.0557 16.728 11.0527 16.7251 11.0488 16.7231C11.0498 16.7144 11.0479 16.7075 11.043 16.7026C11.0391 16.6968 11.0356 16.6904 11.0327 16.6836C11.0308 16.6787 11.0293 16.6733 11.0283 16.6675C11.0283 16.6616 11.0278 16.6553 11.0269 16.6484C11.0249 16.6455 11.0229 16.6426 11.021 16.6396C11.019 16.6357 11.0181 16.6318 11.0181 16.6279C11.019 16.6211 11.0186 16.6157 11.0166 16.6118C11.0156 16.6079 11.0146 16.6045 11.0137 16.6016C11.0127 16.5967 11.0122 16.5923 11.0122 16.5884C11.0132 16.5845 11.0132 16.5806 11.0122 16.5767L11.0078 16.5547C11.0078 16.5518 11.0078 16.5483 11.0078 16.5444C11.0088 16.5396 11.0073 16.5361 11.0034 16.5342C11.0054 16.5244 11.0063 16.5176 11.0063 16.5137C11.0044 16.5049 11.0034 16.5 11.0034 16.499C11.0044 16.4971 11.0049 16.4956 11.0049 16.4946C11.0039 16.4868 11.0039 16.48 11.0049 16.4741C11.0059 16.4683 11.0054 16.4609 11.0034 16.4521C11.0015 16.4482 11.001 16.4443 11.002 16.4404C11.0039 16.4365 11.0044 16.4312 11.0034 16.4243C11.0015 16.4136 11 16.4053 10.999 16.3994C10.999 16.3936 10.9995 16.3887 11.0005 16.3848C11.0005 16.3809 11.001 16.3774 11.002 16.3745C11.0039 16.3716 11.0049 16.3682 11.0049 16.3643C11.0039 16.3545 11.0039 16.3481 11.0049 16.3452C11.0059 16.3413 11.0063 16.3384 11.0063 16.3364C11.0054 16.3335 11.0044 16.3306 11.0034 16.3276C11.0024 16.3247 11.002 16.3223 11.002 16.3203C11.002 16.3154 11.0024 16.3105 11.0034 16.3057C11.0044 16.2998 11.0054 16.2944 11.0063 16.2896C11.0083 16.2837 11.0093 16.2778 11.0093 16.272C11.0093 16.2661 11.0103 16.2612 11.0122 16.2573C11.02 16.2456 11.0254 16.2358 11.0283 16.228C11.0322 16.2192 11.0356 16.2114 11.0386 16.2046C11.0425 16.1948 11.0454 16.1851 11.0474 16.1753C11.0503 16.1655 11.0557 16.1577 11.0635 16.1519C11.0645 16.144 11.0659 16.1377 11.0679 16.1328C11.0708 16.1279 11.0732 16.1226 11.0752 16.1167C11.0801 16.1069 11.0835 16.1006 11.0854 16.0977C11.0884 16.0947 11.0908 16.0908 11.0928 16.0859C11.0977 16.0781 11.1006 16.0723 11.1016 16.0684C11.1025 16.0635 11.1035 16.0601 11.1045 16.0581C11.1123 16.0503 11.1177 16.0435 11.1206 16.0376C11.1245 16.0308 11.1274 16.0249 11.1294 16.02C11.1392 16.0161 11.147 16.0083 11.1528 15.9966C11.1587 15.9956 11.1626 15.9932 11.1646 15.9893C11.1665 15.9844 11.1714 15.9824 11.1792 15.9834C11.1812 15.9785 11.1855 15.9746 11.1924 15.9717C11.1943 15.9678 11.1963 15.9653 11.1982 15.9644C11.2012 15.9634 11.2036 15.9614 11.2056 15.9585C11.2134 15.9575 11.2197 15.9551 11.2246 15.9512C11.2305 15.9473 11.2363 15.9438 11.2422 15.9409C11.248 15.938 11.2539 15.936 11.2598 15.9351C11.2666 15.9331 11.2734 15.9297 11.2803 15.9248C11.2891 15.9258 11.2959 15.9253 11.3008 15.9233C11.3057 15.9204 11.3105 15.917 11.3154 15.9131C11.3223 15.915 11.3286 15.915 11.3345 15.9131C11.3413 15.9111 11.3472 15.9092 11.3521 15.9072C11.3599 15.9043 11.3691 15.9014 11.3799 15.8984C11.3916 15.8955 11.4028 15.8931 11.4136 15.8911C11.4214 15.8892 11.4287 15.8877 11.4355 15.8867C11.4434 15.8848 11.4512 15.8823 11.459 15.8794C11.4668 15.8774 11.4717 15.876 11.4736 15.875C11.4756 15.874 11.4775 15.8735 11.4795 15.8735C11.4814 15.8726 11.4839 15.8726 11.4868 15.8735C11.4897 15.8735 11.4927 15.8735 11.4956 15.8735C11.5034 15.8765 11.5083 15.8779 11.5103 15.8779C11.5122 15.877 11.5142 15.8765 11.5161 15.8765C11.5259 15.8794 11.5327 15.8809 11.5366 15.8809C11.5532 15.8857 11.5659 15.8887 11.5747 15.8896C11.5835 15.8906 11.5908 15.894 11.5967 15.8999C11.6035 15.897 11.6113 15.896 11.6201 15.897C11.6299 15.8979 11.6387 15.8984 11.6465 15.8984C11.6514 15.8984 11.6548 15.8999 11.6567 15.9028C11.6587 15.9058 11.6611 15.9077 11.6641 15.9087C11.6748 15.9087 11.6846 15.9102 11.6934 15.9131C11.7002 15.916 11.7056 15.9175 11.7095 15.9175C11.7134 15.9165 11.7163 15.9165 11.7183 15.9175C11.7212 15.9185 11.7241 15.9199 11.7271 15.9219C11.731 15.9229 11.7339 15.9238 11.7358 15.9248C11.7446 15.9277 11.7524 15.9302 11.7593 15.9321C11.7671 15.9331 11.7734 15.9375 11.7783 15.9453C11.7822 15.9453 11.7847 15.9443 11.7856 15.9424C11.7866 15.9395 11.7896 15.939 11.7944 15.9409C11.8022 15.9448 11.811 15.9473 11.8208 15.9482C11.8315 15.9492 11.8418 15.9517 11.8516 15.9556C11.8604 15.9604 11.8657 15.9644 11.8677 15.9673C11.8706 15.9692 11.873 15.9707 11.875 15.9717C11.8799 15.9736 11.8843 15.9756 11.8882 15.9775C11.8931 15.9785 11.896 15.9814 11.897 15.9863C11.9019 15.9863 11.9058 15.9873 11.9087 15.9893C11.9126 15.9902 11.916 15.9917 11.9189 15.9937C11.9238 15.9966 11.9282 16 11.9321 16.0039C11.936 16.0078 11.9404 16.0117 11.9453 16.0156C11.9512 16.0225 11.9556 16.0264 11.9585 16.0273C11.9624 16.0283 11.9653 16.0293 11.9673 16.0303C11.9702 16.0342 11.9727 16.0381 11.9746 16.042C11.9766 16.0449 11.9785 16.0479 11.9805 16.0508C11.9883 16.0518 11.9941 16.0542 11.998 16.0581C12.002 16.062 12.0073 16.0649 12.0142 16.0669C12.019 16.0747 12.0249 16.0815 12.0317 16.0874C12.0386 16.0952 12.0425 16.1011 12.0435 16.105C12.0454 16.1079 12.0474 16.1108 12.0493 16.1138C12.0513 16.1167 12.0527 16.1201 12.0537 16.124C12.0547 16.127 12.0562 16.1304 12.0581 16.1343C12.061 16.1392 12.0649 16.1455 12.0698 16.1533C12.0747 16.1602 12.0762 16.1689 12.0742 16.1797C12.0791 16.1826 12.0825 16.187 12.0845 16.1929C12.0864 16.1987 12.0894 16.2046 12.0933 16.2104C12.0981 16.2183 12.1006 16.2241 12.1006 16.228C12.1006 16.231 12.1011 16.2334 12.1021 16.2354C12.104 16.2402 12.1055 16.2461 12.1064 16.2529C12.1084 16.2598 12.1099 16.2666 12.1108 16.2734C12.1118 16.2783 12.1118 16.2822 12.1108 16.2852C12.1099 16.2881 12.1099 16.291 12.1108 16.2939C12.1128 16.3037 12.1152 16.313 12.1182 16.3218C12.1221 16.3296 12.1265 16.3374 12.1313 16.3452C12.1304 16.3569 12.1299 16.3677 12.1299 16.3774C12.1309 16.3872 12.1309 16.3984 12.1299 16.4111C12.1289 16.4238 12.1294 16.4375 12.1313 16.4521C12.1343 16.4658 12.1353 16.481 12.1343 16.4976ZM11.9761 16.395C11.9761 16.3901 11.9751 16.3853 11.9731 16.3804C11.9722 16.3755 11.9717 16.3706 11.9717 16.3657C11.9717 16.3608 11.9717 16.3564 11.9717 16.3525C11.9727 16.3477 11.9727 16.3428 11.9717 16.3379C11.9707 16.334 11.9692 16.3306 11.9673 16.3276C11.9653 16.3247 11.9634 16.3213 11.9614 16.3174C11.9604 16.3125 11.9609 16.3091 11.9629 16.3071C11.9658 16.3052 11.9653 16.3027 11.9614 16.2998C11.9585 16.2939 11.9556 16.2871 11.9526 16.2793C11.9507 16.2715 11.9487 16.2637 11.9468 16.2559C11.9399 16.249 11.9355 16.2446 11.9336 16.2427C11.9316 16.2397 11.9297 16.2368 11.9277 16.2339C11.9219 16.2261 11.918 16.2207 11.916 16.2178C11.915 16.2139 11.9136 16.2109 11.9116 16.209C11.9048 16.2021 11.897 16.1963 11.8882 16.1914C11.8794 16.1855 11.8706 16.1792 11.8618 16.1724C11.8569 16.1694 11.8525 16.1665 11.8486 16.1636C11.8457 16.1597 11.8418 16.1558 11.8369 16.1519C11.8271 16.146 11.8208 16.1416 11.8179 16.1387C11.8159 16.1357 11.814 16.1333 11.812 16.1313C11.8042 16.1274 11.7954 16.1255 11.7856 16.1255C11.7759 16.1245 11.7676 16.1201 11.7607 16.1123C11.748 16.1143 11.7354 16.1128 11.7227 16.1079C11.71 16.1021 11.6953 16.0996 11.6787 16.1006C11.6758 16.0996 11.6733 16.0986 11.6714 16.0977C11.6694 16.0957 11.6665 16.0938 11.6626 16.0918C11.6548 16.0947 11.6484 16.0957 11.6436 16.0947C11.6387 16.0928 11.6338 16.0908 11.6289 16.0889C11.625 16.0879 11.6216 16.0869 11.6187 16.0859C11.6157 16.085 11.6128 16.084 11.6099 16.083C11.603 16.0811 11.5962 16.0791 11.5894 16.0771C11.5825 16.0752 11.5762 16.0737 11.5703 16.0728C11.5615 16.0747 11.5542 16.0747 11.5483 16.0728C11.5425 16.0708 11.5371 16.0698 11.5322 16.0698C11.5273 16.0698 11.522 16.0708 11.5161 16.0728C11.5112 16.0737 11.5068 16.0742 11.5029 16.0742C11.4883 16.0703 11.4746 16.0684 11.4619 16.0684C11.4502 16.0674 11.4414 16.0659 11.4355 16.064C11.4307 16.062 11.4258 16.0605 11.4209 16.0596C11.417 16.0586 11.4131 16.0566 11.4092 16.0537C11.4062 16.0576 11.4033 16.0601 11.4004 16.061C11.3984 16.062 11.3965 16.0635 11.3945 16.0654C11.3877 16.0674 11.3823 16.0708 11.3784 16.0757C11.3745 16.0796 11.3701 16.083 11.3652 16.0859C11.3604 16.0879 11.355 16.0898 11.3491 16.0918C11.3442 16.0928 11.3394 16.0947 11.3345 16.0977C11.3325 16.0996 11.3306 16.1016 11.3286 16.1035C11.3267 16.1055 11.3247 16.1074 11.3228 16.1094C11.3208 16.1113 11.3184 16.1128 11.3154 16.1138C11.3125 16.1147 11.3101 16.1162 11.3081 16.1182C11.3032 16.1221 11.2988 16.1265 11.2949 16.1313C11.292 16.1353 11.2876 16.1382 11.2817 16.1401C11.2798 16.145 11.2764 16.1499 11.2715 16.1548C11.2676 16.1597 11.2642 16.1646 11.2612 16.1694C11.2573 16.1743 11.2534 16.1792 11.2495 16.1841C11.2466 16.189 11.2422 16.1924 11.2363 16.1943C11.2363 16.2021 11.2349 16.2085 11.2319 16.2134C11.229 16.2173 11.2271 16.2231 11.2261 16.231C11.2202 16.2388 11.2163 16.2446 11.2144 16.2485C11.2124 16.2524 11.2104 16.2568 11.2085 16.2617C11.2036 16.2725 11.1997 16.2798 11.1968 16.2837C11.1948 16.2876 11.1929 16.2915 11.1909 16.2954C11.187 16.3052 11.1836 16.312 11.1807 16.3159C11.1768 16.3237 11.1738 16.3301 11.1719 16.335C11.1699 16.3389 11.168 16.3457 11.166 16.3555C11.1641 16.3652 11.1616 16.376 11.1587 16.3877C11.1567 16.3984 11.1562 16.4072 11.1572 16.4141C11.1553 16.4209 11.1543 16.4263 11.1543 16.4302C11.1553 16.4331 11.1553 16.436 11.1543 16.439C11.1484 16.4604 11.146 16.4785 11.147 16.4932C11.1489 16.5068 11.1509 16.5205 11.1528 16.5342C11.1538 16.5449 11.1538 16.5552 11.1528 16.5649C11.1519 16.5737 11.1523 16.5815 11.1543 16.5884C11.1543 16.5923 11.1553 16.5962 11.1572 16.6001C11.1592 16.603 11.1611 16.606 11.1631 16.6089C11.1641 16.6138 11.1646 16.6182 11.1646 16.6221C11.1646 16.625 11.1655 16.6289 11.1675 16.6338C11.1714 16.6445 11.1743 16.6538 11.1763 16.6616C11.1782 16.6694 11.1802 16.6748 11.1821 16.6777C11.1851 16.6816 11.188 16.6851 11.1909 16.688C11.1948 16.6899 11.1982 16.6929 11.2012 16.6968C11.2041 16.7007 11.2065 16.7046 11.2085 16.7085C11.2104 16.7124 11.2129 16.7168 11.2158 16.7217C11.2217 16.7295 11.2251 16.7349 11.2261 16.7378C11.228 16.7397 11.23 16.7417 11.2319 16.7437C11.2349 16.7476 11.2378 16.751 11.2407 16.7539C11.2446 16.7559 11.248 16.7588 11.251 16.7627C11.2539 16.7666 11.2563 16.771 11.2583 16.7759C11.2612 16.7798 11.2642 16.7842 11.2671 16.7891C11.2817 16.7969 11.2949 16.8057 11.3066 16.8154C11.3184 16.8242 11.3301 16.8345 11.3418 16.8462C11.3545 16.8481 11.3667 16.8516 11.3784 16.8564C11.3911 16.8613 11.4028 16.8657 11.4136 16.8696C11.4175 16.8706 11.4214 16.8721 11.4253 16.874C11.4302 16.875 11.4351 16.876 11.4399 16.877C11.4438 16.877 11.4478 16.8765 11.4517 16.8755C11.4556 16.8745 11.46 16.874 11.4648 16.874C11.4736 16.875 11.481 16.877 11.4868 16.8799C11.4937 16.8818 11.501 16.8838 11.5088 16.8857C11.5176 16.8867 11.5259 16.8872 11.5337 16.8872C11.5415 16.8862 11.5493 16.8877 11.5571 16.8916C11.562 16.8887 11.5659 16.8872 11.5688 16.8872C11.5728 16.8872 11.5771 16.8877 11.582 16.8887C11.5918 16.8818 11.603 16.8789 11.6157 16.8799C11.6284 16.8809 11.6411 16.8799 11.6538 16.877C11.6587 16.873 11.6621 16.8711 11.6641 16.8711C11.666 16.8711 11.668 16.8706 11.6699 16.8696C11.6768 16.8667 11.6826 16.8638 11.6875 16.8608C11.6924 16.8579 11.6978 16.8555 11.7036 16.8535C11.7065 16.8525 11.71 16.8516 11.7139 16.8506C11.7178 16.8496 11.7212 16.8486 11.7241 16.8477C11.729 16.8418 11.7329 16.8384 11.7358 16.8374C11.7388 16.8364 11.7412 16.8354 11.7432 16.8345C11.7461 16.8325 11.749 16.8306 11.752 16.8286C11.7549 16.8257 11.7588 16.8247 11.7637 16.8257C11.7666 16.8198 11.7705 16.8159 11.7754 16.814C11.7812 16.811 11.7876 16.8086 11.7944 16.8066C11.7964 16.8027 11.7983 16.8003 11.8003 16.7993C11.8022 16.7974 11.8042 16.7954 11.8062 16.7935C11.811 16.7886 11.8149 16.7847 11.8179 16.7817C11.8208 16.7788 11.8228 16.7769 11.8237 16.7759C11.8306 16.7661 11.8384 16.7568 11.8472 16.748C11.8481 16.7432 11.8496 16.7402 11.8516 16.7393C11.8545 16.7373 11.8569 16.7354 11.8589 16.7334C11.8599 16.7285 11.8613 16.7241 11.8633 16.7202C11.8652 16.7153 11.8672 16.7109 11.8691 16.707C11.8711 16.7021 11.873 16.6982 11.875 16.6953C11.8779 16.6914 11.8794 16.6865 11.8794 16.6807C11.8843 16.6787 11.8872 16.6758 11.8882 16.6719C11.8901 16.667 11.8921 16.6621 11.894 16.6572C11.8999 16.6465 11.9038 16.6392 11.9058 16.6353C11.9087 16.6313 11.9111 16.6279 11.9131 16.625C11.915 16.6211 11.9165 16.6182 11.9175 16.6162C11.9185 16.6133 11.9199 16.6104 11.9219 16.6074C11.9258 16.5967 11.9287 16.5898 11.9307 16.5869C11.9326 16.584 11.9341 16.5815 11.9351 16.5796C11.936 16.5757 11.936 16.5718 11.9351 16.5679C11.9351 16.563 11.936 16.5581 11.938 16.5532C11.9399 16.5493 11.9419 16.5459 11.9438 16.543C11.9468 16.5391 11.9487 16.5337 11.9497 16.5269C11.9507 16.5229 11.9502 16.519 11.9482 16.5151C11.9473 16.5103 11.9473 16.5054 11.9482 16.5005C11.9492 16.4966 11.9507 16.4927 11.9526 16.4888C11.9546 16.4849 11.9565 16.4805 11.9585 16.4756C11.9604 16.4688 11.9624 16.4619 11.9644 16.4551C11.9673 16.4482 11.9683 16.4434 11.9673 16.4404C11.9692 16.4336 11.9702 16.4287 11.9702 16.4258C11.9702 16.4219 11.9702 16.4189 11.9702 16.417C11.9712 16.4121 11.9722 16.4082 11.9731 16.4053C11.9751 16.4023 11.9761 16.3989 11.9761 16.395ZM13.2563 16.0889C13.2554 16.0977 13.2534 16.1055 13.2505 16.1123C13.2476 16.1182 13.2437 16.124 13.2388 16.1299C13.2319 16.1367 13.228 16.1421 13.2271 16.146C13.2261 16.1489 13.2246 16.1514 13.2227 16.1533C13.2178 16.1602 13.2148 16.1646 13.2139 16.1665C13.2129 16.1685 13.2119 16.1699 13.2109 16.1709C13.207 16.1748 13.2041 16.1782 13.2021 16.1812C13.2012 16.1841 13.1992 16.1851 13.1963 16.1841C13.1943 16.1929 13.1899 16.2026 13.1831 16.2134C13.1763 16.2231 13.1675 16.229 13.1567 16.231C13.1499 16.231 13.1431 16.2295 13.1362 16.2266C13.1304 16.2227 13.126 16.2168 13.123 16.209C13.1191 16.208 13.1157 16.207 13.1128 16.2061C13.1108 16.2051 13.1079 16.2036 13.104 16.2017C13.103 16.1968 13.1006 16.1943 13.0967 16.1943C13.0938 16.1934 13.0923 16.1904 13.0923 16.1855C13.0864 16.1836 13.0815 16.1812 13.0776 16.1782C13.0747 16.1743 13.0708 16.1709 13.0659 16.168C13.062 16.165 13.0576 16.1616 13.0527 16.1577C13.0479 16.1538 13.0439 16.1484 13.041 16.1416C13.0332 16.1367 13.0254 16.1318 13.0176 16.127C13.0098 16.1221 13.0015 16.1172 12.9927 16.1123C12.9849 16.1084 12.9761 16.104 12.9663 16.0991C12.9575 16.0933 12.9478 16.0898 12.937 16.0889C12.9351 16.085 12.9316 16.0825 12.9268 16.0815C12.9229 16.0796 12.9189 16.0771 12.915 16.0742C12.9043 16.0732 12.8936 16.0718 12.8828 16.0698C12.873 16.0679 12.8623 16.0659 12.8506 16.064C12.8398 16.0679 12.8262 16.0693 12.8096 16.0684C12.7939 16.0664 12.7808 16.064 12.77 16.061C12.7671 16.061 12.7642 16.062 12.7612 16.064C12.7583 16.0659 12.7549 16.0674 12.751 16.0684C12.7432 16.0684 12.7373 16.0688 12.7334 16.0698C12.7305 16.0708 12.728 16.0718 12.7261 16.0728C12.7222 16.0737 12.7183 16.0742 12.7144 16.0742C12.7104 16.0732 12.7065 16.0732 12.7026 16.0742C12.6978 16.0762 12.6934 16.0781 12.6895 16.0801C12.6855 16.082 12.6812 16.083 12.6763 16.083C12.6714 16.084 12.6685 16.0869 12.6675 16.0918C12.6665 16.0957 12.665 16.0986 12.6631 16.1006C12.6514 16.1025 12.6416 16.1064 12.6338 16.1123C12.626 16.1182 12.6187 16.125 12.6118 16.1328C12.5981 16.1396 12.5869 16.145 12.5781 16.1489C12.5703 16.1519 12.5645 16.1577 12.5605 16.1665C12.5547 16.1665 12.5498 16.168 12.5459 16.1709C12.543 16.1729 12.54 16.1753 12.5371 16.1782C12.5342 16.1802 12.5312 16.1826 12.5283 16.1855C12.5254 16.1875 12.5215 16.1885 12.5166 16.1885C12.5137 16.1934 12.5112 16.1978 12.5093 16.2017C12.5073 16.2056 12.5049 16.209 12.502 16.2119C12.4912 16.2178 12.4844 16.2222 12.4814 16.2251C12.4795 16.2271 12.4761 16.23 12.4712 16.2339C12.4673 16.2378 12.4644 16.2407 12.4624 16.2427C12.4614 16.2437 12.4595 16.2461 12.4565 16.25C12.4536 16.2559 12.4497 16.2632 12.4448 16.272C12.4409 16.2808 12.436 16.2871 12.4302 16.291C12.4282 16.3008 12.4253 16.3091 12.4214 16.3159C12.4175 16.3218 12.4131 16.3276 12.4082 16.3335C12.4062 16.3364 12.4058 16.3394 12.4067 16.3423C12.4077 16.3452 12.4072 16.3481 12.4053 16.3511C12.4043 16.355 12.4023 16.3589 12.3994 16.3628C12.3965 16.3667 12.3945 16.3706 12.3936 16.3745C12.3926 16.3794 12.3926 16.3843 12.3936 16.3892C12.3945 16.3931 12.395 16.397 12.395 16.4009C12.395 16.4048 12.394 16.4082 12.3921 16.4111C12.3911 16.4131 12.3906 16.4155 12.3906 16.4185C12.3887 16.4302 12.3877 16.4429 12.3877 16.4565C12.3877 16.4702 12.3872 16.4824 12.3862 16.4932C12.3862 16.4971 12.3862 16.502 12.3862 16.5078C12.3872 16.5127 12.3877 16.5176 12.3877 16.5225C12.3887 16.5273 12.3892 16.5327 12.3892 16.5386C12.3892 16.5435 12.3892 16.5474 12.3892 16.5503C12.3901 16.5542 12.3916 16.5576 12.3936 16.5605C12.3955 16.5625 12.397 16.5654 12.3979 16.5693C12.3999 16.5732 12.4004 16.5771 12.3994 16.5811C12.3994 16.585 12.4014 16.5879 12.4053 16.5898C12.4014 16.5986 12.4014 16.6045 12.4053 16.6074C12.4102 16.6104 12.4116 16.6162 12.4097 16.625C12.4155 16.6318 12.4204 16.6377 12.4243 16.6426C12.4292 16.6465 12.4321 16.6494 12.4331 16.6514C12.439 16.6602 12.4429 16.666 12.4448 16.6689C12.4478 16.6719 12.4502 16.6753 12.4521 16.6792C12.4561 16.6841 12.4604 16.6899 12.4653 16.6968C12.4712 16.7036 12.4766 16.71 12.4814 16.7158C12.4863 16.7207 12.4897 16.7246 12.4917 16.7275C12.4946 16.7295 12.498 16.7329 12.502 16.7378C12.5049 16.7427 12.5083 16.7461 12.5122 16.748C12.5161 16.749 12.5205 16.7515 12.5254 16.7554C12.5273 16.7573 12.5293 16.7598 12.5312 16.7627C12.5332 16.7646 12.5366 16.7661 12.5415 16.7671C12.5464 16.772 12.5522 16.7759 12.5591 16.7788C12.5669 16.7808 12.5718 16.7856 12.5737 16.7935C12.5845 16.7974 12.5947 16.8022 12.6045 16.8081C12.6143 16.813 12.626 16.8174 12.6396 16.8213C12.6533 16.8232 12.6641 16.8247 12.6719 16.8257C12.6807 16.8257 12.687 16.8262 12.6909 16.8271C12.6987 16.8281 12.7051 16.8286 12.71 16.8286C12.7158 16.8286 12.7231 16.8281 12.7319 16.8271C12.7427 16.8291 12.75 16.8296 12.7539 16.8286C12.7578 16.8267 12.7612 16.8257 12.7642 16.8257C12.7671 16.8257 12.77 16.8262 12.7729 16.8271C12.7759 16.8281 12.7788 16.8286 12.7817 16.8286C12.7935 16.8296 12.8047 16.8291 12.8154 16.8271C12.8271 16.8252 12.8389 16.8262 12.8506 16.8301C12.8535 16.8291 12.856 16.8281 12.8579 16.8271C12.8608 16.8252 12.8643 16.8237 12.8682 16.8228C12.8789 16.8257 12.8887 16.8257 12.8975 16.8228C12.9072 16.8188 12.9146 16.8188 12.9194 16.8228C12.9243 16.8228 12.9272 16.8218 12.9282 16.8198C12.9302 16.8179 12.9326 16.8164 12.9355 16.8154C12.9404 16.8145 12.9438 16.8149 12.9458 16.8169C12.9478 16.8179 12.9507 16.8184 12.9546 16.8184C12.9595 16.8174 12.9639 16.8154 12.9678 16.8125C12.9717 16.8096 12.9761 16.8071 12.981 16.8052C12.9839 16.8032 12.9868 16.8027 12.9897 16.8037C12.9937 16.8037 12.9976 16.8032 13.0015 16.8022C13.0142 16.7993 13.0239 16.7969 13.0308 16.7949C13.0386 16.793 13.0449 16.792 13.0498 16.792C13.0596 16.791 13.0688 16.7905 13.0776 16.7905C13.0874 16.7896 13.0952 16.7852 13.1011 16.7773C13.1177 16.7754 13.1299 16.7734 13.1377 16.7715C13.1455 16.7695 13.1533 16.7681 13.1611 16.7671C13.165 16.77 13.1665 16.7749 13.1655 16.7817C13.1655 16.7876 13.1689 16.791 13.1758 16.792C13.1748 16.7969 13.1748 16.8008 13.1758 16.8037C13.1768 16.8057 13.1777 16.8081 13.1787 16.811C13.1807 16.8159 13.1831 16.8213 13.186 16.8271C13.1899 16.832 13.1924 16.8384 13.1934 16.8462C13.1943 16.8491 13.1943 16.8521 13.1934 16.855C13.1924 16.8569 13.1919 16.8594 13.1919 16.8623C13.1929 16.8721 13.1938 16.8779 13.1948 16.8799C13.1968 16.8818 13.1978 16.8838 13.1978 16.8857C13.1987 16.8965 13.1997 16.9043 13.2007 16.9092C13.2017 16.9141 13.2021 16.918 13.2021 16.9209C13.2012 16.9238 13.1997 16.9272 13.1978 16.9312C13.1958 16.9341 13.1948 16.937 13.1948 16.9399C13.187 16.9419 13.1777 16.9438 13.167 16.9458C13.1572 16.9468 13.1499 16.9443 13.145 16.9385C13.1372 16.9404 13.1304 16.9429 13.1245 16.9458C13.1196 16.9487 13.1133 16.9521 13.1055 16.9561C13.0977 16.9609 13.0908 16.9639 13.085 16.9648C13.0801 16.9658 13.0752 16.9668 13.0703 16.9678C13.0664 16.9697 13.0625 16.9712 13.0586 16.9722C13.0557 16.9731 13.0518 16.9736 13.0469 16.9736C13.042 16.9775 13.0371 16.981 13.0322 16.9839C13.0273 16.9868 13.0215 16.9893 13.0146 16.9912C13.0029 16.9961 12.9927 16.9985 12.9839 16.9985C12.9751 16.9976 12.9673 16.998 12.9604 17C12.9556 17.001 12.9507 17.002 12.9458 17.0029C12.9419 17.0049 12.938 17.0068 12.9341 17.0088C12.9253 17.0088 12.9189 17.0083 12.915 17.0073C12.9121 17.0073 12.9092 17.0078 12.9062 17.0088C12.9014 17.0088 12.896 17.0078 12.8901 17.0059C12.8853 17.0049 12.8804 17.0049 12.8755 17.0059C12.8716 17.0059 12.8677 17.0063 12.8638 17.0073C12.8599 17.0093 12.8555 17.0107 12.8506 17.0117C12.8477 17.0117 12.8447 17.0112 12.8418 17.0103C12.8389 17.0093 12.8354 17.0088 12.8315 17.0088C12.8296 17.0088 12.8267 17.0093 12.8228 17.0103C12.8198 17.0112 12.8174 17.0112 12.8154 17.0103C12.8018 17.0103 12.7876 17.0093 12.7729 17.0073C12.7593 17.0054 12.7456 17.0054 12.7319 17.0073C12.7212 17.0024 12.7139 17 12.71 17C12.707 17.001 12.7036 17.0015 12.6997 17.0015C12.6968 16.9966 12.6914 16.9946 12.6836 16.9956C12.6758 16.9966 12.6694 16.9951 12.6646 16.9912C12.6616 16.9883 12.6587 16.9868 12.6558 16.9868C12.6528 16.9868 12.6504 16.9868 12.6484 16.9868C12.6387 16.9819 12.6318 16.9756 12.6279 16.9678C12.626 16.9697 12.623 16.9707 12.6191 16.9707C12.6152 16.9707 12.6118 16.9707 12.6089 16.9707C12.604 16.9678 12.6001 16.9648 12.5972 16.9619C12.5942 16.959 12.5903 16.9565 12.5854 16.9546C12.5767 16.9536 12.5684 16.9526 12.5605 16.9517C12.5527 16.9497 12.5469 16.9443 12.543 16.9355C12.5391 16.9346 12.5356 16.9341 12.5327 16.9341C12.5298 16.9341 12.5269 16.9336 12.5239 16.9326C12.5151 16.9287 12.5088 16.9268 12.5049 16.9268C12.502 16.9258 12.499 16.9243 12.4961 16.9224C12.4912 16.9185 12.4873 16.9165 12.4844 16.9165C12.4824 16.9155 12.481 16.915 12.48 16.915C12.4634 16.9014 12.4473 16.8896 12.4316 16.8799C12.417 16.8701 12.4033 16.8608 12.3906 16.8521C12.3867 16.8452 12.3833 16.8389 12.3804 16.833C12.3774 16.8271 12.3721 16.8232 12.3643 16.8213C12.3652 16.8174 12.3638 16.8149 12.3599 16.814C12.3569 16.813 12.356 16.8101 12.3569 16.8052C12.353 16.8022 12.3496 16.7993 12.3467 16.7964C12.3457 16.7954 12.3452 16.7944 12.3452 16.7935C12.3413 16.7886 12.3369 16.7847 12.332 16.7817C12.3281 16.7788 12.3257 16.7759 12.3247 16.7729C12.3228 16.7681 12.3198 16.7632 12.3159 16.7583C12.312 16.7534 12.3081 16.7485 12.3042 16.7437C12.2905 16.7271 12.2822 16.7124 12.2793 16.6997C12.2744 16.687 12.27 16.6792 12.2661 16.6763C12.2622 16.6724 12.2607 16.667 12.2617 16.6602C12.2598 16.6572 12.2578 16.6548 12.2559 16.6528C12.2539 16.6499 12.252 16.6465 12.25 16.6426C12.251 16.6338 12.25 16.627 12.2471 16.6221C12.2451 16.6172 12.2422 16.6123 12.2383 16.6074C12.2393 16.6025 12.2402 16.5991 12.2412 16.5972C12.2422 16.5942 12.2422 16.5898 12.2412 16.584C12.2393 16.5791 12.2368 16.5742 12.2339 16.5693C12.231 16.5635 12.2285 16.5571 12.2266 16.5503C12.2246 16.5454 12.2236 16.542 12.2236 16.54C12.2246 16.5371 12.2241 16.5317 12.2222 16.5239C12.2212 16.519 12.2197 16.5122 12.2178 16.5034C12.2158 16.4937 12.2153 16.4854 12.2163 16.4785C12.2173 16.4736 12.2188 16.4692 12.2207 16.4653C12.2227 16.4614 12.2246 16.4575 12.2266 16.4536C12.2236 16.437 12.2261 16.4233 12.2339 16.4126C12.229 16.3892 12.231 16.3657 12.2397 16.3423C12.2427 16.3354 12.2441 16.3286 12.2441 16.3218C12.2451 16.3149 12.2466 16.3091 12.2485 16.3042C12.2485 16.3022 12.2495 16.2993 12.2515 16.2954C12.2544 16.2915 12.2549 16.2861 12.2529 16.2793C12.2549 16.2764 12.2563 16.2739 12.2573 16.272C12.2593 16.269 12.2612 16.2661 12.2632 16.2632C12.2651 16.2515 12.2686 16.2402 12.2734 16.2295C12.2793 16.2178 12.2856 16.2065 12.2925 16.1958C12.3022 16.1831 12.3096 16.1714 12.3145 16.1606C12.3193 16.1489 12.3247 16.1392 12.3306 16.1313C12.3354 16.1255 12.3408 16.1201 12.3467 16.1152C12.3525 16.1104 12.3574 16.104 12.3613 16.0962C12.3672 16.0972 12.3711 16.0957 12.373 16.0918C12.375 16.0869 12.3784 16.0845 12.3833 16.0845C12.3843 16.0806 12.3877 16.0757 12.3936 16.0698C12.4014 16.0601 12.4077 16.0532 12.4126 16.0493C12.4175 16.0444 12.4209 16.0396 12.4229 16.0347C12.4287 16.0347 12.4326 16.0327 12.4346 16.0288C12.4375 16.0249 12.4404 16.021 12.4434 16.0171C12.4502 16.0151 12.4551 16.0122 12.458 16.0083C12.4609 16.0034 12.4663 16.0005 12.4741 15.9995C12.4761 15.9937 12.4805 15.9907 12.4873 15.9907C12.4951 15.9897 12.5 15.9858 12.502 15.979C12.5098 15.978 12.5176 15.9756 12.5254 15.9717C12.5332 15.9668 12.541 15.9629 12.5488 15.96C12.5527 15.958 12.5566 15.9565 12.5605 15.9556C12.5645 15.9536 12.5684 15.9517 12.5723 15.9497C12.5811 15.9478 12.5864 15.9463 12.5884 15.9453C12.5903 15.9434 12.5923 15.9419 12.5942 15.9409C12.5981 15.9399 12.6025 15.9395 12.6074 15.9395C12.6123 15.9395 12.6172 15.939 12.6221 15.938C12.6279 15.936 12.6338 15.9336 12.6396 15.9307C12.6455 15.9277 12.6514 15.9253 12.6572 15.9233C12.6602 15.9224 12.6636 15.9219 12.6675 15.9219C12.6724 15.9209 12.6768 15.9199 12.6807 15.9189C12.6846 15.918 12.6885 15.917 12.6924 15.916C12.6973 15.9141 12.7026 15.9141 12.7085 15.916C12.7114 15.916 12.7144 15.916 12.7173 15.916C12.7212 15.916 12.7261 15.915 12.7319 15.9131C12.7427 15.9111 12.7563 15.9087 12.7729 15.9058C12.7896 15.9028 12.8022 15.9053 12.811 15.9131C12.8169 15.9102 12.8228 15.9077 12.8286 15.9058C12.8345 15.9028 12.8413 15.9038 12.8491 15.9087C12.8521 15.9087 12.855 15.9082 12.8579 15.9072C12.8618 15.9053 12.8657 15.9038 12.8696 15.9028C12.8726 15.9028 12.875 15.9038 12.877 15.9058C12.8799 15.9067 12.8833 15.9072 12.8872 15.9072C12.8921 15.9082 12.896 15.9087 12.8989 15.9087C12.9028 15.9077 12.9072 15.9077 12.9121 15.9087C12.9189 15.9097 12.9253 15.9111 12.9312 15.9131C12.937 15.915 12.9434 15.917 12.9502 15.9189C12.9541 15.9199 12.9575 15.9204 12.9604 15.9204C12.9644 15.9194 12.9683 15.9199 12.9722 15.9219C12.9751 15.9219 12.978 15.9229 12.981 15.9248C12.9849 15.9258 12.9878 15.9263 12.9897 15.9263C12.9927 15.9263 12.9956 15.9258 12.9985 15.9248C13.0015 15.9238 13.0039 15.9238 13.0059 15.9248C13.0146 15.9268 13.0229 15.9302 13.0308 15.9351C13.0386 15.939 13.0474 15.9404 13.0571 15.9395C13.0679 15.9492 13.0806 15.957 13.0952 15.9629C13.1099 15.9688 13.1211 15.9785 13.1289 15.9922C13.1318 15.9932 13.1348 15.9946 13.1377 15.9966C13.1406 15.9976 13.1436 15.9985 13.1465 15.9995C13.1533 16.0073 13.1602 16.0151 13.167 16.0229C13.1748 16.0308 13.1841 16.0366 13.1948 16.0405C13.1968 16.0454 13.1997 16.0483 13.2036 16.0493C13.2085 16.0493 13.2134 16.0503 13.2183 16.0522C13.2251 16.0581 13.2305 16.062 13.2344 16.064C13.2393 16.0649 13.2427 16.0659 13.2446 16.0669C13.2466 16.0718 13.2485 16.0757 13.2505 16.0786C13.2524 16.0815 13.2544 16.085 13.2563 16.0889ZM14.3125 16.9561C14.3105 16.9619 14.3062 16.9653 14.2993 16.9663C14.2925 16.9673 14.2881 16.9707 14.2861 16.9766C14.2764 16.9746 14.27 16.9717 14.2671 16.9678C14.2622 16.9727 14.2583 16.9756 14.2554 16.9766C14.2524 16.9766 14.25 16.9771 14.248 16.978C14.2402 16.981 14.2344 16.9849 14.2305 16.9897C14.2275 16.9888 14.2246 16.9873 14.2217 16.9854C14.2188 16.9834 14.2153 16.9819 14.2114 16.981C14.2007 16.9819 14.1929 16.9829 14.188 16.9839C14.1831 16.9849 14.1787 16.9854 14.1748 16.9854C14.167 16.9854 14.1602 16.9849 14.1543 16.9839C14.1484 16.9819 14.1416 16.9819 14.1338 16.9839C14.1299 16.9858 14.1255 16.9863 14.1206 16.9854C14.1157 16.9844 14.1113 16.9863 14.1074 16.9912C14.1025 16.9922 14.0996 16.9917 14.0986 16.9897C14.0977 16.9878 14.0947 16.9873 14.0898 16.9883C14.085 16.9912 14.0791 16.9937 14.0723 16.9956C14.0664 16.9966 14.0601 16.998 14.0532 17C14.0474 16.998 14.043 16.9946 14.04 16.9897C14.0381 16.9839 14.0347 16.979 14.0298 16.9751C14.0308 16.9702 14.0308 16.9653 14.0298 16.9604C14.0298 16.9556 14.0308 16.9521 14.0327 16.9502C14.0298 16.9473 14.0283 16.9443 14.0283 16.9414C14.0283 16.9375 14.0278 16.9331 14.0269 16.9282C14.0229 16.9204 14.0205 16.9141 14.0195 16.9092C14.0176 16.8994 14.0151 16.8916 14.0122 16.8857C14.0093 16.8799 14.0088 16.8745 14.0107 16.8696C14.0059 16.8647 14.0029 16.8594 14.002 16.8535C14.001 16.8467 13.999 16.8384 13.9961 16.8286C13.9932 16.8237 13.9917 16.8203 13.9917 16.8184C13.9927 16.8154 13.9927 16.813 13.9917 16.811C13.9868 16.8003 13.9844 16.793 13.9844 16.7891C13.9844 16.7852 13.9839 16.7812 13.9829 16.7773C13.979 16.7686 13.9761 16.7612 13.9741 16.7554C13.9731 16.7495 13.9717 16.7441 13.9697 16.7393C13.9678 16.7363 13.9658 16.7339 13.9639 16.7319C13.9619 16.729 13.96 16.7256 13.958 16.7217C13.9561 16.7178 13.9551 16.7139 13.9551 16.71C13.9551 16.7051 13.9541 16.7007 13.9521 16.6968C13.9502 16.6929 13.9482 16.6895 13.9463 16.6865C13.9453 16.6836 13.9443 16.6807 13.9434 16.6777C13.9414 16.6719 13.9399 16.666 13.939 16.6602C13.939 16.6533 13.937 16.6475 13.9331 16.6426C13.9272 16.6406 13.9214 16.6406 13.9155 16.6426C13.9097 16.6445 13.9043 16.646 13.8994 16.647C13.8965 16.647 13.8931 16.647 13.8892 16.647C13.8862 16.646 13.8833 16.646 13.8804 16.647C13.8735 16.6479 13.8672 16.6494 13.8613 16.6514C13.8564 16.6523 13.8511 16.6519 13.8452 16.6499C13.8413 16.6499 13.8379 16.6504 13.835 16.6514C13.833 16.6523 13.8296 16.6528 13.8247 16.6528C13.8218 16.6509 13.8164 16.6504 13.8086 16.6514C13.8018 16.6514 13.7954 16.6514 13.7896 16.6514C13.7827 16.6523 13.7759 16.6533 13.769 16.6543C13.7622 16.6553 13.7568 16.6548 13.7529 16.6528C13.7422 16.6519 13.7349 16.6509 13.731 16.6499C13.7271 16.6489 13.7236 16.6484 13.7207 16.6484C13.7129 16.6475 13.7056 16.6475 13.6987 16.6484C13.6919 16.6494 13.6846 16.6489 13.6768 16.647C13.6738 16.6489 13.6704 16.6504 13.6665 16.6514C13.6626 16.6523 13.6597 16.6543 13.6577 16.6572C13.647 16.6553 13.6377 16.6553 13.6299 16.6572C13.623 16.6592 13.6143 16.6597 13.6035 16.6587C13.5957 16.6646 13.5918 16.6714 13.5918 16.6792C13.5918 16.687 13.5908 16.6948 13.5889 16.7026C13.5869 16.7104 13.584 16.7178 13.5801 16.7246C13.5762 16.7305 13.5723 16.7368 13.5684 16.7437C13.5664 16.7485 13.5645 16.7534 13.5625 16.7583C13.5605 16.7632 13.5581 16.7681 13.5552 16.7729C13.5532 16.7778 13.5518 16.7812 13.5508 16.7832C13.5498 16.7852 13.5488 16.7871 13.5479 16.7891C13.5469 16.791 13.5459 16.792 13.5449 16.792C13.5439 16.7998 13.5425 16.8052 13.5405 16.8081C13.5386 16.8101 13.5376 16.812 13.5376 16.814C13.5356 16.8188 13.5347 16.8232 13.5347 16.8271C13.5356 16.8311 13.5356 16.8354 13.5347 16.8403C13.5327 16.8472 13.5298 16.853 13.5259 16.8579C13.5229 16.8628 13.5215 16.8691 13.5215 16.877C13.5137 16.8828 13.5078 16.8911 13.5039 16.9019C13.5 16.9116 13.4941 16.9199 13.4863 16.9268C13.4854 16.9355 13.4834 16.9438 13.4805 16.9517C13.4775 16.9595 13.4741 16.9673 13.4702 16.9751C13.4673 16.9819 13.4648 16.9897 13.4629 16.9985C13.4609 17.0063 13.46 17.0156 13.46 17.0264C13.457 17.0283 13.4521 17.0308 13.4453 17.0337C13.4385 17.0376 13.4326 17.0381 13.4277 17.0352C13.4189 17.0303 13.4111 17.0269 13.4043 17.0249C13.3984 17.0229 13.3931 17.0205 13.3882 17.0176C13.3862 17.0166 13.3809 17.0156 13.3721 17.0146C13.3633 17.0146 13.3564 17.0146 13.3516 17.0146C13.3447 17.0156 13.3398 17.0156 13.3369 17.0146C13.334 17.0137 13.3311 17.0127 13.3281 17.0117C13.3242 17.0117 13.3203 17.0117 13.3164 17.0117C13.3135 17.0127 13.3096 17.0127 13.3047 17.0117C13.293 17.0098 13.2817 17.0059 13.271 17C13.2603 16.9951 13.25 16.9912 13.2402 16.9883C13.2402 16.9834 13.2407 16.9795 13.2417 16.9766C13.2427 16.9727 13.2441 16.9683 13.2461 16.9634C13.248 16.9585 13.2505 16.9556 13.2534 16.9546C13.2563 16.9526 13.2573 16.9497 13.2563 16.9458C13.2593 16.938 13.2627 16.9302 13.2666 16.9224C13.2695 16.9146 13.2729 16.9067 13.2769 16.8989C13.2808 16.8892 13.2837 16.8833 13.2856 16.8813C13.2876 16.8784 13.2896 16.876 13.2915 16.874C13.2954 16.8643 13.2979 16.8579 13.2988 16.855C13.3008 16.8511 13.3022 16.8481 13.3032 16.8462C13.3052 16.8413 13.3066 16.8374 13.3076 16.8345C13.3086 16.8315 13.311 16.8276 13.3149 16.8228L13.3281 16.8052C13.3311 16.7954 13.334 16.7886 13.3369 16.7847C13.3398 16.7798 13.3423 16.7759 13.3442 16.7729C13.3491 16.7671 13.353 16.7612 13.356 16.7554C13.3589 16.7485 13.3623 16.7412 13.3662 16.7334C13.3701 16.7285 13.3735 16.7241 13.3765 16.7202C13.3794 16.7153 13.3818 16.71 13.3838 16.7041C13.3857 16.6973 13.3872 16.6934 13.3882 16.6924C13.3892 16.6904 13.3901 16.6885 13.3911 16.6865C13.3921 16.6807 13.3926 16.6772 13.3926 16.6763C13.3936 16.6743 13.3945 16.6724 13.3955 16.6704C13.4004 16.6626 13.4043 16.6538 13.4072 16.644C13.4111 16.6343 13.4155 16.6255 13.4204 16.6177C13.4224 16.6128 13.4253 16.6084 13.4292 16.6045C13.4341 16.6006 13.4365 16.5952 13.4365 16.5884C13.4414 16.5854 13.4448 16.5815 13.4468 16.5767C13.4487 16.5708 13.4512 16.5654 13.4541 16.5605C13.4561 16.5557 13.4585 16.5513 13.4614 16.5474C13.4653 16.5435 13.4688 16.5391 13.4717 16.5342C13.4736 16.5293 13.4756 16.5244 13.4775 16.5195C13.4805 16.5137 13.4834 16.5083 13.4863 16.5034C13.4883 16.4985 13.4907 16.4941 13.4937 16.4902C13.4966 16.4854 13.501 16.4819 13.5068 16.48C13.5049 16.4751 13.5049 16.4702 13.5068 16.4653C13.5098 16.4595 13.5122 16.4541 13.5142 16.4492C13.5161 16.4453 13.5186 16.4419 13.5215 16.439C13.5244 16.4351 13.5269 16.4312 13.5288 16.4272L13.5361 16.4126C13.54 16.4028 13.543 16.397 13.5449 16.395C13.5479 16.3921 13.5498 16.3896 13.5508 16.3877C13.5527 16.3848 13.5532 16.3818 13.5522 16.3789C13.5522 16.376 13.5527 16.3735 13.5537 16.3716C13.5596 16.3677 13.564 16.3628 13.5669 16.3569C13.5698 16.3511 13.5732 16.3447 13.5771 16.3379C13.5801 16.333 13.583 16.3271 13.5859 16.3203C13.5889 16.3125 13.5928 16.3057 13.5977 16.2998C13.5967 16.2949 13.5972 16.291 13.5991 16.2881C13.6011 16.2842 13.603 16.2798 13.605 16.2749C13.6069 16.272 13.6084 16.269 13.6094 16.2661C13.6113 16.2622 13.6133 16.2588 13.6152 16.2559C13.6221 16.2471 13.626 16.2393 13.627 16.2324C13.6289 16.2256 13.6309 16.2192 13.6328 16.2134C13.6348 16.2085 13.6367 16.2046 13.6387 16.2017C13.6416 16.1987 13.644 16.1953 13.646 16.1914C13.6479 16.1875 13.6494 16.1836 13.6504 16.1797C13.6514 16.1758 13.6538 16.1729 13.6577 16.1709C13.6587 16.1611 13.6606 16.1528 13.6636 16.146C13.6675 16.1392 13.6709 16.1318 13.6738 16.124C13.6768 16.1172 13.6821 16.1104 13.6899 16.1035C13.6909 16.0977 13.6914 16.0918 13.6914 16.0859C13.6914 16.0801 13.6924 16.0747 13.6943 16.0698C13.6963 16.0649 13.6987 16.061 13.7017 16.0581C13.7046 16.0552 13.707 16.0518 13.709 16.0479C13.7129 16.0352 13.7158 16.0249 13.7178 16.0171C13.7207 16.0083 13.7236 16 13.7266 15.9922C13.7295 15.9854 13.7324 15.9775 13.7354 15.9688C13.7383 15.959 13.7412 15.9502 13.7441 15.9424C13.7471 15.9365 13.7495 15.9312 13.7515 15.9263C13.7544 15.9204 13.7568 15.9146 13.7588 15.9087C13.7686 15.9038 13.7759 15.897 13.7808 15.8882C13.7856 15.8794 13.7896 15.8696 13.7925 15.8589C13.7983 15.8569 13.8022 15.8564 13.8042 15.8574C13.8071 15.8574 13.8101 15.8574 13.813 15.8574C13.8228 15.8594 13.8286 15.8628 13.8306 15.8677C13.8325 15.8726 13.8354 15.877 13.8394 15.8809C13.8442 15.8867 13.8477 15.8921 13.8496 15.897C13.8525 15.9009 13.855 15.9048 13.8569 15.9087C13.8608 15.9126 13.8647 15.918 13.8687 15.9248C13.8735 15.9316 13.877 15.9385 13.8789 15.9453C13.8809 15.9492 13.8828 15.9536 13.8848 15.9585C13.8867 15.9634 13.8887 15.9683 13.8906 15.9731C13.8936 15.978 13.896 15.9834 13.8979 15.9893C13.9009 15.9951 13.9038 16.0015 13.9067 16.0083C13.9097 16.0161 13.9126 16.0254 13.9155 16.0361C13.9194 16.0459 13.9229 16.0557 13.9258 16.0654C13.9277 16.0703 13.9287 16.0747 13.9287 16.0786C13.9297 16.0825 13.9312 16.0864 13.9331 16.0903C13.9351 16.0952 13.9365 16.0991 13.9375 16.1021C13.9395 16.105 13.9414 16.1079 13.9434 16.1108C13.9473 16.1196 13.9512 16.1294 13.9551 16.1401C13.96 16.1499 13.9648 16.1602 13.9697 16.1709C13.9717 16.1738 13.9731 16.1768 13.9741 16.1797C13.9761 16.1826 13.978 16.186 13.98 16.1899C13.9819 16.1919 13.9834 16.1943 13.9844 16.1973C13.9863 16.2002 13.9883 16.2031 13.9902 16.2061C13.9922 16.209 13.9937 16.2124 13.9946 16.2163C13.9966 16.2202 13.999 16.2236 14.002 16.2266C14.0049 16.2324 14.0073 16.2378 14.0093 16.2427C14.0122 16.2466 14.0146 16.2524 14.0166 16.2603C14.0186 16.2661 14.0205 16.2734 14.0225 16.2822C14.0254 16.291 14.0273 16.2993 14.0283 16.3071C14.0332 16.3159 14.0376 16.3262 14.0415 16.3379C14.0464 16.3486 14.0508 16.3594 14.0547 16.3701C14.0576 16.373 14.0601 16.376 14.062 16.3789C14.0649 16.3809 14.0679 16.3838 14.0708 16.3877C14.0728 16.3926 14.0747 16.396 14.0767 16.3979C14.0786 16.3999 14.0801 16.4019 14.0811 16.4038C14.085 16.4126 14.0879 16.4214 14.0898 16.4302C14.0928 16.438 14.0952 16.4458 14.0972 16.4536C14.0991 16.4585 14.1016 16.4634 14.1045 16.4683C14.1074 16.4731 14.1089 16.479 14.1089 16.4858C14.1147 16.4937 14.1191 16.501 14.1221 16.5078C14.125 16.5137 14.1274 16.519 14.1294 16.5239C14.1343 16.5317 14.1377 16.5376 14.1396 16.5415C14.1416 16.5444 14.1436 16.5479 14.1455 16.5518C14.1523 16.5605 14.1577 16.5698 14.1616 16.5796C14.1636 16.5835 14.1646 16.5879 14.1646 16.5928C14.1655 16.5967 14.167 16.6001 14.1689 16.603C14.1709 16.6099 14.1733 16.6167 14.1763 16.6235C14.1792 16.6294 14.1816 16.6362 14.1836 16.644C14.1885 16.6479 14.1919 16.6523 14.1938 16.6572C14.1968 16.6621 14.1992 16.667 14.2012 16.6719C14.2031 16.6748 14.2051 16.6792 14.207 16.6851C14.209 16.6899 14.2109 16.6948 14.2129 16.6997C14.2158 16.7075 14.2197 16.7153 14.2246 16.7231C14.2295 16.731 14.2329 16.7388 14.2349 16.7466C14.2368 16.7515 14.2388 16.7563 14.2407 16.7612C14.2437 16.7661 14.2461 16.771 14.248 16.7759C14.25 16.7808 14.2505 16.7852 14.2495 16.7891C14.2495 16.792 14.2505 16.7949 14.2524 16.7979C14.2544 16.8027 14.2573 16.8091 14.2612 16.8169C14.2671 16.8364 14.2739 16.8569 14.2817 16.8784C14.2866 16.8911 14.292 16.9038 14.2979 16.9165C14.3047 16.9292 14.3096 16.9424 14.3125 16.9561ZM13.9185 16.5151C13.9204 16.5112 13.9209 16.5073 13.9199 16.5034C13.9189 16.4995 13.918 16.4951 13.917 16.4902C13.916 16.4863 13.915 16.4819 13.9141 16.4771C13.9141 16.4722 13.9131 16.4678 13.9111 16.4639C13.9092 16.46 13.9067 16.457 13.9038 16.4551C13.9019 16.4521 13.9004 16.4492 13.8994 16.4463C13.8975 16.4326 13.8955 16.4209 13.8936 16.4111C13.8926 16.4004 13.8911 16.3896 13.8892 16.3789C13.8843 16.375 13.8804 16.3701 13.8774 16.3643C13.8716 16.3564 13.8677 16.3501 13.8657 16.3452C13.8647 16.3394 13.8638 16.334 13.8628 16.3291C13.8608 16.3213 13.8589 16.3149 13.8569 16.3101C13.855 16.3042 13.853 16.2988 13.8511 16.2939C13.8491 16.2861 13.8477 16.2793 13.8467 16.2734C13.8457 16.2676 13.8442 16.2617 13.8423 16.2559C13.8413 16.2529 13.8403 16.2505 13.8394 16.2485C13.8384 16.2456 13.8374 16.2427 13.8364 16.2397C13.8345 16.2339 13.8325 16.2275 13.8306 16.2207C13.8286 16.2139 13.8252 16.2095 13.8203 16.2075C13.8105 16.2114 13.8052 16.2173 13.8042 16.2251C13.8013 16.2358 13.7979 16.2432 13.7939 16.2471C13.79 16.251 13.7876 16.2539 13.7866 16.2559C13.7847 16.2666 13.7827 16.2744 13.7808 16.2793C13.7798 16.2832 13.7783 16.2876 13.7764 16.2925C13.7744 16.2974 13.7725 16.3018 13.7705 16.3057C13.7695 16.3096 13.7681 16.3135 13.7661 16.3174C13.7642 16.3203 13.7622 16.3232 13.7603 16.3262C13.7593 16.3291 13.7583 16.3315 13.7573 16.3335C13.7485 16.3501 13.7407 16.3647 13.7339 16.3774C13.7271 16.3892 13.7212 16.4014 13.7163 16.4141C13.7144 16.4189 13.7129 16.4238 13.7119 16.4287C13.7109 16.4326 13.7095 16.437 13.7075 16.4419C13.7056 16.4458 13.7031 16.4492 13.7002 16.4521C13.6973 16.4551 13.6948 16.459 13.6929 16.4639C13.6919 16.4668 13.6914 16.4697 13.6914 16.4727C13.6924 16.4746 13.6924 16.4775 13.6914 16.4814C13.6846 16.4922 13.6802 16.501 13.6782 16.5078C13.6772 16.5137 13.6758 16.519 13.6738 16.5239C13.6846 16.5288 13.6953 16.5312 13.7061 16.5312C13.7178 16.5303 13.729 16.5298 13.7397 16.5298C13.7583 16.5288 13.7773 16.5278 13.7969 16.5269C13.8164 16.5249 13.833 16.5225 13.8467 16.5195C13.8584 16.5176 13.8706 16.5176 13.8833 16.5195C13.896 16.5215 13.9077 16.52 13.9185 16.5151ZM15.1533 16.6895C15.1533 16.6953 15.1523 16.7021 15.1504 16.71C15.1494 16.7168 15.1479 16.7241 15.146 16.7319C15.144 16.7397 15.1421 16.7456 15.1401 16.7495C15.1392 16.7524 15.1387 16.7559 15.1387 16.7598C15.1396 16.7637 15.1396 16.7666 15.1387 16.7686C15.1367 16.7734 15.1343 16.7783 15.1313 16.7832C15.1294 16.7881 15.1274 16.793 15.1255 16.7979C15.1235 16.8027 15.1216 16.8081 15.1196 16.814C15.1187 16.8188 15.1172 16.8232 15.1152 16.8271C15.1133 16.8301 15.1104 16.8325 15.1064 16.8345C15.1035 16.8364 15.1025 16.8398 15.1035 16.8447C15.0938 16.8486 15.0859 16.853 15.0801 16.8579C15.0752 16.8618 15.0713 16.8657 15.0684 16.8696C15.0654 16.8735 15.0615 16.8774 15.0566 16.8813C15.0547 16.8833 15.0518 16.8853 15.0479 16.8872C15.0439 16.8892 15.04 16.8911 15.0361 16.8931C15.0283 16.8979 15.0225 16.9019 15.0186 16.9048C15.0156 16.9067 15.0132 16.9087 15.0112 16.9106C15.0093 16.9116 15.0063 16.9121 15.0024 16.9121C14.9995 16.9121 14.9971 16.9131 14.9951 16.915C14.9883 16.9199 14.981 16.9238 14.9731 16.9268C14.9663 16.9287 14.9604 16.9321 14.9556 16.937C14.9517 16.938 14.9482 16.938 14.9453 16.937C14.9424 16.936 14.9395 16.936 14.9365 16.937C14.9268 16.9399 14.9204 16.9424 14.9175 16.9443C14.9155 16.9453 14.9131 16.9463 14.9102 16.9473C14.9043 16.9492 14.8994 16.9507 14.8955 16.9517C14.8926 16.9517 14.8892 16.9526 14.8853 16.9546C14.8735 16.9585 14.8638 16.9604 14.856 16.9604C14.8481 16.9604 14.8408 16.9614 14.834 16.9634C14.8291 16.9653 14.8252 16.9663 14.8223 16.9663C14.8203 16.9663 14.8184 16.9668 14.8164 16.9678C14.8145 16.9678 14.8115 16.9688 14.8076 16.9707C14.8047 16.9717 14.8022 16.9727 14.8003 16.9736C14.7925 16.9717 14.7856 16.9712 14.7798 16.9722C14.7749 16.9722 14.77 16.9722 14.7651 16.9722C14.7583 16.9722 14.7505 16.9727 14.7417 16.9736C14.7329 16.9746 14.7246 16.9756 14.7168 16.9766C14.7109 16.9766 14.7046 16.9761 14.6978 16.9751C14.6919 16.9741 14.6855 16.9741 14.6787 16.9751C14.6719 16.9761 14.6641 16.9775 14.6553 16.9795C14.6475 16.9814 14.6401 16.979 14.6333 16.9722C14.6274 16.9761 14.6211 16.9771 14.6143 16.9751C14.6084 16.9731 14.6021 16.9727 14.5952 16.9736C14.5884 16.9746 14.582 16.9771 14.5762 16.981C14.5713 16.9849 14.5649 16.9858 14.5571 16.9839C14.5503 16.9897 14.5449 16.9932 14.541 16.9941C14.5371 16.9941 14.5342 16.9946 14.5322 16.9956C14.5244 16.9985 14.5161 17.002 14.5073 17.0059C14.4995 17.0098 14.4902 17.0083 14.4795 17.0015C14.4727 17.0044 14.4639 17.0049 14.4531 17.0029C14.4473 16.9971 14.4409 16.9883 14.4341 16.9766C14.4341 16.9688 14.4355 16.9619 14.4385 16.9561C14.4414 16.9492 14.4429 16.9424 14.4429 16.9355C14.4429 16.9297 14.4414 16.9243 14.4385 16.9194C14.4365 16.9146 14.4351 16.9092 14.4341 16.9033C14.4331 16.8984 14.4326 16.894 14.4326 16.8901C14.4336 16.8853 14.4341 16.8804 14.4341 16.8755C14.4341 16.8706 14.4336 16.8662 14.4326 16.8623C14.4316 16.8584 14.4307 16.854 14.4297 16.8491C14.4287 16.8413 14.4282 16.8345 14.4282 16.8286C14.4282 16.8218 14.4292 16.8145 14.4312 16.8066C14.4321 16.8027 14.4321 16.7979 14.4312 16.792C14.4312 16.7852 14.4331 16.7778 14.437 16.77C14.436 16.7671 14.4351 16.7642 14.4341 16.7612C14.4331 16.7573 14.4326 16.7534 14.4326 16.7495C14.4326 16.7446 14.4331 16.7397 14.4341 16.7349C14.436 16.73 14.437 16.7251 14.437 16.7202C14.438 16.7153 14.438 16.71 14.437 16.7041C14.436 16.6982 14.4355 16.6924 14.4355 16.6865C14.4365 16.6816 14.437 16.6772 14.437 16.6733C14.438 16.6685 14.4385 16.6641 14.4385 16.6602C14.4395 16.6572 14.4399 16.6538 14.4399 16.6499C14.4399 16.646 14.4414 16.6436 14.4443 16.6426C14.4424 16.6387 14.4409 16.6357 14.4399 16.6338C14.4399 16.6309 14.4399 16.6274 14.4399 16.6235V16.6045C14.4399 16.6006 14.4404 16.5972 14.4414 16.5942C14.4434 16.5913 14.4448 16.5879 14.4458 16.584C14.4458 16.582 14.4453 16.5796 14.4443 16.5767C14.4434 16.5737 14.4429 16.5708 14.4429 16.5679C14.4448 16.5601 14.4453 16.5547 14.4443 16.5518C14.4434 16.5479 14.4434 16.5444 14.4443 16.5415V16.5049C14.4443 16.501 14.4448 16.4971 14.4458 16.4932C14.4468 16.4893 14.4473 16.4854 14.4473 16.4814C14.4473 16.4775 14.4463 16.4736 14.4443 16.4697C14.4434 16.4658 14.4429 16.4619 14.4429 16.458C14.4429 16.4434 14.4434 16.4282 14.4443 16.4126C14.4463 16.397 14.4448 16.3818 14.4399 16.3672C14.4448 16.3633 14.4463 16.3589 14.4443 16.354C14.4434 16.3491 14.4429 16.3442 14.4429 16.3394C14.4438 16.3374 14.4443 16.3345 14.4443 16.3306C14.4443 16.3257 14.4443 16.3208 14.4443 16.3159C14.4424 16.3042 14.4414 16.291 14.4414 16.2764C14.4424 16.2617 14.4438 16.2461 14.4458 16.2295C14.4478 16.2197 14.4478 16.2134 14.4458 16.2104C14.4448 16.2075 14.4443 16.2046 14.4443 16.2017C14.4434 16.1987 14.4429 16.1958 14.4429 16.1929C14.4438 16.1899 14.4443 16.1875 14.4443 16.1855C14.4434 16.1777 14.4419 16.1694 14.4399 16.1606C14.439 16.1519 14.4409 16.1421 14.4458 16.1313C14.4429 16.1294 14.4414 16.1265 14.4414 16.1226C14.4424 16.1187 14.4424 16.1147 14.4414 16.1108C14.4404 16.1069 14.439 16.1035 14.437 16.1006C14.436 16.0977 14.4351 16.0942 14.4341 16.0903C14.436 16.0776 14.436 16.0669 14.4341 16.0581C14.4321 16.0493 14.4336 16.0425 14.4385 16.0376C14.4365 16.0327 14.4346 16.0293 14.4326 16.0273C14.4307 16.0254 14.4297 16.022 14.4297 16.0171C14.4307 16.0122 14.4307 16.0063 14.4297 15.9995C14.4287 15.9927 14.4297 15.9878 14.4326 15.9849C14.4307 15.981 14.4282 15.9775 14.4253 15.9746C14.4224 15.9717 14.4219 15.9663 14.4238 15.9585C14.4219 15.9546 14.418 15.9492 14.4121 15.9424C14.4072 15.9355 14.4082 15.9292 14.415 15.9233C14.4189 15.9185 14.4248 15.915 14.4326 15.9131C14.4414 15.9111 14.4502 15.9102 14.459 15.9102C14.4678 15.9092 14.4761 15.9087 14.4839 15.9087C14.4927 15.9087 14.4995 15.9082 14.5044 15.9072C14.5122 15.9043 14.5181 15.9019 14.522 15.8999C14.5269 15.897 14.5347 15.895 14.5454 15.894C14.5493 15.894 14.5522 15.894 14.5542 15.894C14.5571 15.8931 14.5605 15.8926 14.5645 15.8926C14.5674 15.8926 14.5708 15.8931 14.5747 15.894C14.5786 15.895 14.5815 15.8955 14.5835 15.8955C14.5864 15.8955 14.5894 15.895 14.5923 15.894C14.5952 15.8921 14.5977 15.8911 14.5996 15.8911C14.6045 15.8911 14.6108 15.8921 14.6187 15.894H14.6582C14.666 15.894 14.6709 15.8936 14.6729 15.8926C14.6748 15.8916 14.6758 15.8916 14.6758 15.8926C14.6777 15.8955 14.6812 15.896 14.686 15.894C14.6909 15.8921 14.6958 15.8911 14.7007 15.8911C14.7124 15.8901 14.7251 15.8896 14.7388 15.8896C14.7534 15.8896 14.7671 15.8906 14.7798 15.8926C14.7935 15.8945 14.8032 15.8965 14.8091 15.8984C14.8159 15.8994 14.8228 15.9028 14.8296 15.9087C14.8491 15.9097 14.8672 15.9141 14.8838 15.9219C14.9004 15.9287 14.9155 15.936 14.9292 15.9438C14.9351 15.9478 14.939 15.9507 14.9409 15.9526C14.9438 15.9546 14.9478 15.958 14.9526 15.9629C14.9546 15.9648 14.9565 15.9673 14.9585 15.9702C14.9614 15.9731 14.9639 15.9756 14.9658 15.9775C14.9678 15.9795 14.9688 15.9824 14.9688 15.9863C14.9697 15.9893 14.9712 15.9917 14.9731 15.9937C14.979 15.9995 14.9819 16.0034 14.9819 16.0054C14.9829 16.0063 14.9834 16.0073 14.9834 16.0083C14.9893 16.0161 14.9927 16.022 14.9937 16.0259C14.9956 16.0298 14.9976 16.0342 14.9995 16.0391C15.0044 16.0439 15.0083 16.0493 15.0112 16.0552C15.0142 16.061 15.0181 16.0664 15.0229 16.0713C15.022 16.0771 15.022 16.0825 15.0229 16.0874C15.0239 16.0923 15.0249 16.0972 15.0259 16.1021C15.0278 16.1069 15.0293 16.1113 15.0303 16.1152C15.0322 16.1182 15.0342 16.1216 15.0361 16.1255C15.0361 16.1284 15.0361 16.1318 15.0361 16.1357C15.0361 16.1387 15.0366 16.1416 15.0376 16.1445C15.0405 16.1611 15.0396 16.1768 15.0347 16.1914C15.0327 16.1943 15.0308 16.1973 15.0288 16.2002C15.0278 16.2021 15.0264 16.2046 15.0244 16.2075C15.0225 16.2114 15.0215 16.2153 15.0215 16.2192C15.0215 16.2231 15.0205 16.2266 15.0186 16.2295C15.0166 16.2344 15.0137 16.2397 15.0098 16.2456C15.0059 16.2505 15.0024 16.2554 14.9995 16.2603C14.9976 16.2632 14.9956 16.2661 14.9937 16.269C14.9927 16.271 14.9912 16.2734 14.9893 16.2764C14.9873 16.2803 14.9844 16.2847 14.9805 16.2896C14.9775 16.2935 14.9746 16.2974 14.9717 16.3013C14.9688 16.3052 14.9658 16.3091 14.9629 16.313C14.96 16.3159 14.9561 16.3188 14.9512 16.3218C14.9434 16.3276 14.9385 16.3325 14.9365 16.3364C14.9346 16.3394 14.9331 16.3413 14.9321 16.3423C14.9302 16.3511 14.9312 16.3564 14.9351 16.3584C14.939 16.3594 14.9419 16.3604 14.9438 16.3613C14.9478 16.3623 14.9512 16.3628 14.9541 16.3628C14.958 16.3618 14.9614 16.3623 14.9644 16.3643C14.9712 16.3662 14.9771 16.3696 14.9819 16.3745C14.9868 16.3794 14.9917 16.3838 14.9966 16.3877C15.0083 16.3984 15.0176 16.4067 15.0244 16.4126C15.0312 16.4185 15.0386 16.4238 15.0464 16.4287C15.0522 16.4385 15.0586 16.4468 15.0654 16.4536C15.0732 16.4604 15.0791 16.4692 15.083 16.48C15.0889 16.4858 15.0928 16.4912 15.0947 16.4961C15.0967 16.5 15.0996 16.5034 15.1035 16.5063C15.1045 16.5083 15.1055 16.5107 15.1064 16.5137C15.1084 16.5166 15.1104 16.519 15.1123 16.521C15.1172 16.5269 15.1211 16.5347 15.124 16.5444C15.1279 16.5532 15.1318 16.562 15.1357 16.5708C15.1377 16.5757 15.1387 16.5806 15.1387 16.5854C15.1387 16.5903 15.1396 16.5972 15.1416 16.606C15.1436 16.6157 15.1465 16.6284 15.1504 16.644C15.1543 16.6597 15.1553 16.6748 15.1533 16.6895ZM14.8428 16.1797C14.8389 16.1738 14.8374 16.166 14.8384 16.1562C14.8394 16.1465 14.8389 16.1372 14.8369 16.1284C14.834 16.1235 14.8325 16.1201 14.8325 16.1182C14.8335 16.1162 14.8335 16.1143 14.8325 16.1123C14.8286 16.1064 14.8262 16.103 14.8252 16.1021C14.8252 16.1001 14.8247 16.0977 14.8237 16.0947C14.8159 16.0908 14.8101 16.0859 14.8062 16.0801C14.8022 16.0732 14.7974 16.0674 14.7915 16.0625C14.7847 16.0605 14.7808 16.0586 14.7798 16.0566C14.7788 16.0547 14.7773 16.0532 14.7754 16.0522C14.7646 16.0503 14.7549 16.0493 14.7461 16.0493C14.7383 16.0483 14.7305 16.0474 14.7227 16.0464C14.7148 16.0454 14.707 16.0444 14.6992 16.0435C14.6914 16.0425 14.6836 16.0425 14.6758 16.0435C14.666 16.0454 14.6592 16.0464 14.6553 16.0464C14.6523 16.0454 14.6499 16.0449 14.6479 16.0449C14.6353 16.0498 14.625 16.0522 14.6172 16.0522C14.6094 16.0522 14.6016 16.0532 14.5938 16.0552C14.5918 16.062 14.5913 16.0688 14.5923 16.0757C14.5942 16.0825 14.5952 16.0898 14.5952 16.0977C14.5962 16.1016 14.5962 16.105 14.5952 16.1079C14.5952 16.1108 14.5952 16.1143 14.5952 16.1182C14.5952 16.123 14.5957 16.1279 14.5967 16.1328C14.5986 16.1377 14.5996 16.1426 14.5996 16.1475C14.5996 16.1523 14.5991 16.1572 14.5981 16.1621C14.5972 16.167 14.5967 16.1719 14.5967 16.1768C14.5957 16.1826 14.5957 16.189 14.5967 16.1958C14.5977 16.2026 14.5981 16.2075 14.5981 16.2104C14.5972 16.2212 14.5972 16.229 14.5981 16.2339C14.6001 16.2378 14.6021 16.2422 14.604 16.2471C14.5991 16.2598 14.5986 16.2729 14.6025 16.2866C14.6064 16.2993 14.6104 16.311 14.6143 16.3218C14.6191 16.3208 14.624 16.3193 14.6289 16.3174C14.6348 16.3154 14.6401 16.314 14.645 16.313C14.6528 16.311 14.6602 16.3105 14.667 16.3115C14.6748 16.3125 14.6826 16.312 14.6904 16.3101C14.6963 16.3081 14.7021 16.3057 14.708 16.3027C14.7148 16.2998 14.7222 16.2993 14.73 16.3013C14.7417 16.2925 14.7563 16.2881 14.7739 16.2881C14.7759 16.2832 14.7798 16.2798 14.7856 16.2778C14.7915 16.2759 14.7969 16.2739 14.8018 16.272C14.8037 16.269 14.8057 16.2666 14.8076 16.2646C14.8105 16.2617 14.813 16.2588 14.8149 16.2559C14.8188 16.25 14.8218 16.2466 14.8237 16.2456C14.8267 16.2437 14.8286 16.2417 14.8296 16.2397C14.8315 16.2368 14.832 16.2334 14.8311 16.2295C14.8311 16.2246 14.8335 16.2207 14.8384 16.2178C14.8364 16.2109 14.8359 16.2046 14.8369 16.1987C14.8389 16.1919 14.8408 16.1855 14.8428 16.1797ZM14.9453 16.6323C14.9414 16.6274 14.938 16.6216 14.9351 16.6147C14.9331 16.6079 14.9312 16.6006 14.9292 16.5928C14.9272 16.5889 14.9248 16.5864 14.9219 16.5854C14.9199 16.5845 14.918 16.5825 14.916 16.5796C14.9121 16.5718 14.9082 16.5664 14.9043 16.5635C14.9004 16.5605 14.8975 16.5581 14.8955 16.5562C14.8906 16.5513 14.8867 16.5479 14.8838 16.5459C14.8809 16.5439 14.877 16.5415 14.8721 16.5386C14.8643 16.5337 14.8569 16.5298 14.8501 16.5269C14.8433 16.5229 14.8369 16.5186 14.8311 16.5137C14.8145 16.5098 14.7979 16.5068 14.7812 16.5049C14.7656 16.5029 14.7505 16.501 14.7358 16.499C14.7163 16.498 14.6992 16.5 14.6846 16.5049C14.6699 16.5088 14.6519 16.5103 14.6304 16.5093C14.6284 16.5132 14.6255 16.5161 14.6216 16.5181C14.6187 16.519 14.6162 16.5215 14.6143 16.5254C14.6152 16.5557 14.6138 16.5859 14.6099 16.6162C14.606 16.6465 14.6055 16.6748 14.6084 16.7012C14.6064 16.7158 14.606 16.729 14.6069 16.7407C14.6089 16.7515 14.6094 16.7593 14.6084 16.7642C14.6074 16.772 14.6079 16.7788 14.6099 16.7847C14.6118 16.7896 14.6128 16.7944 14.6128 16.7993C14.6128 16.8013 14.6123 16.8037 14.6113 16.8066C14.6104 16.8096 14.6099 16.8125 14.6099 16.8154C14.6099 16.8193 14.6094 16.8228 14.6084 16.8257C14.6084 16.8276 14.6094 16.8306 14.6113 16.8345C14.6221 16.8345 14.6323 16.833 14.6421 16.8301C14.6528 16.8262 14.6641 16.8232 14.6758 16.8213C14.6836 16.8193 14.6914 16.8179 14.6992 16.8169C14.707 16.8159 14.7148 16.8149 14.7227 16.814C14.7275 16.813 14.731 16.812 14.7329 16.811C14.7358 16.8101 14.7383 16.8096 14.7402 16.8096C14.7432 16.8086 14.7461 16.8081 14.749 16.8081C14.752 16.8081 14.7549 16.8076 14.7578 16.8066C14.7773 16.8027 14.7954 16.7988 14.812 16.7949C14.8296 16.79 14.8467 16.7832 14.8633 16.7744C14.8672 16.7734 14.8706 16.7729 14.8735 16.7729C14.8774 16.772 14.8818 16.771 14.8867 16.77C14.8916 16.7651 14.8965 16.7598 14.9014 16.7539C14.9072 16.7471 14.9141 16.7417 14.9219 16.7378C14.9238 16.7349 14.9248 16.7314 14.9248 16.7275C14.9248 16.7236 14.9272 16.7212 14.9321 16.7202C14.9331 16.7153 14.9341 16.7114 14.9351 16.7085C14.937 16.7056 14.939 16.7026 14.9409 16.6997C14.9438 16.686 14.9443 16.6733 14.9424 16.6616C14.9414 16.6499 14.9424 16.6401 14.9453 16.6323ZM15.5679 17.0015C15.5659 17.0093 15.562 17.0142 15.5562 17.0161C15.5513 17.019 15.5464 17.0234 15.5415 17.0293C15.5386 17.0293 15.5352 17.0283 15.5312 17.0264C15.5283 17.0254 15.5249 17.0249 15.521 17.0249C15.5181 17.0239 15.5146 17.0239 15.5107 17.0249C15.5068 17.0259 15.5024 17.0264 15.4976 17.0264C15.4946 17.0264 15.4917 17.0259 15.4888 17.0249C15.4858 17.0239 15.4829 17.0234 15.48 17.0234C15.4722 17.0234 15.4644 17.0234 15.4565 17.0234C15.4487 17.0244 15.4399 17.0249 15.4302 17.0249C15.4253 17.0249 15.4204 17.0249 15.4155 17.0249C15.4116 17.0259 15.4072 17.0249 15.4023 17.022C15.3945 17.0239 15.3862 17.0259 15.3774 17.0278C15.3696 17.0308 15.3608 17.0322 15.3511 17.0322C15.3462 17.0283 15.3428 17.0234 15.3408 17.0176C15.3398 17.0117 15.3369 17.0073 15.332 17.0044C15.3311 16.9956 15.3306 16.9858 15.3306 16.9751C15.3315 16.9644 15.3311 16.9536 15.3291 16.9429C15.3291 16.9399 15.3286 16.937 15.3276 16.9341C15.3276 16.9302 15.3276 16.9268 15.3276 16.9238C15.3267 16.9199 15.3257 16.9165 15.3247 16.9136C15.3237 16.9097 15.3232 16.9058 15.3232 16.9019C15.3232 16.8989 15.3237 16.896 15.3247 16.8931C15.3257 16.8892 15.3262 16.8857 15.3262 16.8828C15.3262 16.8779 15.3252 16.873 15.3232 16.8682C15.3223 16.8623 15.3218 16.8569 15.3218 16.8521C15.3218 16.8452 15.3223 16.8394 15.3232 16.8345C15.3242 16.8296 15.3247 16.8247 15.3247 16.8198C15.3247 16.8091 15.3242 16.7983 15.3232 16.7876C15.3223 16.7759 15.3218 16.7646 15.3218 16.7539C15.3218 16.749 15.3223 16.7441 15.3232 16.7393C15.3242 16.7334 15.3247 16.728 15.3247 16.7231C15.3247 16.7192 15.3242 16.7163 15.3232 16.7144C15.3223 16.7114 15.3213 16.7085 15.3203 16.7056C15.3184 16.6948 15.3179 16.688 15.3188 16.6851C15.3208 16.6821 15.3223 16.6787 15.3232 16.6748C15.3232 16.6729 15.3228 16.6694 15.3218 16.6646C15.3208 16.6587 15.3208 16.6528 15.3218 16.647C15.3218 16.6372 15.3218 16.6245 15.3218 16.6089C15.3228 16.5923 15.3232 16.5776 15.3232 16.5649C15.3232 16.5581 15.3237 16.5518 15.3247 16.5459C15.3267 16.54 15.3247 16.5342 15.3188 16.5283C15.3228 16.5088 15.3252 16.4937 15.3262 16.4829C15.3271 16.4722 15.3262 16.457 15.3232 16.4375C15.3271 16.4346 15.3286 16.4312 15.3276 16.4272C15.3276 16.4233 15.3281 16.4194 15.3291 16.4155C15.3301 16.4009 15.3301 16.3857 15.3291 16.3701C15.3291 16.3613 15.3296 16.353 15.3306 16.3452C15.3315 16.3374 15.3315 16.3296 15.3306 16.3218C15.3306 16.3159 15.3301 16.312 15.3291 16.3101C15.3281 16.3081 15.3281 16.3062 15.3291 16.3042C15.3271 16.2847 15.3267 16.2686 15.3276 16.2559C15.3296 16.2432 15.3306 16.2314 15.3306 16.2207C15.3306 16.2158 15.3301 16.2114 15.3291 16.2075C15.3281 16.2036 15.3281 16.1997 15.3291 16.1958C15.3291 16.189 15.3291 16.1831 15.3291 16.1782C15.3301 16.1733 15.3301 16.167 15.3291 16.1592C15.3291 16.1475 15.3291 16.1348 15.3291 16.1211C15.3291 16.1074 15.3257 16.0972 15.3188 16.0903C15.3228 16.0854 15.3237 16.0796 15.3218 16.0728C15.3198 16.0659 15.3193 16.0601 15.3203 16.0552C15.3203 16.0522 15.3203 16.0469 15.3203 16.0391C15.3213 16.0312 15.3223 16.0244 15.3232 16.0186C15.3232 16.0156 15.3237 16.0127 15.3247 16.0098C15.3257 16.0068 15.3262 16.0044 15.3262 16.0024C15.3262 15.9976 15.3247 15.9922 15.3218 15.9863C15.3188 15.9795 15.3198 15.9722 15.3247 15.9644C15.3218 15.9585 15.3184 15.9536 15.3145 15.9497C15.3115 15.9458 15.3105 15.9414 15.3115 15.9365C15.3125 15.9277 15.3164 15.9214 15.3232 15.9175C15.3311 15.9136 15.3398 15.9106 15.3496 15.9087C15.3555 15.9087 15.3589 15.9077 15.3599 15.9058C15.3618 15.9038 15.3638 15.9028 15.3657 15.9028C15.3696 15.9028 15.373 15.9038 15.376 15.9058C15.3799 15.9067 15.3833 15.9077 15.3862 15.9087C15.3921 15.9097 15.3984 15.9102 15.4053 15.9102C15.4121 15.9092 15.4165 15.9106 15.4185 15.9146C15.4263 15.9136 15.4336 15.9126 15.4404 15.9116C15.4482 15.9097 15.4561 15.9087 15.4639 15.9087C15.4668 15.9087 15.4692 15.9097 15.4712 15.9116C15.4731 15.9126 15.4761 15.9131 15.48 15.9131C15.4829 15.9141 15.4854 15.9136 15.4873 15.9116C15.4902 15.9097 15.4932 15.9097 15.4961 15.9116C15.501 15.9155 15.5059 15.9185 15.5107 15.9204C15.5156 15.9224 15.5205 15.9243 15.5254 15.9263C15.5283 15.9312 15.5298 15.937 15.5298 15.9438C15.5308 15.9497 15.5317 15.9561 15.5327 15.9629C15.5327 15.9697 15.5327 15.9766 15.5327 15.9834C15.5337 15.9893 15.5342 15.9951 15.5342 16.001C15.5332 16.0088 15.5317 16.0161 15.5298 16.0229C15.5288 16.0298 15.5283 16.0371 15.5283 16.0449C15.5273 16.0537 15.5278 16.062 15.5298 16.0698C15.5327 16.0767 15.5317 16.0835 15.5269 16.0903C15.5288 16.0962 15.5303 16.1006 15.5312 16.1035C15.5332 16.1064 15.5322 16.1104 15.5283 16.1152C15.5332 16.123 15.5352 16.1304 15.5342 16.1372C15.5332 16.144 15.5327 16.1523 15.5327 16.1621C15.5327 16.1699 15.5327 16.1787 15.5327 16.1885C15.5327 16.1973 15.5322 16.2065 15.5312 16.2163C15.5312 16.2261 15.5308 16.2329 15.5298 16.2368C15.5288 16.2397 15.5283 16.2422 15.5283 16.2441C15.5312 16.2559 15.5327 16.2666 15.5327 16.2764C15.5327 16.2852 15.5347 16.293 15.5386 16.2998C15.5366 16.3096 15.5361 16.3164 15.5371 16.3203C15.5381 16.3232 15.5386 16.3257 15.5386 16.3276C15.5386 16.3325 15.5381 16.3374 15.5371 16.3423C15.5361 16.3462 15.5361 16.3506 15.5371 16.3555C15.5391 16.3584 15.5396 16.3623 15.5386 16.3672C15.5386 16.3711 15.5391 16.375 15.54 16.3789C15.5381 16.3896 15.5376 16.397 15.5386 16.4009C15.5405 16.4038 15.5415 16.4072 15.5415 16.4111C15.5415 16.416 15.5405 16.4214 15.5386 16.4272C15.5366 16.4321 15.5356 16.437 15.5356 16.4419C15.5366 16.4487 15.5366 16.4536 15.5356 16.4565C15.5347 16.4595 15.5337 16.4624 15.5327 16.4653C15.5347 16.4692 15.5356 16.4736 15.5356 16.4785C15.5366 16.4824 15.5381 16.4863 15.54 16.4902C15.542 16.4951 15.542 16.499 15.54 16.502C15.5391 16.5049 15.5386 16.5088 15.5386 16.5137C15.5386 16.5186 15.5396 16.5234 15.5415 16.5283C15.5435 16.5332 15.5449 16.5376 15.5459 16.5415C15.5459 16.5464 15.5454 16.5513 15.5444 16.5562C15.5435 16.561 15.543 16.5659 15.543 16.5708C15.542 16.5835 15.543 16.5962 15.5459 16.6089C15.5488 16.6206 15.5493 16.6318 15.5474 16.6426C15.5474 16.6475 15.5464 16.6523 15.5444 16.6572C15.5435 16.6611 15.543 16.6655 15.543 16.6704C15.543 16.6743 15.5435 16.6782 15.5444 16.6821C15.5464 16.6851 15.5479 16.689 15.5488 16.6938C15.5508 16.7026 15.5513 16.7139 15.5503 16.7275C15.5503 16.7412 15.5503 16.7549 15.5503 16.7686C15.5493 16.7861 15.5483 16.8047 15.5474 16.8242C15.5464 16.8428 15.5474 16.8599 15.5503 16.8755C15.5542 16.896 15.5557 16.9126 15.5547 16.9253C15.5537 16.938 15.5537 16.9497 15.5547 16.9604C15.5557 16.9634 15.5566 16.9668 15.5576 16.9707C15.5596 16.9736 15.561 16.9771 15.562 16.981C15.564 16.9878 15.5654 16.9927 15.5664 16.9956C15.5674 16.9976 15.5679 16.9995 15.5679 17.0015ZM16.7632 15.916C16.7632 15.9268 16.7627 15.9414 16.7617 15.96C16.7617 15.9775 16.7593 15.9907 16.7544 15.9995C16.7563 16.019 16.7544 16.0381 16.7485 16.0566C16.7437 16.0752 16.7402 16.0942 16.7383 16.1138C16.7373 16.1235 16.7368 16.1328 16.7368 16.1416C16.7378 16.1504 16.7373 16.1597 16.7354 16.1694C16.7334 16.1772 16.7319 16.1865 16.731 16.1973C16.731 16.207 16.7305 16.2173 16.7295 16.228C16.7285 16.2358 16.7271 16.2432 16.7251 16.25C16.7231 16.2568 16.7217 16.2642 16.7207 16.272C16.7197 16.2808 16.7192 16.2891 16.7192 16.2969C16.7192 16.3047 16.7188 16.3125 16.7178 16.3203C16.7158 16.3398 16.7148 16.3584 16.7148 16.376C16.7148 16.3926 16.7144 16.4092 16.7134 16.4258C16.7124 16.4375 16.7114 16.4492 16.7104 16.4609C16.7104 16.4727 16.71 16.4839 16.709 16.4946C16.708 16.5073 16.707 16.5195 16.7061 16.5312C16.7051 16.542 16.7041 16.5527 16.7031 16.5635C16.7021 16.5684 16.7012 16.5742 16.7002 16.5811C16.7002 16.5869 16.7002 16.5933 16.7002 16.6001C16.7002 16.604 16.7007 16.6079 16.7017 16.6118C16.7026 16.6147 16.7026 16.6187 16.7017 16.6235C16.7017 16.6284 16.7012 16.6328 16.7002 16.6367C16.6992 16.6406 16.6978 16.645 16.6958 16.6499C16.6938 16.6616 16.6924 16.6738 16.6914 16.6865C16.6914 16.6992 16.6899 16.7119 16.687 16.7246C16.689 16.7275 16.6885 16.731 16.6855 16.7349C16.6836 16.7388 16.6821 16.7427 16.6812 16.7466C16.6802 16.7651 16.6787 16.7842 16.6768 16.8037C16.6758 16.8223 16.6748 16.8394 16.6738 16.855C16.6738 16.8657 16.6738 16.8774 16.6738 16.8901C16.6748 16.9028 16.6743 16.9155 16.6724 16.9282C16.6714 16.9321 16.6699 16.936 16.668 16.9399C16.666 16.9438 16.6641 16.9482 16.6621 16.9531C16.6602 16.96 16.6592 16.9678 16.6592 16.9766C16.6602 16.9844 16.6606 16.9937 16.6606 17.0044C16.6626 17.0122 16.6636 17.0181 16.6636 17.022C16.6626 17.0288 16.6606 17.0342 16.6577 17.0381C16.6548 17.043 16.6519 17.0479 16.6489 17.0527C16.6411 17.0537 16.6328 17.0537 16.624 17.0527C16.6152 17.0518 16.6079 17.0522 16.6021 17.0542C16.5962 17.0503 16.5903 17.0469 16.5845 17.0439C16.5796 17.042 16.5747 17.0381 16.5698 17.0322C16.5649 17.0244 16.561 17.0195 16.5581 17.0176C16.5562 17.0166 16.5542 17.0146 16.5522 17.0117C16.5444 17.0039 16.5391 16.998 16.5361 16.9941C16.5332 16.9902 16.5317 16.9863 16.5317 16.9824C16.5288 16.9824 16.5259 16.9819 16.5229 16.981C16.521 16.979 16.519 16.9771 16.5171 16.9751C16.5161 16.9712 16.5137 16.9688 16.5098 16.9678C16.5059 16.9658 16.5024 16.9639 16.4995 16.9619C16.4976 16.96 16.4961 16.957 16.4951 16.9531C16.4951 16.9482 16.4912 16.9473 16.4834 16.9502C16.4834 16.9463 16.4824 16.9438 16.4805 16.9429C16.4785 16.9409 16.478 16.9375 16.479 16.9326C16.4751 16.9307 16.4712 16.9292 16.4673 16.9282C16.4634 16.9272 16.4595 16.9258 16.4556 16.9238C16.4526 16.9219 16.4497 16.9189 16.4468 16.915C16.4448 16.9111 16.4424 16.9067 16.4395 16.9019C16.4365 16.8999 16.4331 16.8975 16.4292 16.8945C16.4263 16.8906 16.4238 16.8877 16.4219 16.8857C16.416 16.8809 16.4131 16.8779 16.4131 16.877C16.4131 16.875 16.4121 16.873 16.4102 16.8711C16.4053 16.8672 16.4009 16.8638 16.397 16.8608C16.394 16.8579 16.3906 16.8555 16.3867 16.8535C16.3848 16.8486 16.3823 16.8442 16.3794 16.8403C16.3765 16.8364 16.3726 16.8335 16.3677 16.8315C16.3657 16.8276 16.3643 16.8242 16.3633 16.8213C16.3633 16.8174 16.3623 16.8145 16.3604 16.8125C16.3564 16.8086 16.354 16.8057 16.353 16.8037C16.353 16.8018 16.3525 16.7998 16.3516 16.7979C16.3447 16.79 16.3398 16.7842 16.3369 16.7803C16.335 16.7754 16.333 16.771 16.3311 16.7671C16.3262 16.7612 16.3228 16.7573 16.3208 16.7554C16.3188 16.7534 16.3174 16.752 16.3164 16.751C16.3135 16.7461 16.3115 16.7407 16.3105 16.7349C16.3096 16.729 16.3076 16.7231 16.3047 16.7173C16.3027 16.7134 16.2993 16.71 16.2944 16.707C16.2905 16.7031 16.2871 16.6987 16.2842 16.6938C16.2822 16.6909 16.2798 16.6875 16.2769 16.6836C16.2749 16.6797 16.272 16.6768 16.2681 16.6748C16.2622 16.6689 16.2578 16.666 16.2549 16.666C16.2529 16.665 16.251 16.6636 16.249 16.6616C16.2451 16.6558 16.2422 16.6509 16.2402 16.647C16.2383 16.6421 16.2363 16.6377 16.2344 16.6338C16.2295 16.6289 16.2261 16.6245 16.2241 16.6206C16.2222 16.6167 16.2202 16.6133 16.2183 16.6104C16.2114 16.6016 16.2041 16.5942 16.1963 16.5884C16.1885 16.5825 16.1836 16.5742 16.1816 16.5635C16.1758 16.5586 16.1704 16.5537 16.1655 16.5488C16.1616 16.5439 16.1572 16.5386 16.1523 16.5327C16.1475 16.5239 16.1426 16.519 16.1377 16.5181C16.1338 16.5171 16.1309 16.5156 16.1289 16.5137C16.127 16.5068 16.123 16.5024 16.1172 16.5005C16.1123 16.4985 16.1089 16.4946 16.1069 16.4888C16.104 16.4897 16.1011 16.4893 16.0981 16.4873C16.0962 16.4854 16.0942 16.4834 16.0923 16.4814C16.0874 16.4795 16.0825 16.4771 16.0776 16.4741C16.0757 16.4722 16.0737 16.4697 16.0718 16.4668C16.0708 16.4629 16.0693 16.4595 16.0674 16.4565C16.0645 16.4536 16.0615 16.4512 16.0586 16.4492C16.0557 16.4473 16.0532 16.4448 16.0513 16.4419C16.0464 16.4331 16.0425 16.4263 16.0396 16.4214C16.0376 16.4165 16.0337 16.4131 16.0278 16.4111C16.0269 16.4043 16.0249 16.3989 16.022 16.395C16.02 16.3901 16.0176 16.3853 16.0146 16.3804C16.0088 16.3726 16.0044 16.3672 16.0015 16.3643C15.9995 16.3613 15.9976 16.3589 15.9956 16.3569C15.9907 16.3521 15.9883 16.3486 15.9883 16.3467C15.9893 16.3438 15.9893 16.3418 15.9883 16.3408C15.9824 16.333 15.9785 16.3276 15.9766 16.3247C15.9746 16.3218 15.9727 16.3188 15.9707 16.3159C15.9658 16.3081 15.9619 16.3027 15.959 16.2998C15.9561 16.2969 15.9536 16.2944 15.9517 16.2925C15.9419 16.3394 15.9355 16.3887 15.9326 16.4404C15.9307 16.4922 15.9287 16.5469 15.9268 16.6045C15.9268 16.6133 15.9272 16.6226 15.9282 16.6323C15.9302 16.6421 15.9307 16.6523 15.9297 16.6631C15.9297 16.666 15.9292 16.6689 15.9282 16.6719C15.9272 16.6748 15.9272 16.6777 15.9282 16.6807C15.9282 16.6885 15.9287 16.6958 15.9297 16.7026C15.9307 16.7085 15.9312 16.7168 15.9312 16.7275C15.9312 16.7354 15.9312 16.7461 15.9312 16.7598C15.9312 16.7734 15.9316 16.7871 15.9326 16.8008C15.9326 16.8115 15.9336 16.8223 15.9355 16.833C15.9375 16.8428 15.9395 16.853 15.9414 16.8638C15.9434 16.8735 15.9458 16.8838 15.9487 16.8945C15.9517 16.9043 15.9526 16.9141 15.9517 16.9238C15.9517 16.9316 15.9497 16.939 15.9458 16.9458C15.9429 16.9517 15.9424 16.9585 15.9443 16.9663C15.9395 16.9712 15.9351 16.9766 15.9312 16.9824C15.9282 16.9873 15.9238 16.9907 15.918 16.9927C15.9131 16.9927 15.9082 16.9917 15.9033 16.9897C15.8994 16.9878 15.895 16.9863 15.8901 16.9854C15.8843 16.9873 15.8799 16.9873 15.877 16.9854C15.875 16.9844 15.8735 16.9834 15.8726 16.9824C15.8657 16.9824 15.8584 16.9834 15.8506 16.9854C15.8438 16.9873 15.8369 16.9854 15.8301 16.9795C15.8262 16.9805 15.8232 16.9814 15.8213 16.9824C15.8193 16.9834 15.8164 16.9839 15.8125 16.9839C15.8066 16.9839 15.8018 16.9834 15.7979 16.9824C15.7939 16.9814 15.7891 16.9819 15.7832 16.9839C15.7803 16.9839 15.7754 16.9839 15.7686 16.9839C15.7627 16.9839 15.7563 16.9829 15.7495 16.981C15.7456 16.9771 15.7422 16.9722 15.7393 16.9663C15.7354 16.9546 15.7324 16.9458 15.7305 16.9399C15.7285 16.9341 15.7271 16.9287 15.7261 16.9238C15.7261 16.9219 15.7266 16.9194 15.7275 16.9165C15.7285 16.9136 15.729 16.9106 15.729 16.9077C15.729 16.9038 15.7285 16.9004 15.7275 16.8975C15.7275 16.8945 15.7275 16.8916 15.7275 16.8887C15.7275 16.8848 15.728 16.8809 15.729 16.877C15.73 16.873 15.7305 16.8687 15.7305 16.8638C15.7305 16.856 15.73 16.8477 15.729 16.8389C15.728 16.8301 15.7271 16.8203 15.7261 16.8096C15.7261 16.8066 15.7256 16.8042 15.7246 16.8022C15.7246 16.7993 15.7246 16.7964 15.7246 16.7935C15.7256 16.7788 15.7275 16.7646 15.7305 16.751C15.7344 16.7363 15.7354 16.7197 15.7334 16.7012C15.7334 16.6963 15.7324 16.6914 15.7305 16.6865C15.7295 16.6816 15.729 16.6768 15.729 16.6719C15.729 16.6631 15.7295 16.6548 15.7305 16.647C15.7324 16.6392 15.7339 16.6313 15.7349 16.6235C15.7368 16.6196 15.7373 16.6167 15.7363 16.6147C15.7354 16.6128 15.7354 16.6104 15.7363 16.6074C15.7363 16.6045 15.7373 16.6016 15.7393 16.5986C15.7412 16.5957 15.7427 16.5928 15.7437 16.5898C15.7427 16.5811 15.7432 16.5708 15.7451 16.5591C15.7471 16.5474 15.7485 16.5332 15.7495 16.5166C15.7485 16.5029 15.7495 16.4917 15.7524 16.4829C15.7554 16.4731 15.7568 16.4644 15.7568 16.4565C15.7568 16.4478 15.7573 16.4404 15.7583 16.4346C15.7603 16.4287 15.7617 16.4233 15.7627 16.4185V16.4009C15.7646 16.3901 15.7646 16.3828 15.7627 16.3789C15.7617 16.375 15.7612 16.3711 15.7612 16.3672C15.7632 16.3623 15.7637 16.3574 15.7627 16.3525C15.7627 16.3467 15.7622 16.3413 15.7612 16.3364C15.7632 16.3325 15.7637 16.3291 15.7627 16.3262C15.7627 16.3232 15.7617 16.3193 15.7598 16.3145C15.7598 16.293 15.7607 16.2754 15.7627 16.2617C15.7656 16.248 15.7661 16.2354 15.7642 16.2236C15.7642 16.2188 15.7637 16.2153 15.7627 16.2134C15.7617 16.2104 15.7607 16.2075 15.7598 16.2046C15.7588 16.1938 15.7588 16.186 15.7598 16.1812C15.7617 16.1763 15.7627 16.1719 15.7627 16.168C15.7637 16.1641 15.7632 16.1602 15.7612 16.1562C15.7603 16.1523 15.7593 16.1484 15.7583 16.1445C15.7583 16.1416 15.7593 16.1377 15.7612 16.1328C15.7632 16.1279 15.7617 16.124 15.7568 16.1211C15.7598 16.1113 15.7607 16.105 15.7598 16.1021C15.7588 16.0981 15.7583 16.0947 15.7583 16.0918C15.7603 16.084 15.7607 16.0796 15.7598 16.0786C15.7588 16.0767 15.7583 16.0747 15.7583 16.0728C15.7603 16.0679 15.7607 16.0645 15.7598 16.0625C15.7588 16.0596 15.7583 16.0571 15.7583 16.0552C15.7593 16.0513 15.7603 16.0474 15.7612 16.0435C15.7622 16.0396 15.7632 16.0352 15.7642 16.0303C15.7642 16.0273 15.7637 16.0239 15.7627 16.02C15.7617 16.0161 15.7612 16.0127 15.7612 16.0098C15.7622 16.0029 15.7632 15.9966 15.7642 15.9907C15.7651 15.9849 15.7661 15.9795 15.7671 15.9746C15.7681 15.9707 15.7681 15.9673 15.7671 15.9644C15.7671 15.9604 15.7676 15.957 15.7686 15.9541C15.7705 15.9404 15.771 15.9297 15.77 15.9219C15.769 15.9141 15.7695 15.9067 15.7715 15.8999C15.7744 15.8921 15.7812 15.8867 15.792 15.8838C15.8037 15.8799 15.814 15.8818 15.8228 15.8896C15.8325 15.8906 15.8408 15.8921 15.8477 15.894C15.8555 15.896 15.8594 15.9023 15.8594 15.9131C15.8643 15.9131 15.8677 15.915 15.8696 15.9189C15.8726 15.9229 15.876 15.9258 15.8799 15.9277C15.8936 15.9346 15.9014 15.9395 15.9033 15.9424C15.9111 15.9502 15.9165 15.9556 15.9194 15.9585C15.9233 15.9614 15.9263 15.9644 15.9282 15.9673C15.9331 15.9741 15.9355 15.9785 15.9355 15.9805C15.9365 15.9824 15.938 15.9839 15.9399 15.9849C15.9419 15.9868 15.9443 15.9902 15.9473 15.9951C15.9512 15.999 15.9546 16.0029 15.9575 16.0068C15.9624 16.0127 15.9678 16.0186 15.9736 16.0244C15.9795 16.0293 15.9849 16.0352 15.9897 16.042C15.9927 16.0449 15.9951 16.0483 15.9971 16.0522C15.999 16.0552 16.002 16.0581 16.0059 16.061C16.0127 16.0688 16.0195 16.0776 16.0264 16.0874C16.0342 16.0962 16.042 16.1055 16.0498 16.1152C16.0527 16.1201 16.0557 16.125 16.0586 16.1299C16.0615 16.1338 16.0659 16.1372 16.0718 16.1401C16.0728 16.1499 16.0786 16.1582 16.0894 16.165C16.0923 16.1738 16.0967 16.1816 16.1025 16.1885C16.1084 16.1953 16.1133 16.2026 16.1172 16.2104C16.124 16.2163 16.1299 16.2227 16.1348 16.2295C16.1396 16.2354 16.145 16.2417 16.1509 16.2485C16.1528 16.2505 16.1543 16.2529 16.1553 16.2559C16.1572 16.2588 16.1597 16.2617 16.1626 16.2646C16.1675 16.2695 16.1699 16.2739 16.1699 16.2778C16.1709 16.2808 16.1724 16.2832 16.1743 16.2852C16.1763 16.2891 16.1782 16.293 16.1802 16.2969C16.1831 16.2998 16.1855 16.3032 16.1875 16.3071C16.1982 16.3218 16.2061 16.3345 16.2109 16.3452C16.2158 16.356 16.2212 16.3662 16.2271 16.376C16.2329 16.3838 16.2373 16.3901 16.2402 16.395C16.2432 16.3999 16.2456 16.4043 16.2476 16.4082C16.2563 16.417 16.2622 16.4233 16.2651 16.4272C16.27 16.4331 16.2744 16.439 16.2783 16.4448C16.2832 16.4497 16.2881 16.4551 16.293 16.4609C16.2979 16.4678 16.3003 16.4722 16.3003 16.4741C16.3013 16.4761 16.3018 16.478 16.3018 16.48C16.3086 16.4849 16.312 16.4883 16.312 16.4902C16.312 16.4912 16.313 16.4922 16.3149 16.4932C16.3228 16.5049 16.3325 16.5171 16.3442 16.5298C16.356 16.5415 16.3677 16.5527 16.3794 16.5635C16.3853 16.5693 16.3911 16.5747 16.397 16.5796C16.4028 16.5845 16.4082 16.5908 16.4131 16.5986C16.417 16.6064 16.4194 16.6113 16.4204 16.6133C16.4224 16.6143 16.4238 16.6157 16.4248 16.6177C16.4307 16.6265 16.4375 16.6353 16.4453 16.644C16.4541 16.6519 16.4639 16.6587 16.4746 16.6646C16.4756 16.6577 16.4761 16.6514 16.4761 16.6455C16.4761 16.6387 16.4761 16.6328 16.4761 16.6279C16.4761 16.623 16.4761 16.6187 16.4761 16.6147C16.4761 16.6108 16.478 16.6074 16.4819 16.6045C16.48 16.5986 16.478 16.5913 16.4761 16.5825C16.4741 16.5728 16.4756 16.564 16.4805 16.5562C16.4775 16.5464 16.4766 16.54 16.4775 16.5371C16.4785 16.5332 16.4785 16.5293 16.4775 16.5254C16.4775 16.5215 16.4771 16.5186 16.4761 16.5166C16.4751 16.5137 16.4746 16.5103 16.4746 16.5063C16.4736 16.4985 16.4741 16.4907 16.4761 16.4829C16.478 16.4741 16.4795 16.4648 16.4805 16.4551C16.4805 16.4385 16.4805 16.4214 16.4805 16.4038C16.4805 16.3853 16.4819 16.3691 16.4849 16.3555C16.4849 16.3535 16.4858 16.3506 16.4878 16.3467C16.4897 16.3428 16.4912 16.3398 16.4922 16.3379C16.4912 16.3301 16.4912 16.3247 16.4922 16.3218C16.4941 16.3179 16.4951 16.3135 16.4951 16.3086C16.4951 16.3018 16.4946 16.2949 16.4937 16.2881C16.4927 16.2812 16.4927 16.272 16.4937 16.2603C16.4927 16.2495 16.4932 16.2412 16.4951 16.2354C16.4971 16.2285 16.4985 16.2212 16.4995 16.2134C16.4976 16.2085 16.4971 16.2036 16.498 16.1987C16.499 16.1929 16.4995 16.1875 16.4995 16.1826C16.4995 16.1797 16.499 16.1768 16.498 16.1738C16.498 16.1699 16.498 16.166 16.498 16.1621C16.498 16.1553 16.499 16.1494 16.501 16.1445C16.5029 16.1387 16.5044 16.1328 16.5054 16.127C16.5054 16.1201 16.5049 16.1138 16.5039 16.1079C16.5039 16.1011 16.5054 16.0938 16.5083 16.0859C16.5063 16.082 16.5049 16.0786 16.5039 16.0757C16.5029 16.0728 16.5015 16.0688 16.4995 16.064C16.5044 16.0483 16.5059 16.0342 16.5039 16.0215C16.5029 16.0078 16.5034 15.9917 16.5054 15.9731C16.5044 15.9683 16.5049 15.9634 16.5068 15.9585C16.5078 15.9565 16.5083 15.9546 16.5083 15.9526C16.5083 15.9478 16.5073 15.9438 16.5054 15.9409C16.5034 15.937 16.5029 15.9331 16.5039 15.9292C16.5059 15.9253 16.5093 15.9204 16.5142 15.9146C16.52 15.9077 16.5254 15.9038 16.5303 15.9028C16.5352 15.9019 16.54 15.9028 16.5449 15.9058C16.5498 15.9077 16.5547 15.9087 16.5596 15.9087C16.5703 15.9097 16.5815 15.9087 16.5933 15.9058C16.606 15.9019 16.6177 15.8989 16.6284 15.897C16.6362 15.895 16.6475 15.895 16.6621 15.897C16.6777 15.8989 16.6914 15.8989 16.7031 15.897C16.7158 15.8989 16.7275 15.9014 16.7383 15.9043C16.7432 15.9062 16.748 15.9077 16.7529 15.9087C16.7578 15.9097 16.7612 15.9121 16.7632 15.916Z" fill="#689BAE"/>
</svg>
