<svg width="164" height="31" viewBox="0 0 164 31" fill="none" xmlns="http://www.w3.org/2000/svg">
<path d="M17.5293 8.3125C17.5293 8.44792 17.487 8.61719 17.4023 8.82031C17.3685 8.88802 17.3431 8.95573 17.3262 9.02344C17.3092 9.09115 17.2839 9.17578 17.25 9.27734C17.1992 9.36198 17.1738 9.42969 17.1738 9.48047C17.1738 9.53125 17.1654 9.57357 17.1484 9.60742C17.0977 9.67513 17.0638 9.73438 17.0469 9.78516C17.0299 9.81901 17.0046 9.85286 16.9707 9.88672C16.9368 10.0052 16.8945 10.1322 16.8438 10.2676C16.8099 10.3861 16.7422 10.4622 16.6406 10.4961C16.6237 10.5638 16.6152 10.6315 16.6152 10.6992C16.6322 10.7669 16.6237 10.8177 16.5898 10.8516C16.4544 11.1901 16.3275 11.5202 16.209 11.8418C16.1074 12.1465 15.9889 12.4427 15.8535 12.7305C15.8874 12.8997 15.8535 13.0352 15.752 13.1367C15.6673 13.2383 15.5996 13.3568 15.5488 13.4922C15.515 13.543 15.498 13.6022 15.498 13.6699C15.515 13.7376 15.515 13.7969 15.498 13.8477C15.4811 13.8984 15.4473 13.9492 15.3965 14C15.3457 14.0339 15.3372 14.0846 15.3711 14.1523C15.2018 14.3047 15.1003 14.4993 15.0664 14.7363C15.0326 14.9564 14.9648 15.1595 14.8633 15.3457C14.8294 15.3965 14.7871 15.4473 14.7363 15.498C14.7025 15.5319 14.6686 15.5827 14.6348 15.6504C14.5332 15.8366 14.4316 16.0143 14.3301 16.1836C14.2454 16.3359 14.1862 16.4967 14.1523 16.666C14.0677 16.7507 14 16.8438 13.9492 16.9453C13.8984 17.0469 13.8477 17.1484 13.7969 17.25C13.7122 17.4362 13.6361 17.5801 13.5684 17.6816C13.5176 17.7663 13.4668 17.8594 13.416 17.9609C13.3822 17.9948 13.3652 18.0371 13.3652 18.0879C13.3652 18.1387 13.3314 18.181 13.2637 18.2148C13.2298 18.3672 13.179 18.4857 13.1113 18.5703C13.0436 18.6549 13.0013 18.7904 12.9844 18.9766C12.9505 19.0104 12.9167 19.0443 12.8828 19.0781C12.8659 19.112 12.8405 19.1543 12.8066 19.2051C12.7728 19.4759 12.6966 19.7129 12.5781 19.916C12.4596 20.1022 12.3665 20.3223 12.2988 20.5762C12.265 20.627 12.2227 20.6693 12.1719 20.7031C12.138 20.737 12.1042 20.7793 12.0703 20.8301C12.0365 20.9824 11.9941 21.1178 11.9434 21.2363C11.8926 21.3548 11.8079 21.4479 11.6895 21.5156C11.7064 21.668 11.681 21.8118 11.6133 21.9473C11.5625 22.0658 11.5033 22.1927 11.4355 22.3281C11.4017 22.4128 11.3678 22.4974 11.334 22.582C11.3171 22.6497 11.2832 22.7259 11.2324 22.8105C11.1478 22.9967 11.0801 23.1406 11.0293 23.2422C10.9954 23.3438 10.9447 23.4115 10.877 23.4453C10.86 23.6992 10.7923 23.9023 10.6738 24.0547C10.5553 24.1901 10.4792 24.3763 10.4453 24.6133C10.4115 24.6641 10.3522 24.6979 10.2676 24.7148C10.1999 24.7148 10.1491 24.7487 10.1152 24.8164C10.0814 24.8503 10.0729 24.901 10.0898 24.9688C10.1068 25.0195 10.0983 25.0703 10.0645 25.1211C9.97982 25.3073 9.92904 25.4427 9.91211 25.5273C9.89518 25.5951 9.86979 25.6712 9.83594 25.7559C9.7513 25.8574 9.70052 25.9251 9.68359 25.959C9.68359 25.9928 9.66667 26.0267 9.63281 26.0605C9.54818 26.179 9.46354 26.3314 9.37891 26.5176C9.3112 26.6868 9.24349 26.8646 9.17578 27.0508C9.10807 27.1693 9.04036 27.2708 8.97266 27.3555C8.92188 27.457 8.82878 27.5332 8.69336 27.584C8.71029 27.6517 8.70182 27.694 8.66797 27.7109C8.63411 27.7279 8.62565 27.7786 8.64258 27.8633C8.55794 27.9141 8.47331 27.9564 8.38867 27.9902C8.32096 28.0241 8.2194 27.9987 8.08398 27.9141C7.96549 27.8294 7.89779 27.7702 7.88086 27.7363C7.88086 27.7194 7.86393 27.7025 7.83008 27.6855C7.74544 27.6009 7.70312 27.5332 7.70312 27.4824C7.70312 27.4486 7.70312 27.4232 7.70312 27.4062C7.66927 27.3555 7.62695 27.3047 7.57617 27.2539C7.54232 27.2201 7.50846 27.1777 7.47461 27.127C7.44076 27.0592 7.4069 27 7.37305 26.9492C7.35612 26.8815 7.33073 26.8138 7.29688 26.7461C7.26302 26.6953 7.22917 26.6445 7.19531 26.5938C7.17839 26.543 7.15299 26.4837 7.11914 26.416C7.08529 26.3483 7.04297 26.2891 6.99219 26.2383C6.95833 26.1875 6.92448 26.1367 6.89062 26.0859C6.80599 25.9844 6.74674 25.9167 6.71289 25.8828C6.69596 25.849 6.67904 25.8236 6.66211 25.8066C6.61133 25.6712 6.56901 25.5951 6.53516 25.5781C6.51823 25.5443 6.5013 25.5104 6.48438 25.4766C6.36589 25.3073 6.28125 25.1719 6.23047 25.0703C6.17969 24.9518 6.12891 24.8503 6.07812 24.7656C6.04427 24.681 6.01042 24.6133 5.97656 24.5625C5.94271 24.5117 5.90039 24.4525 5.84961 24.3848C5.7819 24.2493 5.73112 24.1732 5.69727 24.1562C5.68034 24.1224 5.67188 24.097 5.67188 24.0801C5.58724 23.9954 5.53646 23.9362 5.51953 23.9023C5.51953 23.8685 5.51107 23.8431 5.49414 23.8262C5.42643 23.7585 5.35872 23.6908 5.29102 23.623C5.24023 23.5384 5.19792 23.4284 5.16406 23.293C5.07943 23.2083 5.00326 23.1237 4.93555 23.0391C4.88477 22.9375 4.84245 22.8105 4.80859 22.6582C4.75781 22.5566 4.72396 22.4635 4.70703 22.3789C4.6901 22.2773 4.65625 22.1758 4.60547 22.0742C4.52083 21.9557 4.46159 21.8626 4.42773 21.7949C4.41081 21.7103 4.39388 21.651 4.37695 21.6172C4.36003 21.5664 4.35156 21.5241 4.35156 21.4902C4.35156 21.4395 4.33464 21.3887 4.30078 21.3379C4.26693 21.2533 4.22461 21.1602 4.17383 21.0586C4.13997 20.957 4.13151 20.8555 4.14844 20.7539C4.08073 20.7031 4.03841 20.6523 4.02148 20.6016C4.02148 20.5339 4.00456 20.4661 3.9707 20.3984C3.88607 20.2799 3.84375 20.1953 3.84375 20.1445C3.84375 20.0768 3.83529 20.026 3.81836 19.9922C3.78451 19.9076 3.75065 19.8398 3.7168 19.7891C3.68294 19.7214 3.64909 19.6536 3.61523 19.5859C3.58138 19.5182 3.56445 19.4505 3.56445 19.3828C3.58138 19.3151 3.54753 19.2643 3.46289 19.2305C3.46289 19.1797 3.46289 19.1289 3.46289 19.0781C3.47982 19.0273 3.48828 18.985 3.48828 18.9512C3.42057 18.7988 3.36979 18.6973 3.33594 18.6465C3.31901 18.5788 3.29362 18.5195 3.25977 18.4688C3.24284 18.181 3.17513 17.9525 3.05664 17.7832C2.95508 17.597 2.89583 17.36 2.87891 17.0723C2.79427 16.8353 2.73503 16.666 2.70117 16.5645C2.68424 16.446 2.65039 16.3359 2.59961 16.2344C2.58268 16.1836 2.55729 16.1328 2.52344 16.082C2.50651 16.0312 2.48958 15.9805 2.47266 15.9297C2.45573 15.7604 2.43034 15.6419 2.39648 15.5742C2.37956 15.4896 2.35417 15.4219 2.32031 15.3711C2.28646 15.2695 2.26953 15.1341 2.26953 14.9648C2.20182 14.8464 2.15951 14.7533 2.14258 14.6855C2.12565 14.6009 2.0918 14.5247 2.04102 14.457C2.00716 14.4232 1.99023 14.3639 1.99023 14.2793C1.99023 14.1777 1.97331 14.0846 1.93945 14C1.92253 13.8984 1.88021 13.8053 1.8125 13.7207C1.82943 13.5345 1.79557 13.4076 1.71094 13.3398C1.64323 13.2552 1.61784 13.1367 1.63477 12.9844C1.46549 12.5951 1.34701 12.2904 1.2793 12.0703C1.24544 11.9349 1.21159 11.8079 1.17773 11.6895C1.14388 11.571 1.11003 11.4525 1.07617 11.334C1.02539 11.1986 0.983073 11.0632 0.949219 10.9277C0.915365 10.7923 0.88151 10.6738 0.847656 10.5723C0.796875 10.4538 0.754557 10.3353 0.720703 10.2168C0.686849 10.0983 0.644531 9.97982 0.59375 9.86133C0.627604 9.72591 0.619141 9.60742 0.568359 9.50586C0.517578 9.38737 0.492188 9.24349 0.492188 9.07422C0.559896 8.98958 0.619141 8.89648 0.669922 8.79492C0.703776 8.69336 0.763021 8.60026 0.847656 8.51562C1 8.48177 1.16927 8.45638 1.35547 8.43945C1.54167 8.42253 1.69401 8.36328 1.8125 8.26172C1.98177 8.24479 2.16797 8.2194 2.37109 8.18555C2.57422 8.13477 2.77734 8.09245 2.98047 8.05859C3.18359 7.99089 3.3444 7.97396 3.46289 8.00781C3.58138 8.04167 3.69987 8.15169 3.81836 8.33789C3.81836 8.4056 3.81836 8.47331 3.81836 8.54102C3.83529 8.5918 3.82682 8.63411 3.79297 8.66797C3.82682 8.7526 3.84375 8.8457 3.84375 8.94727C3.86068 9.04883 3.88607 9.16732 3.91992 9.30273C3.93685 9.38737 3.95378 9.48047 3.9707 9.58203C4.00456 9.68359 4.02995 9.77669 4.04688 9.86133C4.0638 9.94596 4.0638 10.0391 4.04688 10.1406C4.02995 10.2253 4.05534 10.3014 4.12305 10.3691C4.08919 10.5215 4.08073 10.6146 4.09766 10.6484C4.13151 10.6654 4.14844 10.6823 4.14844 10.6992C4.18229 10.8685 4.20768 11.0039 4.22461 11.1055C4.25846 11.207 4.29232 11.3086 4.32617 11.4102C4.36003 11.4779 4.36849 11.5286 4.35156 11.5625C4.35156 11.5794 4.36849 11.6217 4.40234 11.6895C4.47005 11.8757 4.50391 12.0026 4.50391 12.0703C4.50391 12.138 4.50391 12.1973 4.50391 12.248C4.53776 12.3665 4.58008 12.4766 4.63086 12.5781C4.68164 12.6797 4.74935 12.7728 4.83398 12.8574C4.86784 13.0436 4.91016 13.2214 4.96094 13.3906C5.01172 13.543 5.0625 13.7038 5.11328 13.873L5.18945 14.1777C5.24023 14.347 5.27409 14.474 5.29102 14.5586C5.32487 14.6263 5.35872 14.694 5.39258 14.7617C5.42643 14.7956 5.46029 14.8548 5.49414 14.9395C5.52799 15.0241 5.54492 15.1087 5.54492 15.1934C5.56185 15.2441 5.58724 15.2949 5.62109 15.3457C5.65495 15.3796 5.6888 15.4303 5.72266 15.498C5.75651 15.6335 5.77344 15.7181 5.77344 15.752C5.79036 15.7689 5.80729 15.7943 5.82422 15.8281C5.90885 15.9974 5.9681 16.1582 6.00195 16.3105C6.03581 16.4629 6.09505 16.6068 6.17969 16.7422C6.2474 16.9284 6.29818 17.0553 6.33203 17.123C6.36589 17.1908 6.39974 17.2585 6.43359 17.3262C6.43359 17.4277 6.45052 17.5208 6.48438 17.6055C6.51823 17.6732 6.54362 17.724 6.56055 17.7578C6.5944 17.8255 6.61133 17.9017 6.61133 17.9863C6.62826 18.054 6.67057 18.1133 6.73828 18.1641C6.80599 18.2995 6.84831 18.4095 6.86523 18.4941C6.88216 18.5618 6.90755 18.6126 6.94141 18.6465C6.94141 18.7142 6.95833 18.7819 6.99219 18.8496C7.02604 18.9004 7.0599 18.9596 7.09375 19.0273C7.1276 19.1966 7.16146 19.3151 7.19531 19.3828C7.22917 19.5013 7.27148 19.6113 7.32227 19.7129C7.38997 19.7975 7.44076 19.8991 7.47461 20.0176C7.50846 20.0853 7.52539 20.153 7.52539 20.2207C7.52539 20.2715 7.54232 20.3307 7.57617 20.3984C7.64388 20.4831 7.67773 20.5423 7.67773 20.5762C7.69466 20.61 7.71159 20.6439 7.72852 20.6777C7.76237 20.7793 7.80469 20.8893 7.85547 21.0078C7.92318 21.1094 7.97396 21.2109 8.00781 21.3125C8.1263 21.1602 8.20247 21.0501 8.23633 20.9824C8.27018 20.8978 8.30404 20.8047 8.33789 20.7031C8.37174 20.6016 8.4056 20.5085 8.43945 20.4238C8.47331 20.3223 8.50716 20.2292 8.54102 20.1445C8.55794 20.0938 8.56641 20.043 8.56641 19.9922C8.58333 19.9245 8.60026 19.8737 8.61719 19.8398C8.7526 19.5182 8.93034 19.1797 9.15039 18.8242C9.18424 18.7734 9.20964 18.7311 9.22656 18.6973C9.26042 18.6634 9.28581 18.6211 9.30273 18.5703C9.33659 18.4857 9.36198 18.401 9.37891 18.3164C9.41276 18.2148 9.45508 18.1133 9.50586 18.0117C9.64128 17.7747 9.73438 17.5801 9.78516 17.4277C9.85286 17.2754 9.92904 17.1315 10.0137 16.9961C10.0475 16.9115 10.0814 16.8438 10.1152 16.793C10.166 16.7422 10.2253 16.6745 10.293 16.5898C10.3607 16.4544 10.4115 16.3698 10.4453 16.3359C10.4792 16.3021 10.4961 16.2767 10.4961 16.2598C10.5299 16.1243 10.5553 16.0482 10.5723 16.0312C10.5892 16.0143 10.6061 15.9974 10.623 15.9805C10.6908 15.862 10.7331 15.7773 10.75 15.7266C10.7669 15.6758 10.7839 15.625 10.8008 15.5742C10.8685 15.4557 10.9277 15.3457 10.9785 15.2441C11.0462 15.1426 11.1055 15.0241 11.1562 14.8887C11.1732 14.8379 11.1986 14.7448 11.2324 14.6094C11.3509 14.3893 11.4355 14.2116 11.4863 14.0762C11.5371 13.9408 11.5964 13.8307 11.6641 13.7461C11.6979 13.6953 11.7402 13.6107 11.791 13.4922C11.8418 13.3737 11.8841 13.2637 11.918 13.1621C12.0195 13.0267 12.0788 12.9251 12.0957 12.8574C12.1126 12.7897 12.138 12.7389 12.1719 12.7051C12.2227 12.6204 12.265 12.5443 12.2988 12.4766C12.3496 12.4089 12.3919 12.3327 12.4258 12.248C12.5104 12.0618 12.5866 11.918 12.6543 11.8164C12.722 11.6979 12.7728 11.5964 12.8066 11.5117C12.8405 11.4271 12.8743 11.3424 12.9082 11.2578C12.959 11.1732 13.0182 11.097 13.0859 11.0293C13.0859 10.8431 13.1198 10.6823 13.1875 10.5469C13.2721 10.3945 13.3145 10.2591 13.3145 10.1406C13.3314 10.0052 13.3737 9.89518 13.4414 9.81055C13.4076 9.64128 13.416 9.48047 13.4668 9.32812C13.5345 9.15885 13.5514 8.99805 13.5176 8.8457C13.6699 8.5918 13.873 8.41406 14.127 8.3125C14.2624 8.24479 14.4062 8.21094 14.5586 8.21094C14.7279 8.19401 14.8887 8.16862 15.041 8.13477C15.0918 8.11784 15.1341 8.09245 15.168 8.05859C15.2188 8.02474 15.2695 7.99935 15.3203 7.98242C15.4219 7.94857 15.5319 7.9401 15.6504 7.95703C15.7858 7.95703 15.9043 7.95703 16.0059 7.95703C16.0566 7.9401 16.1074 7.92318 16.1582 7.90625C16.209 7.88932 16.2598 7.8724 16.3105 7.85547C16.4798 7.92318 16.5898 7.9401 16.6406 7.90625C16.7083 7.8724 16.7845 7.85547 16.8691 7.85547C16.903 7.88932 16.9453 7.90625 16.9961 7.90625C17.0638 7.90625 17.1315 7.92318 17.1992 7.95703C17.3008 8.09245 17.377 8.17708 17.4277 8.21094C17.4785 8.22786 17.5124 8.26172 17.5293 8.3125ZM38.7741 18.291C38.7741 18.6296 38.7318 18.9766 38.6472 19.332C38.5795 19.6706 38.5033 19.9922 38.4187 20.2969C38.4017 20.3477 38.3933 20.3984 38.3933 20.4492C38.3933 20.5 38.3848 20.5423 38.3679 20.5762C38.351 20.627 38.3171 20.6777 38.2663 20.7285C38.2325 20.7793 38.2071 20.8301 38.1902 20.8809C38.1394 21.084 38.114 21.2617 38.114 21.4141C38.1309 21.5664 38.1055 21.7188 38.0378 21.8711C37.9532 22.0065 37.8939 22.0911 37.8601 22.125C37.8262 22.1589 37.7924 22.2181 37.7585 22.3027C37.6739 22.4382 37.6062 22.5566 37.5554 22.6582C37.5046 22.7428 37.4454 22.8021 37.3777 22.8359C37.3777 22.8698 37.3692 22.9121 37.3523 22.9629C37.3353 22.9967 37.3353 23.0475 37.3523 23.1152C37.2168 23.2168 37.1238 23.3438 37.073 23.4961C37.0391 23.6315 36.9629 23.7669 36.8445 23.9023C36.7429 24.0208 36.6752 24.1055 36.6413 24.1562C36.6244 24.1901 36.599 24.224 36.5652 24.2578C36.5144 24.3086 36.4636 24.3509 36.4128 24.3848C36.362 24.4017 36.3113 24.4355 36.2605 24.4863C36.1251 24.6556 36.0066 24.7826 35.905 24.8672C35.8034 24.9518 35.7357 25.0534 35.7019 25.1719C35.5834 25.2057 35.4988 25.248 35.448 25.2988C35.3126 25.4004 35.2364 25.4766 35.2195 25.5273C35.2025 25.5612 35.1771 25.5866 35.1433 25.6035C35.0417 25.6882 34.9571 25.7389 34.8894 25.7559C34.8217 25.7728 34.7709 25.7982 34.737 25.832C34.6355 25.9167 34.5001 26.0013 34.3308 26.0859C34.1615 26.1536 34.0261 26.2383 33.9245 26.3398C33.7383 26.4245 33.6114 26.5007 33.5437 26.5684C33.4929 26.6191 33.4336 26.6615 33.3659 26.6953C33.2813 26.7461 33.1882 26.7799 33.0866 26.7969C33.002 26.8138 32.9428 26.873 32.9089 26.9746C32.6889 27.0423 32.5111 27.1016 32.3757 27.1523C32.2572 27.2201 32.1049 27.2624 31.9187 27.2793C31.834 27.3639 31.6732 27.4316 31.4363 27.4824C31.2162 27.5501 31.0131 27.5924 30.8269 27.6094C30.7422 27.6094 30.6576 27.6009 30.573 27.584C30.4883 27.584 30.4037 27.584 30.3191 27.584C30.2175 27.6009 30.1159 27.6263 30.0144 27.6602C29.9297 27.7109 29.8451 27.7363 29.7605 27.7363C29.6928 27.7533 29.6251 27.7448 29.5573 27.7109C29.5066 27.6771 29.4389 27.6432 29.3542 27.6094C29.168 27.6263 29.0157 27.6432 28.8972 27.6602C28.7787 27.694 28.6687 27.7109 28.5671 27.7109C28.4655 27.7279 28.3555 27.7279 28.237 27.7109C28.1355 27.694 28.0424 27.6771 27.9577 27.6602C27.9239 27.694 27.8392 27.694 27.7038 27.6602C27.5853 27.6432 27.5092 27.6178 27.4753 27.584C27.3568 27.6686 27.2383 27.6771 27.1198 27.6094C27.0014 27.5417 26.8829 27.4909 26.7644 27.457C26.5951 27.4062 26.4258 27.3809 26.2566 27.3809C26.1042 27.3978 25.9603 27.347 25.8249 27.2285C25.4356 27.2285 25.1563 27.127 24.987 26.9238C24.7501 26.873 24.5977 26.8307 24.53 26.7969C24.4623 26.763 24.3861 26.7207 24.3015 26.6699C24.2338 26.6022 24.1745 26.5599 24.1238 26.543C24.073 26.5091 24.0222 26.4668 23.9714 26.416C23.8868 26.3483 23.8191 26.306 23.7683 26.2891C23.7344 26.2721 23.7006 26.2467 23.6667 26.2129C23.6159 26.1621 23.5652 26.1029 23.5144 26.0352C23.4805 25.9674 23.4382 25.9167 23.3874 25.8828C23.3028 25.8828 23.2266 25.8659 23.1589 25.832C23.1081 25.7812 23.0404 25.7135 22.9558 25.6289C22.8711 25.5612 22.7696 25.485 22.6511 25.4004C22.5495 25.2988 22.4818 25.1973 22.448 25.0957C22.3464 25.0618 22.2448 25.028 22.1433 24.9941C22.0417 24.9603 21.9655 24.9095 21.9148 24.8418C21.7793 24.7064 21.6693 24.5964 21.5847 24.5117C21.5001 24.4271 21.4323 24.3424 21.3816 24.2578C21.2969 24.0716 21.2292 23.9531 21.1784 23.9023C21.1277 23.8346 21.0684 23.7754 21.0007 23.7246C20.8653 23.5384 20.7553 23.3861 20.6706 23.2676C20.586 23.1491 20.5183 23.0475 20.4675 22.9629C20.3998 22.9121 20.349 22.8529 20.3152 22.7852C20.2813 22.7174 20.2474 22.6497 20.2136 22.582C20.1967 22.4974 20.1628 22.4212 20.112 22.3535C20.0782 22.2858 20.0274 22.235 19.9597 22.2012C19.9766 22.0488 19.9428 21.9303 19.8581 21.8457C19.7904 21.7441 19.7312 21.6341 19.6804 21.5156C19.6465 21.431 19.6211 21.3379 19.6042 21.2363C19.6042 21.1348 19.5958 21.0247 19.5788 20.9062C19.545 20.8555 19.5111 20.8047 19.4773 20.7539C19.4434 20.6862 19.4265 20.6185 19.4265 20.5508C19.4434 20.4323 19.4349 20.3392 19.4011 20.2715C19.3842 20.2038 19.3672 20.1445 19.3503 20.0938C19.3334 20.0091 19.3249 19.9329 19.3249 19.8652C19.3418 19.7975 19.3418 19.7298 19.3249 19.6621L19.2488 19.2812C19.2488 19.2305 19.2488 19.1712 19.2488 19.1035C19.2657 19.0189 19.2403 18.9596 19.1726 18.9258C19.2064 18.7565 19.2234 18.638 19.2234 18.5703C19.1895 18.418 19.1726 18.3333 19.1726 18.3164C19.1895 18.2826 19.198 18.2572 19.198 18.2402C19.181 18.1048 19.181 17.9863 19.198 17.8848C19.2149 17.7832 19.2064 17.6562 19.1726 17.5039C19.1387 17.4362 19.1303 17.3685 19.1472 17.3008C19.181 17.2331 19.1895 17.14 19.1726 17.0215C19.1387 16.8353 19.1133 16.6914 19.0964 16.5898C19.0964 16.4883 19.1049 16.4036 19.1218 16.3359C19.1218 16.2682 19.1303 16.209 19.1472 16.1582C19.181 16.1074 19.198 16.0482 19.198 15.9805C19.181 15.8112 19.181 15.7012 19.198 15.6504C19.2149 15.5827 19.2234 15.5319 19.2234 15.498C19.2064 15.4473 19.1895 15.3965 19.1726 15.3457C19.1557 15.2949 19.1472 15.2526 19.1472 15.2188C19.1472 15.1341 19.1557 15.0495 19.1726 14.9648C19.1895 14.8633 19.2064 14.7702 19.2234 14.6855C19.2572 14.584 19.2741 14.4824 19.2741 14.3809C19.2741 14.2793 19.2911 14.1947 19.3249 14.127C19.4603 13.9238 19.5534 13.7546 19.6042 13.6191C19.6719 13.4668 19.7312 13.3314 19.782 13.2129C19.8497 13.0436 19.9004 12.8743 19.9343 12.7051C19.9851 12.5358 20.0782 12.4004 20.2136 12.2988C20.2305 12.1634 20.2559 12.0534 20.2898 11.9688C20.3405 11.8841 20.3829 11.791 20.4167 11.6895C20.5014 11.5202 20.5606 11.4102 20.5945 11.3594C20.6452 11.3086 20.6876 11.2409 20.7214 11.1562C20.806 11.0208 20.8568 10.9193 20.8738 10.8516C20.8907 10.7669 20.9076 10.7077 20.9245 10.6738C21.0599 10.5384 21.153 10.4199 21.2038 10.3184C21.2715 10.1999 21.3223 10.0983 21.3562 10.0137C21.5254 9.94596 21.6609 9.81055 21.7624 9.60742C21.864 9.59049 21.9317 9.54818 21.9655 9.48047C21.9994 9.39583 22.084 9.36198 22.2195 9.37891C22.2533 9.29427 22.3295 9.22656 22.448 9.17578C22.4818 9.10807 22.5157 9.06576 22.5495 9.04883C22.6003 9.0319 22.6426 8.99805 22.6765 8.94727C22.8119 8.93034 22.9219 8.88802 23.0066 8.82031C23.1081 8.7526 23.2097 8.69336 23.3113 8.64258C23.4128 8.5918 23.5144 8.55794 23.6159 8.54102C23.7344 8.50716 23.8529 8.44792 23.9714 8.36328C24.1238 8.38021 24.2422 8.37174 24.3269 8.33789C24.4115 8.28711 24.4961 8.22786 24.5808 8.16016C24.6993 8.19401 24.8093 8.19401 24.9109 8.16016C25.0293 8.1263 25.1309 8.09245 25.2155 8.05859C25.351 8.00781 25.5118 7.95703 25.698 7.90625C25.9011 7.85547 26.0958 7.81315 26.282 7.7793C26.4174 7.74544 26.5443 7.72005 26.6628 7.70312C26.7982 7.66927 26.9336 7.62695 27.0691 7.57617C27.2045 7.54232 27.2891 7.51693 27.323 7.5C27.3568 7.48307 27.3907 7.47461 27.4245 7.47461C27.4584 7.45768 27.5007 7.45768 27.5515 7.47461C27.6023 7.47461 27.653 7.47461 27.7038 7.47461C27.8392 7.52539 27.9239 7.55078 27.9577 7.55078C27.9916 7.53385 28.0254 7.52539 28.0593 7.52539C28.2286 7.57617 28.3471 7.60156 28.4148 7.60156C28.7025 7.6862 28.9226 7.73698 29.0749 7.75391C29.2273 7.77083 29.3542 7.83008 29.4558 7.93164C29.5743 7.88086 29.7097 7.86393 29.862 7.88086C30.0313 7.89779 30.1836 7.90625 30.3191 7.90625C30.4037 7.90625 30.4629 7.93164 30.4968 7.98242C30.5307 8.0332 30.573 8.06706 30.6238 8.08398C30.8099 8.08398 30.9792 8.10938 31.1316 8.16016C31.2501 8.21094 31.3432 8.23633 31.4109 8.23633C31.4786 8.2194 31.5293 8.2194 31.5632 8.23633C31.614 8.25326 31.6648 8.27865 31.7155 8.3125C31.7833 8.32943 31.834 8.34635 31.8679 8.36328C32.0202 8.41406 32.1557 8.45638 32.2741 8.49023C32.4096 8.50716 32.5196 8.58333 32.6042 8.71875C32.6719 8.71875 32.7142 8.70182 32.7312 8.66797C32.7481 8.61719 32.7989 8.60872 32.8835 8.64258C33.0189 8.71029 33.1713 8.7526 33.3405 8.76953C33.5267 8.78646 33.7045 8.82878 33.8738 8.89648C34.0261 8.98112 34.1192 9.04883 34.153 9.09961C34.2038 9.13346 34.2461 9.15885 34.28 9.17578C34.3646 9.20964 34.4408 9.24349 34.5085 9.27734C34.5932 9.29427 34.6439 9.34505 34.6609 9.42969C34.7455 9.42969 34.8132 9.44661 34.864 9.48047C34.9317 9.4974 34.9909 9.52279 35.0417 9.55664C35.1264 9.60742 35.2025 9.66667 35.2702 9.73438C35.3379 9.80208 35.4141 9.86979 35.4988 9.9375C35.6003 10.056 35.6765 10.1237 35.7273 10.1406C35.795 10.1576 35.8458 10.1745 35.8796 10.1914C35.9304 10.2591 35.9727 10.3268 36.0066 10.3945C36.0404 10.4453 36.0743 10.4961 36.1081 10.5469C36.2435 10.5638 36.3451 10.6061 36.4128 10.6738C36.4805 10.7415 36.5736 10.7923 36.6921 10.8262C36.7767 10.9616 36.8783 11.0801 36.9968 11.1816C37.1153 11.3171 37.183 11.4186 37.1999 11.4863C37.2338 11.5371 37.2676 11.5879 37.3015 11.6387C37.3353 11.6895 37.3607 11.7487 37.3777 11.8164C37.3946 11.8672 37.42 11.9264 37.4538 11.9941C37.5046 12.0788 37.5723 12.1888 37.657 12.3242C37.7416 12.4427 37.767 12.5951 37.7331 12.7812C37.8178 12.832 37.877 12.9082 37.9109 13.0098C37.9447 13.1113 37.9955 13.2129 38.0632 13.3145C38.1478 13.4499 38.1902 13.5514 38.1902 13.6191C38.1902 13.6699 38.1986 13.7122 38.2155 13.7461C38.2494 13.8307 38.2748 13.9323 38.2917 14.0508C38.3256 14.1693 38.351 14.2878 38.3679 14.4062C38.3848 14.4909 38.3848 14.5586 38.3679 14.6094C38.351 14.6602 38.351 14.7109 38.3679 14.7617C38.4017 14.931 38.4441 15.0918 38.4948 15.2441C38.5626 15.3796 38.6387 15.515 38.7234 15.6504C38.7064 15.8535 38.698 16.0397 38.698 16.209C38.7149 16.3783 38.7149 16.5729 38.698 16.793C38.681 17.013 38.6895 17.25 38.7234 17.5039C38.7741 17.7409 38.7911 18.0033 38.7741 18.291ZM36.032 16.5137C36.032 16.429 36.015 16.3444 35.9812 16.2598C35.9642 16.1751 35.9558 16.0905 35.9558 16.0059C35.9558 15.9212 35.9558 15.8451 35.9558 15.7773C35.9727 15.6927 35.9727 15.6081 35.9558 15.5234C35.9389 15.4557 35.9135 15.3965 35.8796 15.3457C35.8458 15.2949 35.8119 15.2357 35.778 15.168C35.7611 15.0833 35.7696 15.0241 35.8034 14.9902C35.8542 14.9564 35.8458 14.9141 35.778 14.8633C35.7273 14.7617 35.6765 14.6432 35.6257 14.5078C35.5918 14.3724 35.558 14.237 35.5241 14.1016C35.4057 13.9831 35.3295 13.9069 35.2956 13.873C35.2618 13.8223 35.2279 13.7715 35.1941 13.7207C35.0925 13.5853 35.0248 13.4922 34.9909 13.4414C34.974 13.3737 34.9486 13.3229 34.9148 13.2891C34.7963 13.1706 34.6609 13.069 34.5085 12.9844C34.3562 12.8828 34.2038 12.7728 34.0515 12.6543C33.9668 12.6035 33.8907 12.5527 33.823 12.502C33.7722 12.4342 33.7045 12.3665 33.6198 12.2988C33.4506 12.1973 33.3405 12.1211 33.2898 12.0703C33.2559 12.0195 33.2221 11.9772 33.1882 11.9434C33.0528 11.8757 32.9004 11.8418 32.7312 11.8418C32.5619 11.8249 32.418 11.7487 32.2995 11.6133C32.0795 11.6471 31.8594 11.6217 31.6394 11.5371C31.4193 11.4355 31.1654 11.3932 30.8777 11.4102C30.8269 11.3932 30.7846 11.3763 30.7507 11.3594C30.7168 11.3255 30.6661 11.2917 30.5984 11.2578C30.4629 11.3086 30.3529 11.3255 30.2683 11.3086C30.1836 11.2747 30.099 11.2409 30.0144 11.207C29.9467 11.1901 29.8874 11.1732 29.8366 11.1562C29.7859 11.1393 29.7351 11.1224 29.6843 11.1055C29.5658 11.0716 29.4473 11.0378 29.3288 11.0039C29.2103 10.9701 29.1003 10.9447 28.9988 10.9277C28.8464 10.9616 28.7195 10.9616 28.6179 10.9277C28.5163 10.8939 28.4232 10.877 28.3386 10.877C28.254 10.877 28.1609 10.8939 28.0593 10.9277C27.9747 10.9447 27.8985 10.9531 27.8308 10.9531C27.5769 10.8854 27.3399 10.8516 27.1198 10.8516C26.9167 10.8346 26.7644 10.8092 26.6628 10.7754C26.5782 10.7415 26.4935 10.7161 26.4089 10.6992C26.3412 10.6823 26.2735 10.6484 26.2058 10.5977C26.155 10.6654 26.1042 10.7077 26.0534 10.7246C26.0196 10.7415 25.9857 10.7669 25.9519 10.8008C25.8334 10.8346 25.7403 10.8939 25.6726 10.9785C25.6049 11.0462 25.5287 11.1055 25.4441 11.1562C25.3594 11.1901 25.2663 11.224 25.1648 11.2578C25.0801 11.2747 24.9955 11.3086 24.9109 11.3594C24.877 11.3932 24.8432 11.4271 24.8093 11.4609C24.7754 11.4948 24.7416 11.5286 24.7077 11.5625C24.6739 11.5964 24.6316 11.6217 24.5808 11.6387C24.53 11.6556 24.4877 11.681 24.4538 11.7148C24.3692 11.7826 24.293 11.8587 24.2253 11.9434C24.1745 12.0111 24.0984 12.0618 23.9968 12.0957C23.9629 12.1803 23.9037 12.265 23.8191 12.3496C23.7514 12.4342 23.6921 12.5189 23.6413 12.6035C23.5736 12.6882 23.5059 12.7728 23.4382 12.8574C23.3874 12.9421 23.3113 13.0013 23.2097 13.0352C23.2097 13.1706 23.1843 13.2806 23.1335 13.3652C23.0827 13.4329 23.0489 13.5345 23.032 13.6699C22.9304 13.8053 22.8627 13.9069 22.8288 13.9746C22.795 14.0423 22.7611 14.1185 22.7273 14.2031C22.6426 14.3893 22.5749 14.5163 22.5241 14.584C22.4903 14.6517 22.4564 14.7194 22.4226 14.7871C22.3549 14.9564 22.2956 15.0749 22.2448 15.1426C22.1771 15.278 22.1264 15.388 22.0925 15.4727C22.0586 15.5404 22.0248 15.6589 21.9909 15.8281C21.9571 15.9974 21.9148 16.1836 21.864 16.3867C21.8301 16.5729 21.8217 16.7253 21.8386 16.8438C21.8047 16.9622 21.7878 17.0553 21.7878 17.123C21.8047 17.1738 21.8047 17.2246 21.7878 17.2754C21.6863 17.6478 21.6439 17.9609 21.6609 18.2148C21.6947 18.4518 21.7286 18.6888 21.7624 18.9258C21.7793 19.112 21.7793 19.2897 21.7624 19.459C21.7455 19.6113 21.754 19.7467 21.7878 19.8652C21.7878 19.9329 21.8047 20.0007 21.8386 20.0684C21.8724 20.1191 21.9063 20.1699 21.9402 20.2207C21.9571 20.3053 21.9655 20.3815 21.9655 20.4492C21.9655 20.5 21.9825 20.5677 22.0163 20.6523C22.084 20.8385 22.1348 20.9993 22.1687 21.1348C22.2025 21.2702 22.2364 21.3633 22.2702 21.4141C22.321 21.4818 22.3718 21.541 22.4226 21.5918C22.4903 21.6257 22.5495 21.6764 22.6003 21.7441C22.6511 21.8118 22.6934 21.8796 22.7273 21.9473C22.7611 22.015 22.8034 22.0911 22.8542 22.1758C22.9558 22.3112 23.015 22.4043 23.032 22.4551C23.0658 22.4889 23.0997 22.5228 23.1335 22.5566C23.1843 22.6243 23.2351 22.6836 23.2859 22.7344C23.3536 22.7682 23.4128 22.819 23.4636 22.8867C23.5144 22.9544 23.5567 23.0306 23.5905 23.1152C23.6413 23.1829 23.6921 23.2591 23.7429 23.3438C23.9968 23.4792 24.2253 23.6315 24.4284 23.8008C24.6316 23.9531 24.8347 24.1309 25.0378 24.334C25.2579 24.3678 25.4695 24.4271 25.6726 24.5117C25.8926 24.5964 26.0958 24.6725 26.282 24.7402C26.3497 24.7572 26.4174 24.7826 26.4851 24.8164C26.5697 24.8333 26.6543 24.8503 26.739 24.8672C26.8067 24.8672 26.8744 24.8587 26.9421 24.8418C27.0098 24.8249 27.086 24.8164 27.1706 24.8164C27.323 24.8333 27.4499 24.8672 27.5515 24.918C27.67 24.9518 27.7969 24.9857 27.9323 25.0195C28.0847 25.0365 28.2286 25.0449 28.364 25.0449C28.4994 25.028 28.6348 25.0534 28.7702 25.1211C28.8549 25.0703 28.9226 25.0449 28.9734 25.0449C29.0411 25.0449 29.1172 25.0534 29.2019 25.0703C29.3711 24.9518 29.5658 24.901 29.7859 24.918C30.0059 24.9349 30.226 24.918 30.446 24.8672C30.5307 24.7995 30.5899 24.7656 30.6238 24.7656C30.6576 24.7656 30.6915 24.7572 30.7253 24.7402C30.8438 24.6895 30.9454 24.6387 31.03 24.5879C31.1146 24.5371 31.2077 24.4948 31.3093 24.4609C31.3601 24.444 31.4193 24.4271 31.487 24.4102C31.5547 24.3932 31.614 24.3763 31.6648 24.3594C31.7494 24.2578 31.8171 24.1986 31.8679 24.1816C31.9187 24.1647 31.961 24.1478 31.9948 24.1309C32.0456 24.097 32.0964 24.0632 32.1472 24.0293C32.198 23.9785 32.2657 23.9616 32.3503 23.9785C32.4011 23.877 32.4688 23.8092 32.5534 23.7754C32.655 23.7246 32.765 23.6823 32.8835 23.6484C32.9174 23.5807 32.9512 23.5384 32.9851 23.5215C33.0189 23.4876 33.0528 23.4538 33.0866 23.4199C33.1713 23.3353 33.239 23.2676 33.2898 23.2168C33.3405 23.166 33.3744 23.1322 33.3913 23.1152C33.5098 22.946 33.6452 22.7852 33.7976 22.6328C33.8145 22.5482 33.8399 22.4974 33.8738 22.4805C33.9245 22.4466 33.9668 22.4128 34.0007 22.3789C34.0176 22.2943 34.043 22.2181 34.0769 22.1504C34.1107 22.0658 34.1446 21.9896 34.1784 21.9219C34.2123 21.8372 34.2461 21.7695 34.28 21.7188C34.3308 21.651 34.3562 21.5664 34.3562 21.4648C34.4408 21.431 34.4916 21.3802 34.5085 21.3125C34.5424 21.2279 34.5762 21.1432 34.6101 21.0586C34.7116 20.8724 34.7793 20.7454 34.8132 20.6777C34.864 20.61 34.9063 20.5508 34.9402 20.5C34.974 20.4323 34.9994 20.3815 35.0163 20.3477C35.0333 20.2969 35.0586 20.2461 35.0925 20.1953C35.1602 20.0091 35.211 19.8906 35.2448 19.8398C35.2787 19.7891 35.3041 19.7467 35.321 19.7129C35.3379 19.6452 35.3379 19.5775 35.321 19.5098C35.321 19.4251 35.3379 19.3405 35.3718 19.2559C35.4057 19.1882 35.4395 19.1289 35.4734 19.0781C35.5241 19.0104 35.558 18.9173 35.5749 18.7988C35.5918 18.7311 35.5834 18.6634 35.5495 18.5957C35.5326 18.5111 35.5326 18.4264 35.5495 18.3418C35.5665 18.2741 35.5918 18.2064 35.6257 18.1387C35.6596 18.071 35.6934 17.9948 35.7273 17.9102C35.7611 17.7917 35.795 17.6732 35.8288 17.5547C35.8796 17.4362 35.8965 17.3516 35.8796 17.3008C35.9135 17.1823 35.9304 17.0977 35.9304 17.0469C35.9304 16.9792 35.9304 16.9284 35.9304 16.8945C35.9473 16.8099 35.9642 16.7422 35.9812 16.6914C36.015 16.6406 36.032 16.5814 36.032 16.5137ZM59.0034 11.207C58.9864 11.3594 58.9526 11.4948 58.9018 11.6133C58.851 11.7148 58.7833 11.8164 58.6987 11.918C58.5802 12.0365 58.5125 12.1296 58.4955 12.1973C58.4786 12.248 58.4532 12.2904 58.4194 12.3242C58.3347 12.4427 58.284 12.5189 58.267 12.5527C58.2501 12.5866 58.2332 12.612 58.2163 12.6289C58.1485 12.6966 58.0978 12.7559 58.0639 12.8066C58.047 12.8574 58.0131 12.8743 57.9623 12.8574C57.9285 13.0098 57.8523 13.179 57.7338 13.3652C57.6153 13.5345 57.463 13.6361 57.2768 13.6699C57.1583 13.6699 57.0398 13.6445 56.9213 13.5938C56.8198 13.526 56.7436 13.4245 56.6928 13.2891C56.6251 13.2721 56.5659 13.2552 56.5151 13.2383C56.4812 13.2214 56.4304 13.196 56.3627 13.1621C56.3458 13.0775 56.3035 13.0352 56.2358 13.0352C56.185 13.0182 56.1596 12.9674 56.1596 12.8828C56.058 12.849 55.9734 12.8066 55.9057 12.7559C55.8549 12.6882 55.7872 12.6289 55.7026 12.5781C55.6349 12.5273 55.5587 12.4681 55.4741 12.4004C55.3894 12.3327 55.3217 12.2396 55.2709 12.1211C55.1355 12.0365 55.0001 11.9518 54.8647 11.8672C54.7293 11.7826 54.5854 11.6979 54.433 11.6133C54.2976 11.5456 54.1453 11.4694 53.976 11.3848C53.8237 11.2832 53.6544 11.224 53.4682 11.207C53.4344 11.1393 53.3751 11.097 53.2905 11.0801C53.2228 11.0462 53.1551 11.0039 53.0873 10.9531C52.9011 10.9362 52.7149 10.9108 52.5288 10.877C52.3595 10.8431 52.1733 10.8092 51.9702 10.7754C51.784 10.8431 51.547 10.8685 51.2592 10.8516C50.9884 10.8177 50.7599 10.7754 50.5737 10.7246C50.5229 10.7246 50.4721 10.7415 50.4213 10.7754C50.3705 10.8092 50.3113 10.8346 50.2436 10.8516C50.1082 10.8516 50.0066 10.86 49.9389 10.877C49.8881 10.8939 49.8458 10.9108 49.812 10.9277C49.7442 10.9447 49.6765 10.9531 49.6088 10.9531C49.5411 10.9362 49.4734 10.9362 49.4057 10.9531C49.3211 10.987 49.2449 11.0208 49.1772 11.0547C49.1095 11.0885 49.0333 11.1055 48.9487 11.1055C48.864 11.1224 48.8133 11.1732 48.7963 11.2578C48.7794 11.3255 48.754 11.3763 48.7202 11.4102C48.517 11.444 48.3478 11.5117 48.2123 11.6133C48.0769 11.7148 47.95 11.8333 47.8315 11.9688C47.5945 12.0872 47.3998 12.1803 47.2475 12.248C47.1121 12.2988 47.0105 12.4004 46.9428 12.5527C46.8413 12.5527 46.7566 12.5781 46.6889 12.6289C46.6381 12.6628 46.5873 12.7051 46.5366 12.7559C46.4858 12.7897 46.435 12.832 46.3842 12.8828C46.3334 12.9167 46.2657 12.9336 46.1811 12.9336C46.1303 13.0182 46.088 13.0944 46.0541 13.1621C46.0203 13.2298 45.978 13.2891 45.9272 13.3398C45.741 13.4414 45.6225 13.5176 45.5717 13.5684C45.5379 13.6022 45.4786 13.653 45.394 13.7207C45.3263 13.7884 45.2755 13.8392 45.2416 13.873C45.2247 13.89 45.1909 13.9323 45.1401 14C45.0893 14.1016 45.0216 14.2285 44.937 14.3809C44.8692 14.5332 44.7846 14.6432 44.683 14.7109C44.6492 14.8802 44.5984 15.0241 44.5307 15.1426C44.463 15.2441 44.3868 15.3457 44.3022 15.4473C44.2683 15.498 44.2599 15.5488 44.2768 15.5996C44.2937 15.6504 44.2853 15.7012 44.2514 15.752C44.2345 15.8197 44.2006 15.8874 44.1498 15.9551C44.0991 16.0228 44.0652 16.0905 44.0483 16.1582C44.0314 16.2428 44.0314 16.3275 44.0483 16.4121C44.0652 16.4798 44.0737 16.5475 44.0737 16.6152C44.0737 16.6829 44.0567 16.7422 44.0229 16.793C44.006 16.8268 43.9975 16.8691 43.9975 16.9199C43.9636 17.123 43.9467 17.3431 43.9467 17.5801C43.9467 17.8171 43.9383 18.0286 43.9213 18.2148C43.9213 18.2826 43.9213 18.3672 43.9213 18.4688C43.9383 18.5534 43.9467 18.638 43.9467 18.7227C43.9636 18.8073 43.9721 18.9004 43.9721 19.002C43.9721 19.0866 43.9721 19.1543 43.9721 19.2051C43.989 19.2728 44.0144 19.332 44.0483 19.3828C44.0821 19.4167 44.1075 19.4674 44.1245 19.5352C44.1583 19.6029 44.1668 19.6706 44.1498 19.7383C44.1498 19.806 44.1837 19.8568 44.2514 19.8906C44.1837 20.043 44.1837 20.1445 44.2514 20.1953C44.336 20.2461 44.3614 20.3477 44.3276 20.5C44.4291 20.6185 44.5138 20.7201 44.5815 20.8047C44.6661 20.8724 44.7169 20.9232 44.7338 20.957C44.8354 21.1094 44.9031 21.2109 44.937 21.2617C44.9877 21.3125 45.0301 21.3717 45.0639 21.4395C45.1316 21.5241 45.2078 21.6257 45.2924 21.7441C45.394 21.8626 45.4871 21.9727 45.5717 22.0742C45.6564 22.1589 45.7156 22.2266 45.7495 22.2773C45.8002 22.3112 45.8595 22.3704 45.9272 22.4551C45.978 22.5397 46.0372 22.599 46.1049 22.6328C46.1726 22.6497 46.2488 22.6921 46.3334 22.7598C46.3673 22.7936 46.4011 22.8359 46.435 22.8867C46.4689 22.9206 46.5281 22.946 46.6127 22.9629C46.6974 23.0475 46.7989 23.1152 46.9174 23.166C47.0528 23.1999 47.1375 23.2845 47.1713 23.4199C47.3575 23.4876 47.5353 23.5723 47.7045 23.6738C47.8738 23.7585 48.0769 23.8346 48.3139 23.9023C48.5509 23.9362 48.7371 23.9616 48.8725 23.9785C49.0248 23.9785 49.1349 23.987 49.2026 24.0039C49.338 24.0208 49.448 24.0293 49.5327 24.0293C49.6342 24.0293 49.7612 24.0208 49.9135 24.0039C50.0997 24.0378 50.2267 24.0462 50.2944 24.0293C50.3621 23.9954 50.4213 23.9785 50.4721 23.9785C50.5229 23.9785 50.5737 23.987 50.6245 24.0039C50.6752 24.0208 50.726 24.0293 50.7768 24.0293C50.9799 24.0462 51.1746 24.0378 51.3608 24.0039C51.5639 23.9701 51.767 23.987 51.9702 24.0547C52.0209 24.0378 52.0633 24.0208 52.0971 24.0039C52.1479 23.9701 52.2071 23.9447 52.2748 23.9277C52.461 23.9785 52.6303 23.9785 52.7827 23.9277C52.9519 23.86 53.0789 23.86 53.1635 23.9277C53.2482 23.9277 53.2989 23.9108 53.3159 23.877C53.3497 23.8431 53.392 23.8177 53.4428 23.8008C53.5274 23.7839 53.5867 23.7923 53.6205 23.8262C53.6544 23.8431 53.7052 23.8516 53.7729 23.8516C53.8575 23.8346 53.9337 23.8008 54.0014 23.75C54.0691 23.6992 54.1453 23.6569 54.2299 23.623C54.2807 23.5892 54.3315 23.5807 54.3823 23.5977C54.45 23.5977 54.5177 23.5892 54.5854 23.5723C54.8054 23.5215 54.9747 23.4792 55.0932 23.4453C55.2286 23.4115 55.3386 23.3945 55.4233 23.3945C55.5926 23.3776 55.7534 23.3691 55.9057 23.3691C56.075 23.3522 56.2104 23.276 56.312 23.1406C56.5997 23.1068 56.8113 23.0729 56.9467 23.0391C57.0821 23.0052 57.2176 22.9798 57.353 22.9629C57.4207 23.0137 57.4461 23.0983 57.4291 23.2168C57.4291 23.3184 57.4884 23.3776 57.6069 23.3945C57.5899 23.4792 57.5899 23.5469 57.6069 23.5977C57.6238 23.6315 57.6407 23.6738 57.6577 23.7246C57.6915 23.8092 57.7338 23.9023 57.7846 24.0039C57.8523 24.0885 57.8946 24.1986 57.9116 24.334C57.9285 24.3848 57.9285 24.4355 57.9116 24.4863C57.8946 24.5202 57.8862 24.5625 57.8862 24.6133C57.9031 24.7826 57.92 24.8841 57.937 24.918C57.9708 24.9518 57.9877 24.9857 57.9877 25.0195C58.0047 25.2057 58.0216 25.3411 58.0385 25.4258C58.0554 25.5104 58.0639 25.5781 58.0639 25.6289C58.047 25.6797 58.0216 25.7389 57.9877 25.8066C57.9539 25.8574 57.937 25.9082 57.937 25.959C57.8015 25.9928 57.6407 26.0267 57.4545 26.0605C57.2853 26.0775 57.1583 26.0352 57.0737 25.9336C56.9383 25.9674 56.8198 26.0098 56.7182 26.0605C56.6336 26.1113 56.5235 26.1706 56.3881 26.2383C56.2527 26.3229 56.1342 26.3737 56.0327 26.3906C55.948 26.4076 55.8634 26.4245 55.7788 26.4414C55.711 26.4753 55.6433 26.5007 55.5756 26.5176C55.5248 26.5345 55.4571 26.543 55.3725 26.543C55.2879 26.6107 55.2032 26.6699 55.1186 26.7207C55.034 26.7715 54.9324 26.8138 54.8139 26.8477C54.6108 26.9323 54.433 26.9746 54.2807 26.9746C54.1284 26.9577 53.9929 26.9661 53.8745 27C53.7898 27.0169 53.7052 27.0339 53.6205 27.0508C53.5528 27.0846 53.4851 27.1185 53.4174 27.1523C53.2651 27.1523 53.1551 27.1439 53.0873 27.127C53.0366 27.127 52.9858 27.1354 52.935 27.1523C52.8504 27.1523 52.7573 27.1354 52.6557 27.1016C52.5711 27.0846 52.4864 27.0846 52.4018 27.1016C52.3341 27.1016 52.2664 27.11 52.1987 27.127C52.131 27.1608 52.0548 27.1862 51.9702 27.2031C51.9194 27.2031 51.8686 27.1947 51.8178 27.1777C51.767 27.1608 51.7078 27.1523 51.6401 27.1523C51.6062 27.1523 51.5554 27.1608 51.4877 27.1777C51.437 27.1947 51.3946 27.1947 51.3608 27.1777C51.1238 27.1777 50.8784 27.1608 50.6245 27.127C50.3875 27.0931 50.1505 27.0931 49.9135 27.127C49.7273 27.0423 49.6004 27 49.5327 27C49.4819 27.0169 49.4226 27.0254 49.3549 27.0254C49.3041 26.9408 49.211 26.9069 49.0756 26.9238C48.9402 26.9408 48.8302 26.9154 48.7455 26.8477C48.6948 26.7969 48.644 26.7715 48.5932 26.7715C48.5424 26.7715 48.5001 26.7715 48.4663 26.7715C48.297 26.6868 48.1785 26.5768 48.1108 26.4414C48.0769 26.4753 48.0261 26.4922 47.9584 26.4922C47.8907 26.4922 47.8315 26.4922 47.7807 26.4922C47.6961 26.4414 47.6284 26.3906 47.5776 26.3398C47.5268 26.2891 47.4591 26.2467 47.3745 26.2129C47.2221 26.196 47.0782 26.179 46.9428 26.1621C46.8074 26.1283 46.7058 26.0352 46.6381 25.8828C46.5704 25.8659 46.5112 25.8574 46.4604 25.8574C46.4096 25.8574 46.3588 25.849 46.308 25.832C46.1557 25.7643 46.0457 25.7305 45.978 25.7305C45.9272 25.7135 45.8764 25.6882 45.8256 25.6543C45.741 25.5866 45.6733 25.5527 45.6225 25.5527C45.5886 25.5358 45.5633 25.5273 45.5463 25.5273C45.2586 25.2904 44.9793 25.0872 44.7084 24.918C44.4545 24.7487 44.2176 24.5879 43.9975 24.4355C43.9298 24.3171 43.8705 24.207 43.8198 24.1055C43.769 24.0039 43.6759 23.9362 43.5405 23.9023C43.5574 23.8346 43.532 23.7923 43.4643 23.7754C43.4135 23.7585 43.3966 23.7077 43.4135 23.623C43.3458 23.5723 43.2866 23.5215 43.2358 23.4707C43.2189 23.4538 43.2104 23.4368 43.2104 23.4199C43.1427 23.3353 43.0665 23.2676 42.9819 23.2168C42.9142 23.166 42.8719 23.1152 42.8549 23.0645C42.8211 22.9798 42.7703 22.8952 42.7026 22.8105C42.6349 22.7259 42.5672 22.6413 42.4995 22.5566C42.2625 22.2689 42.1186 22.015 42.0678 21.7949C41.9832 21.5749 41.907 21.4395 41.8393 21.3887C41.7716 21.321 41.7462 21.2279 41.7631 21.1094C41.7293 21.0586 41.6954 21.0163 41.6616 20.9824C41.6277 20.9316 41.5939 20.8724 41.56 20.8047C41.5769 20.6523 41.56 20.5339 41.5092 20.4492C41.4754 20.3646 41.4246 20.2799 41.3569 20.1953C41.3738 20.1107 41.3907 20.0514 41.4077 20.0176C41.4246 19.9668 41.4246 19.8906 41.4077 19.7891C41.3738 19.7044 41.3315 19.6198 41.2807 19.5352C41.2299 19.4336 41.1876 19.3236 41.1538 19.2051C41.1199 19.1204 41.103 19.0612 41.103 19.0273C41.1199 18.9766 41.1114 18.8835 41.0776 18.748C41.0607 18.6634 41.0353 18.5449 41.0014 18.3926C40.9676 18.2233 40.9591 18.0794 40.976 17.9609C40.9929 17.8763 41.0183 17.8001 41.0522 17.7324C41.086 17.6647 41.1199 17.597 41.1538 17.5293C41.103 17.2415 41.1453 17.0046 41.2807 16.8184C41.1961 16.4121 41.2299 16.0059 41.3823 15.5996C41.433 15.4811 41.4584 15.3626 41.4584 15.2441C41.4754 15.1257 41.5008 15.0241 41.5346 14.9395C41.5346 14.9056 41.5515 14.8548 41.5854 14.7871C41.6362 14.7194 41.6446 14.6263 41.6108 14.5078C41.6446 14.457 41.67 14.4147 41.687 14.3809C41.7208 14.3301 41.7547 14.2793 41.7885 14.2285C41.8224 14.0254 41.8816 13.8307 41.9663 13.6445C42.0678 13.4414 42.1778 13.2467 42.2963 13.0605C42.4656 12.8405 42.5926 12.6374 42.6772 12.4512C42.7618 12.248 42.8549 12.0788 42.9565 11.9434C43.0411 11.8418 43.1342 11.7487 43.2358 11.6641C43.3373 11.5794 43.422 11.4694 43.4897 11.334C43.5913 11.3509 43.659 11.3255 43.6928 11.2578C43.7267 11.1732 43.7859 11.1309 43.8705 11.1309C43.8875 11.0632 43.9467 10.9785 44.0483 10.877C44.1837 10.7077 44.2937 10.5892 44.3784 10.5215C44.463 10.4368 44.5222 10.3522 44.5561 10.2676C44.6577 10.2676 44.7254 10.2337 44.7592 10.166C44.81 10.0983 44.8608 10.0306 44.9116 9.96289C45.0301 9.92904 45.1147 9.87826 45.1655 9.81055C45.2163 9.72591 45.3094 9.67513 45.4448 9.6582C45.4786 9.55664 45.5548 9.50586 45.6733 9.50586C45.8087 9.48893 45.8933 9.42122 45.9272 9.30273C46.0626 9.28581 46.198 9.24349 46.3334 9.17578C46.4689 9.09115 46.6043 9.02344 46.7397 8.97266C46.8074 8.9388 46.8751 8.91341 46.9428 8.89648C47.0105 8.86263 47.0782 8.82878 47.1459 8.79492C47.2983 8.76107 47.3914 8.73568 47.4252 8.71875C47.4591 8.6849 47.4929 8.65951 47.5268 8.64258C47.5945 8.62565 47.6707 8.61719 47.7553 8.61719C47.8399 8.61719 47.9246 8.60872 48.0092 8.5918C48.1108 8.55794 48.2123 8.51562 48.3139 8.46484C48.4155 8.41406 48.517 8.37174 48.6186 8.33789C48.6694 8.32096 48.7286 8.3125 48.7963 8.3125C48.881 8.29557 48.9571 8.27865 49.0248 8.26172C49.0926 8.24479 49.1603 8.22786 49.228 8.21094C49.3126 8.17708 49.4057 8.17708 49.5073 8.21094C49.558 8.21094 49.6088 8.21094 49.6596 8.21094C49.7273 8.21094 49.812 8.19401 49.9135 8.16016C50.0997 8.1263 50.3367 8.08398 50.6245 8.0332C50.9122 7.98242 51.1323 8.02474 51.2846 8.16016C51.3862 8.10938 51.4877 8.06706 51.5893 8.0332C51.6909 7.98242 51.8094 7.99935 51.9448 8.08398C51.9955 8.08398 52.0463 8.07552 52.0971 8.05859C52.1648 8.02474 52.2325 7.99935 52.3002 7.98242C52.351 7.98242 52.3933 7.99935 52.4272 8.0332C52.478 8.05013 52.5372 8.05859 52.6049 8.05859C52.6896 8.07552 52.7573 8.08398 52.808 8.08398C52.8758 8.06706 52.9519 8.06706 53.0366 8.08398C53.1551 8.10091 53.2651 8.1263 53.3666 8.16016C53.4682 8.19401 53.5782 8.22786 53.6967 8.26172C53.7644 8.27865 53.8237 8.28711 53.8745 8.28711C53.9422 8.27018 54.0099 8.27865 54.0776 8.3125C54.1284 8.3125 54.1791 8.32943 54.2299 8.36328C54.2976 8.38021 54.3484 8.38867 54.3823 8.38867C54.433 8.38867 54.4838 8.38021 54.5346 8.36328C54.5854 8.34635 54.6277 8.34635 54.6616 8.36328C54.8139 8.39714 54.9578 8.45638 55.0932 8.54102C55.2286 8.60872 55.381 8.63411 55.5502 8.61719C55.7364 8.78646 55.9565 8.92188 56.2104 9.02344C56.4643 9.125 56.659 9.29427 56.7944 9.53125C56.8452 9.54818 56.8959 9.57357 56.9467 9.60742C56.9975 9.62435 57.0483 9.64128 57.0991 9.6582C57.2176 9.79362 57.336 9.92904 57.4545 10.0645C57.5899 10.1999 57.7508 10.3014 57.937 10.3691C57.9708 10.4538 58.0216 10.5046 58.0893 10.5215C58.1739 10.5215 58.2586 10.5384 58.3432 10.5723C58.4617 10.6738 58.5548 10.7415 58.6225 10.7754C58.7071 10.7923 58.7664 10.8092 58.8002 10.8262C58.8341 10.9108 58.8679 10.9785 58.9018 11.0293C58.9357 11.0801 58.9695 11.1393 59.0034 11.207ZM78.09 26.2383C78.0561 26.3398 77.98 26.3991 77.8615 26.416C77.743 26.4329 77.6668 26.4922 77.633 26.5938C77.4637 26.5599 77.3537 26.5091 77.3029 26.4414C77.2183 26.526 77.1505 26.5768 77.0998 26.5938C77.049 26.5938 77.0067 26.6022 76.9728 26.6191C76.8374 26.6699 76.7358 26.7376 76.6681 26.8223C76.6173 26.8053 76.5666 26.7799 76.5158 26.7461C76.465 26.7122 76.4058 26.6868 76.338 26.6699C76.1518 26.6868 76.0164 26.7038 75.9318 26.7207C75.8472 26.7376 75.771 26.7461 75.7033 26.7461C75.5679 26.7461 75.4494 26.7376 75.3478 26.7207C75.2463 26.6868 75.1278 26.6868 74.9923 26.7207C74.9246 26.7546 74.8485 26.763 74.7638 26.7461C74.6792 26.7292 74.603 26.763 74.5353 26.8477C74.4507 26.8646 74.3999 26.8561 74.383 26.8223C74.366 26.7884 74.3153 26.7799 74.2306 26.7969C74.146 26.8477 74.0444 26.89 73.9259 26.9238C73.8244 26.9408 73.7143 26.9661 73.5959 27C73.4943 26.9661 73.4181 26.9069 73.3673 26.8223C73.3335 26.7207 73.2742 26.6361 73.1896 26.5684C73.2065 26.4837 73.2065 26.3991 73.1896 26.3145C73.1896 26.2298 73.2065 26.1706 73.2404 26.1367C73.1896 26.0859 73.1642 26.0352 73.1642 25.9844C73.1642 25.9167 73.1558 25.8405 73.1388 25.7559C73.0711 25.6204 73.0288 25.5104 73.0119 25.4258C72.978 25.2565 72.9357 25.1211 72.8849 25.0195C72.8341 24.918 72.8257 24.8249 72.8595 24.7402C72.7749 24.6556 72.7241 24.5625 72.7072 24.4609C72.6903 24.3424 72.6564 24.1986 72.6056 24.0293C72.5548 23.9447 72.5295 23.8854 72.5295 23.8516C72.5464 23.8008 72.5464 23.7585 72.5295 23.7246C72.4448 23.5384 72.4025 23.4115 72.4025 23.3438C72.4025 23.276 72.394 23.2083 72.3771 23.1406C72.3094 22.9883 72.2586 22.8613 72.2248 22.7598C72.2078 22.6582 72.1824 22.5651 72.1486 22.4805C72.1147 22.4297 72.0809 22.3874 72.047 22.3535C72.0132 22.3027 71.9793 22.2435 71.9455 22.1758C71.9116 22.1081 71.8947 22.0404 71.8947 21.9727C71.8947 21.888 71.8778 21.8118 71.8439 21.7441C71.8101 21.6764 71.7762 21.6172 71.7423 21.5664C71.7254 21.5156 71.7085 21.4648 71.6916 21.4141C71.6577 21.3125 71.6323 21.2109 71.6154 21.1094C71.6154 20.9909 71.5815 20.8893 71.5138 20.8047C71.4123 20.7708 71.3107 20.7708 71.2091 20.8047C71.1076 20.8385 71.0145 20.8639 70.9298 20.8809C70.8791 20.8809 70.8198 20.8809 70.7521 20.8809C70.7013 20.8639 70.6505 20.8639 70.5998 20.8809C70.4813 20.8978 70.3713 20.9232 70.2697 20.957C70.1851 20.974 70.092 20.9655 69.9904 20.9316C69.9227 20.9316 69.8634 20.9401 69.8127 20.957C69.7788 20.974 69.7196 20.9824 69.6349 20.9824C69.5841 20.9486 69.491 20.9401 69.3556 20.957C69.2371 20.957 69.1271 20.957 69.0255 20.957C68.9071 20.974 68.7886 20.9909 68.6701 21.0078C68.5516 21.0247 68.4585 21.0163 68.3908 20.9824C68.2046 20.9655 68.0776 20.9486 68.0099 20.9316C67.9422 20.9147 67.883 20.9062 67.8322 20.9062C67.6968 20.8893 67.5698 20.8893 67.4513 20.9062C67.3328 20.9232 67.2059 20.9147 67.0705 20.8809C67.0197 20.9147 66.9604 20.9401 66.8927 20.957C66.825 20.974 66.7742 21.0078 66.7404 21.0586C66.5542 21.0247 66.3934 21.0247 66.258 21.0586C66.1395 21.0924 65.9871 21.1009 65.8009 21.084C65.6655 21.1855 65.5978 21.304 65.5978 21.4395C65.5978 21.5749 65.5809 21.7103 65.547 21.8457C65.5132 21.9811 65.4624 22.1081 65.3947 22.2266C65.327 22.3281 65.2593 22.4382 65.1916 22.5566C65.1577 22.6413 65.1239 22.7259 65.09 22.8105C65.0561 22.8952 65.0138 22.9798 64.963 23.0645C64.9292 23.1491 64.9038 23.2083 64.8869 23.2422C64.8699 23.276 64.853 23.3099 64.8361 23.3438C64.8192 23.3776 64.8022 23.3945 64.7853 23.3945C64.7684 23.5299 64.743 23.623 64.7091 23.6738C64.6753 23.7077 64.6584 23.7415 64.6584 23.7754C64.6245 23.86 64.6076 23.9362 64.6076 24.0039C64.6245 24.0716 64.6245 24.1478 64.6076 24.2324C64.5737 24.3509 64.5229 24.4525 64.4552 24.5371C64.4045 24.6217 64.3791 24.7318 64.3791 24.8672C64.2436 24.9688 64.1421 25.1126 64.0744 25.2988C64.0067 25.4681 63.9051 25.612 63.7697 25.7305C63.7528 25.8828 63.7189 26.0267 63.6681 26.1621C63.6173 26.2975 63.5581 26.4329 63.4904 26.5684C63.4396 26.6868 63.3973 26.8223 63.3634 26.9746C63.3296 27.11 63.3127 27.2708 63.3127 27.457C63.2619 27.4909 63.1772 27.5332 63.0588 27.584C62.9403 27.6517 62.8387 27.6602 62.7541 27.6094C62.6017 27.5247 62.4663 27.4655 62.3478 27.4316C62.2463 27.3978 62.1532 27.3555 62.0685 27.3047C62.0347 27.2878 61.9416 27.2708 61.7892 27.2539C61.6369 27.2539 61.5184 27.2539 61.4338 27.2539C61.3153 27.2708 61.2306 27.2708 61.1798 27.2539C61.1291 27.237 61.0783 27.2201 61.0275 27.2031C60.9598 27.2031 60.8921 27.2031 60.8244 27.2031C60.7736 27.2201 60.7059 27.2201 60.6213 27.2031C60.4181 27.1693 60.2235 27.1016 60.0373 27C59.8511 26.9154 59.6733 26.8477 59.5041 26.7969C59.5041 26.7122 59.5125 26.6445 59.5295 26.5938C59.5464 26.526 59.5718 26.4499 59.6056 26.3652C59.6395 26.2806 59.6818 26.2298 59.7326 26.2129C59.7834 26.179 59.8003 26.1283 59.7834 26.0605C59.8341 25.9251 59.8934 25.7897 59.9611 25.6543C60.0119 25.5189 60.0711 25.3835 60.1388 25.248C60.2065 25.0788 60.2573 24.9772 60.2912 24.9434C60.325 24.8926 60.3589 24.8503 60.3927 24.8164C60.4604 24.6471 60.5028 24.5371 60.5197 24.4863C60.5535 24.4186 60.5789 24.3678 60.5959 24.334C60.6297 24.2493 60.6551 24.1816 60.672 24.1309C60.689 24.0801 60.7313 24.0124 60.799 23.9277L61.0275 23.623C61.0783 23.4538 61.1291 23.3353 61.1798 23.2676C61.2306 23.1829 61.2729 23.1152 61.3068 23.0645C61.3914 22.9629 61.4591 22.8613 61.5099 22.7598C61.5607 22.6413 61.6199 22.5143 61.6877 22.3789C61.7554 22.2943 61.8146 22.2181 61.8654 22.1504C61.9162 22.0658 61.9585 21.9727 61.9923 21.8711C62.0262 21.7526 62.0516 21.6849 62.0685 21.668C62.0854 21.6341 62.1024 21.6003 62.1193 21.5664C62.1362 21.4648 62.1447 21.4056 62.1447 21.3887C62.1616 21.3548 62.1785 21.321 62.1955 21.2871C62.2801 21.1517 62.3478 20.9993 62.3986 20.8301C62.4663 20.6608 62.5425 20.5085 62.6271 20.373C62.661 20.2884 62.7117 20.2122 62.7795 20.1445C62.8641 20.0768 62.9064 19.9837 62.9064 19.8652C62.991 19.8145 63.0503 19.7467 63.0841 19.6621C63.118 19.5605 63.1603 19.4674 63.2111 19.3828C63.2449 19.2982 63.2873 19.222 63.338 19.1543C63.4058 19.0866 63.465 19.0104 63.5158 18.9258C63.5496 18.8411 63.5835 18.7565 63.6173 18.6719C63.6681 18.5703 63.7189 18.4772 63.7697 18.3926C63.8035 18.3079 63.8459 18.2318 63.8966 18.1641C63.9474 18.0794 64.0236 18.0202 64.1252 17.9863C64.0913 17.9017 64.0913 17.8171 64.1252 17.7324C64.1759 17.6309 64.2183 17.5378 64.2521 17.4531C64.286 17.3854 64.3283 17.3262 64.3791 17.2754C64.4298 17.2077 64.4722 17.14 64.506 17.0723L64.633 16.8184C64.7007 16.6491 64.7515 16.5475 64.7853 16.5137C64.8361 16.4629 64.8699 16.4206 64.8869 16.3867C64.9207 16.3359 64.9292 16.2852 64.9123 16.2344C64.9123 16.1836 64.9207 16.1413 64.9377 16.1074C65.0392 16.0397 65.1154 15.9551 65.1662 15.8535C65.217 15.752 65.2762 15.6419 65.3439 15.5234C65.3947 15.4388 65.4455 15.3372 65.4963 15.2188C65.547 15.0833 65.6147 14.9648 65.6994 14.8633C65.6824 14.7786 65.6909 14.7109 65.7248 14.6602C65.7586 14.5924 65.7925 14.5163 65.8263 14.4316C65.8602 14.3809 65.8856 14.3301 65.9025 14.2793C65.9364 14.2116 65.9702 14.1523 66.0041 14.1016C66.1226 13.9492 66.1903 13.8138 66.2072 13.6953C66.241 13.5768 66.2749 13.4668 66.3088 13.3652C66.3426 13.2806 66.3765 13.2129 66.4103 13.1621C66.4611 13.1113 66.5034 13.0521 66.5373 12.9844C66.5711 12.9167 66.5965 12.849 66.6134 12.7812C66.6304 12.7135 66.6727 12.6628 66.7404 12.6289C66.7573 12.4596 66.7912 12.3158 66.842 12.1973C66.9097 12.0788 66.9689 11.9518 67.0197 11.8164C67.0705 11.6979 67.1636 11.5794 67.299 11.4609C67.3159 11.3594 67.3244 11.2578 67.3244 11.1562C67.3244 11.0547 67.3413 10.9616 67.3752 10.877C67.409 10.7923 67.4513 10.7246 67.5021 10.6738C67.5529 10.623 67.5952 10.5638 67.6291 10.4961C67.6968 10.276 67.7476 10.0983 67.7814 9.96289C67.8322 9.81055 67.883 9.66667 67.9338 9.53125C67.9845 9.41276 68.0353 9.27734 68.0861 9.125C68.1369 8.95573 68.1877 8.80339 68.2384 8.66797C68.2892 8.56641 68.3315 8.47331 68.3654 8.38867C68.4162 8.28711 68.4585 8.18555 68.4923 8.08398C68.6616 7.99935 68.7886 7.88086 68.8732 7.72852C68.9578 7.57617 69.0255 7.4069 69.0763 7.2207C69.1779 7.18685 69.2456 7.17839 69.2795 7.19531C69.3302 7.19531 69.381 7.19531 69.4318 7.19531C69.6011 7.22917 69.7026 7.28841 69.7365 7.37305C69.7703 7.45768 69.8211 7.53385 69.8888 7.60156C69.9735 7.70312 70.0327 7.79622 70.0666 7.88086C70.1173 7.94857 70.1597 8.01628 70.1935 8.08398C70.2612 8.15169 70.3289 8.24479 70.3966 8.36328C70.4813 8.48177 70.5405 8.60026 70.5744 8.71875C70.6082 8.78646 70.6421 8.86263 70.6759 8.94727C70.7098 9.0319 70.7436 9.11654 70.7775 9.20117C70.8283 9.28581 70.8706 9.37891 70.9045 9.48047C70.9552 9.58203 71.006 9.69206 71.0568 9.81055C71.1076 9.94596 71.1584 10.1068 71.2091 10.293C71.2768 10.4622 71.3361 10.6315 71.3869 10.8008C71.4207 10.8854 71.4377 10.9616 71.4377 11.0293C71.4546 11.097 71.48 11.1647 71.5138 11.2324C71.5477 11.3171 71.5731 11.3848 71.59 11.4355C71.6239 11.4863 71.6577 11.5371 71.6916 11.5879C71.7593 11.7402 71.827 11.9095 71.8947 12.0957C71.9793 12.265 72.064 12.4427 72.1486 12.6289C72.1824 12.6797 72.2078 12.7305 72.2248 12.7812C72.2586 12.832 72.2925 12.8913 72.3263 12.959C72.3602 12.9928 72.3856 13.0352 72.4025 13.0859C72.4364 13.1367 72.4702 13.1875 72.5041 13.2383C72.5379 13.2891 72.5633 13.3483 72.5802 13.416C72.6141 13.4837 72.6564 13.543 72.7072 13.5938C72.758 13.6953 72.8003 13.7884 72.8341 13.873C72.8849 13.9408 72.9272 14.0423 72.9611 14.1777C72.9949 14.2793 73.0288 14.4062 73.0627 14.5586C73.1134 14.7109 73.1473 14.8548 73.1642 14.9902C73.2489 15.1426 73.325 15.3203 73.3927 15.5234C73.4774 15.7096 73.5535 15.8958 73.6213 16.082C73.672 16.1328 73.7143 16.1836 73.7482 16.2344C73.799 16.2682 73.8498 16.319 73.9005 16.3867C73.9344 16.4714 73.9683 16.5306 74.0021 16.5645C74.036 16.5983 74.0614 16.6322 74.0783 16.666C74.146 16.8184 74.1968 16.9707 74.2306 17.123C74.2814 17.2585 74.3237 17.3939 74.3576 17.5293C74.3914 17.6139 74.4338 17.6986 74.4845 17.7832C74.5353 17.8678 74.5607 17.9694 74.5607 18.0879C74.6623 18.2233 74.7384 18.3503 74.7892 18.4688C74.84 18.5703 74.8823 18.6634 74.9162 18.748C75.0008 18.8835 75.0601 18.985 75.0939 19.0527C75.1278 19.1035 75.1616 19.1628 75.1955 19.2305C75.314 19.3828 75.4071 19.5436 75.4748 19.7129C75.5086 19.7806 75.5255 19.8568 75.5255 19.9414C75.5425 20.0091 75.5679 20.0684 75.6017 20.1191C75.6356 20.2376 75.6779 20.3561 75.7287 20.4746C75.7795 20.5762 75.8218 20.6947 75.8556 20.8301C75.9403 20.8978 75.9995 20.974 76.0334 21.0586C76.0841 21.1432 76.1265 21.2279 76.1603 21.3125C76.1942 21.3633 76.228 21.4395 76.2619 21.541C76.2957 21.6257 76.3296 21.7103 76.3634 21.7949C76.4142 21.9303 76.4819 22.0658 76.5666 22.2012C76.6512 22.3366 76.7104 22.472 76.7443 22.6074C76.7782 22.6921 76.812 22.7767 76.8459 22.8613C76.8966 22.946 76.939 23.0306 76.9728 23.1152C77.0067 23.1999 77.0151 23.276 76.9982 23.3438C76.9982 23.3945 77.0151 23.4453 77.049 23.4961C77.0828 23.5807 77.1336 23.6908 77.2013 23.8262C77.3029 24.1647 77.4214 24.5202 77.5568 24.8926C77.6414 25.1126 77.7345 25.3327 77.8361 25.5527C77.9546 25.7728 78.0392 26.0013 78.09 26.2383ZM71.2599 18.5957C71.2938 18.528 71.3022 18.4603 71.2853 18.3926C71.2684 18.3249 71.2515 18.2487 71.2345 18.1641C71.2176 18.0964 71.2007 18.0202 71.1838 17.9355C71.1838 17.8509 71.1668 17.7747 71.133 17.707C71.0991 17.6393 71.0568 17.5885 71.006 17.5547C70.9722 17.5039 70.9468 17.4531 70.9298 17.4023C70.896 17.1654 70.8621 16.9622 70.8283 16.793C70.8114 16.6068 70.786 16.4206 70.7521 16.2344C70.6675 16.1667 70.5998 16.082 70.549 15.9805C70.4474 15.8451 70.3797 15.735 70.3459 15.6504C70.3289 15.5488 70.312 15.4557 70.2951 15.3711C70.2612 15.2357 70.2274 15.1257 70.1935 15.041C70.1597 14.9395 70.1258 14.8464 70.092 14.7617C70.0581 14.6263 70.0327 14.5078 70.0158 14.4062C69.9989 14.3047 69.9735 14.2031 69.9396 14.1016C69.9227 14.0508 69.9058 14.0085 69.8888 13.9746C69.8719 13.9238 69.855 13.873 69.838 13.8223C69.8042 13.7207 69.7703 13.6107 69.7365 13.4922C69.7026 13.3737 69.6434 13.2975 69.5588 13.2637C69.3895 13.3314 69.2964 13.4329 69.2795 13.5684C69.2287 13.7546 69.1694 13.8815 69.1017 13.9492C69.034 14.0169 68.9917 14.0677 68.9748 14.1016C68.9409 14.2878 68.9071 14.4232 68.8732 14.5078C68.8563 14.5755 68.8309 14.6517 68.797 14.7363C68.7632 14.821 68.7293 14.8971 68.6955 14.9648C68.6785 15.0326 68.6532 15.1003 68.6193 15.168C68.5854 15.2188 68.5516 15.2695 68.5177 15.3203C68.5008 15.3711 68.4839 15.4134 68.467 15.4473C68.3146 15.735 68.1792 15.9889 68.0607 16.209C67.9422 16.4121 67.8407 16.6237 67.756 16.8438C67.7222 16.9284 67.6968 17.013 67.6798 17.0977C67.6629 17.1654 67.6375 17.2415 67.6037 17.3262C67.5698 17.3939 67.5275 17.4531 67.4767 17.5039C67.4259 17.5547 67.3836 17.6224 67.3498 17.707C67.3328 17.7578 67.3244 17.8086 67.3244 17.8594C67.3413 17.8932 67.3413 17.944 67.3244 18.0117C67.2059 18.1979 67.1297 18.3503 67.0959 18.4688C67.0789 18.5703 67.0535 18.6634 67.0197 18.748C67.2059 18.8327 67.3921 18.875 67.5783 18.875C67.7814 18.8581 67.9761 18.8496 68.1623 18.8496C68.4839 18.8327 68.814 18.8158 69.1525 18.7988C69.491 18.765 69.7788 18.7227 70.0158 18.6719C70.2189 18.638 70.4305 18.638 70.6505 18.6719C70.8706 18.7057 71.0737 18.6803 71.2599 18.5957ZM127.776 21.6172C127.776 21.7188 127.759 21.8372 127.726 21.9727C127.709 22.0911 127.683 22.2181 127.649 22.3535C127.616 22.4889 127.582 22.5905 127.548 22.6582C127.531 22.709 127.522 22.7682 127.522 22.8359C127.539 22.9036 127.539 22.9544 127.522 22.9883C127.489 23.0729 127.446 23.1576 127.396 23.2422C127.362 23.3268 127.328 23.4115 127.294 23.4961C127.26 23.5807 127.226 23.6738 127.192 23.7754C127.175 23.86 127.15 23.9362 127.116 24.0039C127.082 24.0547 127.032 24.097 126.964 24.1309C126.913 24.1647 126.896 24.224 126.913 24.3086C126.744 24.3763 126.608 24.4525 126.507 24.5371C126.422 24.6048 126.355 24.6725 126.304 24.7402C126.253 24.8079 126.185 24.8757 126.101 24.9434C126.067 24.9772 126.016 25.0111 125.948 25.0449C125.881 25.0788 125.813 25.1126 125.745 25.1465C125.61 25.2311 125.508 25.2988 125.44 25.3496C125.39 25.3835 125.347 25.4173 125.314 25.4512C125.28 25.4681 125.229 25.4766 125.161 25.4766C125.11 25.4766 125.068 25.4935 125.034 25.5273C124.916 25.612 124.789 25.6797 124.653 25.7305C124.535 25.7643 124.433 25.8236 124.349 25.9082C124.281 25.9251 124.222 25.9251 124.171 25.9082C124.12 25.8913 124.069 25.8913 124.019 25.9082C123.849 25.959 123.739 26.0013 123.689 26.0352C123.655 26.0521 123.612 26.069 123.562 26.0859C123.46 26.1198 123.375 26.1452 123.308 26.1621C123.257 26.1621 123.198 26.179 123.13 26.2129C122.927 26.2806 122.758 26.3145 122.622 26.3145C122.487 26.3145 122.36 26.3314 122.241 26.3652C122.157 26.3991 122.089 26.416 122.038 26.416C122.004 26.416 121.97 26.4245 121.937 26.4414C121.903 26.4414 121.852 26.4583 121.784 26.4922C121.733 26.5091 121.691 26.526 121.657 26.543C121.522 26.5091 121.403 26.5007 121.302 26.5176C121.217 26.5176 121.133 26.5176 121.048 26.5176C120.929 26.5176 120.794 26.526 120.642 26.543C120.489 26.5599 120.345 26.5768 120.21 26.5938C120.108 26.5938 119.998 26.5853 119.88 26.5684C119.778 26.5514 119.668 26.5514 119.55 26.5684C119.431 26.5853 119.296 26.6107 119.144 26.6445C119.008 26.6784 118.881 26.6361 118.763 26.5176C118.661 26.5853 118.551 26.6022 118.433 26.5684C118.331 26.5345 118.221 26.526 118.103 26.543C117.984 26.5599 117.874 26.6022 117.772 26.6699C117.688 26.7376 117.578 26.7546 117.442 26.7207C117.324 26.8223 117.231 26.8815 117.163 26.8984C117.095 26.8984 117.045 26.9069 117.011 26.9238C116.875 26.9746 116.731 27.0339 116.579 27.1016C116.444 27.1693 116.283 27.1439 116.097 27.0254C115.978 27.0762 115.826 27.0846 115.64 27.0508C115.538 26.9492 115.428 26.7969 115.31 26.5938C115.31 26.4583 115.335 26.3398 115.386 26.2383C115.437 26.1198 115.462 26.0013 115.462 25.8828C115.462 25.7812 115.437 25.6882 115.386 25.6035C115.352 25.5189 115.327 25.4258 115.31 25.3242C115.293 25.2396 115.284 25.1634 115.284 25.0957C115.301 25.0111 115.31 24.9264 115.31 24.8418C115.31 24.7572 115.301 24.681 115.284 24.6133C115.267 24.5456 115.25 24.4694 115.233 24.3848C115.217 24.2493 115.208 24.1309 115.208 24.0293C115.208 23.9108 115.225 23.7839 115.259 23.6484C115.276 23.5807 115.276 23.4961 115.259 23.3945C115.259 23.276 115.293 23.1491 115.36 23.0137C115.343 22.9629 115.327 22.9121 115.31 22.8613C115.293 22.7936 115.284 22.7259 115.284 22.6582C115.284 22.5736 115.293 22.4889 115.31 22.4043C115.343 22.3197 115.36 22.235 115.36 22.1504C115.377 22.0658 115.377 21.9727 115.36 21.8711C115.343 21.7695 115.335 21.668 115.335 21.5664C115.352 21.4818 115.36 21.4056 115.36 21.3379C115.377 21.2533 115.386 21.1771 115.386 21.1094C115.403 21.0586 115.411 20.9993 115.411 20.9316C115.411 20.8639 115.437 20.8216 115.487 20.8047C115.453 20.737 115.428 20.6862 115.411 20.6523C115.411 20.6016 115.411 20.5423 115.411 20.4746V20.1445C115.411 20.0768 115.42 20.0176 115.437 19.9668C115.47 19.916 115.496 19.8568 115.513 19.7891C115.513 19.7552 115.504 19.7129 115.487 19.6621C115.47 19.6113 115.462 19.5605 115.462 19.5098C115.496 19.3743 115.504 19.2812 115.487 19.2305C115.47 19.1628 115.47 19.1035 115.487 19.0527V18.418C115.487 18.3503 115.496 18.2826 115.513 18.2148C115.53 18.1471 115.538 18.0794 115.538 18.0117C115.538 17.944 115.521 17.8763 115.487 17.8086C115.47 17.7409 115.462 17.6732 115.462 17.6055C115.462 17.3516 115.47 17.0892 115.487 16.8184C115.521 16.5475 115.496 16.2852 115.411 16.0312C115.496 15.9635 115.521 15.8874 115.487 15.8027C115.47 15.7181 115.462 15.6335 115.462 15.5488C115.479 15.515 115.487 15.4642 115.487 15.3965C115.487 15.3118 115.487 15.2272 115.487 15.1426C115.453 14.9395 115.437 14.7109 115.437 14.457C115.453 14.2031 115.479 13.9323 115.513 13.6445C115.547 13.4753 115.547 13.3652 115.513 13.3145C115.496 13.2637 115.487 13.2129 115.487 13.1621C115.47 13.1113 115.462 13.0605 115.462 13.0098C115.479 12.959 115.487 12.9167 115.487 12.8828C115.47 12.7474 115.445 12.6035 115.411 12.4512C115.394 12.2988 115.428 12.1296 115.513 11.9434C115.462 11.9095 115.437 11.8587 115.437 11.791C115.453 11.7233 115.453 11.6556 115.437 11.5879C115.42 11.5202 115.394 11.4609 115.36 11.4102C115.343 11.3594 115.327 11.3001 115.31 11.2324C115.343 11.0124 115.343 10.8262 115.31 10.6738C115.276 10.5215 115.301 10.403 115.386 10.3184C115.352 10.2337 115.318 10.1745 115.284 10.1406C115.25 10.1068 115.233 10.0475 115.233 9.96289C115.25 9.87826 115.25 9.77669 115.233 9.6582C115.217 9.53971 115.233 9.45508 115.284 9.4043C115.25 9.33659 115.208 9.27734 115.157 9.22656C115.106 9.17578 115.098 9.08268 115.132 8.94727C115.098 8.87956 115.03 8.78646 114.929 8.66797C114.844 8.54948 114.861 8.43945 114.98 8.33789C115.047 8.25326 115.149 8.19401 115.284 8.16016C115.437 8.1263 115.589 8.10938 115.741 8.10938C115.894 8.09245 116.037 8.08398 116.173 8.08398C116.325 8.08398 116.444 8.07552 116.528 8.05859C116.664 8.00781 116.765 7.96549 116.833 7.93164C116.918 7.88086 117.053 7.84701 117.239 7.83008C117.307 7.83008 117.358 7.83008 117.392 7.83008C117.442 7.81315 117.502 7.80469 117.569 7.80469C117.62 7.80469 117.679 7.81315 117.747 7.83008C117.815 7.84701 117.866 7.85547 117.899 7.85547C117.95 7.85547 118.001 7.84701 118.052 7.83008C118.103 7.79622 118.145 7.7793 118.179 7.7793C118.263 7.7793 118.373 7.79622 118.509 7.83008H119.194C119.33 7.83008 119.414 7.82161 119.448 7.80469C119.482 7.78776 119.499 7.78776 119.499 7.80469C119.533 7.85547 119.592 7.86393 119.677 7.83008C119.761 7.79622 119.846 7.7793 119.931 7.7793C120.134 7.76237 120.354 7.75391 120.591 7.75391C120.845 7.75391 121.082 7.77083 121.302 7.80469C121.539 7.83854 121.708 7.8724 121.81 7.90625C121.928 7.92318 122.047 7.98242 122.165 8.08398C122.504 8.10091 122.817 8.17708 123.105 8.3125C123.392 8.43099 123.655 8.55794 123.892 8.69336C123.993 8.76107 124.061 8.81185 124.095 8.8457C124.146 8.87956 124.213 8.9388 124.298 9.02344C124.332 9.05729 124.366 9.09961 124.399 9.15039C124.45 9.20117 124.493 9.24349 124.526 9.27734C124.56 9.3112 124.577 9.36198 124.577 9.42969C124.594 9.48047 124.62 9.52279 124.653 9.55664C124.755 9.6582 124.806 9.72591 124.806 9.75977C124.823 9.77669 124.831 9.79362 124.831 9.81055C124.933 9.94596 124.992 10.0475 125.009 10.1152C125.043 10.1829 125.077 10.2591 125.11 10.3438C125.195 10.4284 125.263 10.5215 125.314 10.623C125.364 10.7246 125.432 10.8177 125.517 10.9023C125.5 11.0039 125.5 11.097 125.517 11.1816C125.534 11.2663 125.55 11.3509 125.567 11.4355C125.601 11.5202 125.627 11.5964 125.644 11.6641C125.677 11.7148 125.711 11.7741 125.745 11.8418C125.745 11.8926 125.745 11.9518 125.745 12.0195C125.745 12.0703 125.754 12.1211 125.771 12.1719C125.821 12.4596 125.804 12.7305 125.72 12.9844C125.686 13.0352 125.652 13.0859 125.618 13.1367C125.601 13.1706 125.576 13.2129 125.542 13.2637C125.508 13.3314 125.491 13.3991 125.491 13.4668C125.491 13.5345 125.474 13.5938 125.44 13.6445C125.407 13.7292 125.356 13.8223 125.288 13.9238C125.22 14.0085 125.161 14.0931 125.11 14.1777C125.077 14.2285 125.043 14.2793 125.009 14.3301C124.992 14.3639 124.967 14.4062 124.933 14.457C124.899 14.5247 124.848 14.6009 124.78 14.6855C124.73 14.7533 124.679 14.821 124.628 14.8887C124.577 14.9564 124.526 15.0241 124.476 15.0918C124.425 15.1426 124.357 15.1934 124.272 15.2441C124.137 15.3457 124.052 15.4303 124.019 15.498C123.985 15.5488 123.959 15.5827 123.942 15.5996C123.909 15.752 123.925 15.8451 123.993 15.8789C124.061 15.8958 124.112 15.9128 124.146 15.9297C124.213 15.9466 124.272 15.9551 124.323 15.9551C124.391 15.9382 124.45 15.9466 124.501 15.9805C124.62 16.0143 124.721 16.0736 124.806 16.1582C124.89 16.2428 124.975 16.319 125.06 16.3867C125.263 16.5729 125.424 16.7168 125.542 16.8184C125.661 16.9199 125.787 17.013 125.923 17.0977C126.024 17.2669 126.134 17.4108 126.253 17.5293C126.388 17.6478 126.49 17.8001 126.558 17.9863C126.659 18.0879 126.727 18.181 126.761 18.2656C126.795 18.3333 126.845 18.3926 126.913 18.4434C126.93 18.4772 126.947 18.5195 126.964 18.5703C126.998 18.6211 127.032 18.6634 127.065 18.6973C127.15 18.7988 127.218 18.9342 127.269 19.1035C127.336 19.2559 127.404 19.4082 127.472 19.5605C127.506 19.6452 127.522 19.7298 127.522 19.8145C127.522 19.8991 127.539 20.0176 127.573 20.1699C127.607 20.3392 127.658 20.5592 127.726 20.8301C127.793 21.1009 127.81 21.3633 127.776 21.6172ZM122.394 12.7812C122.326 12.6797 122.3 12.5443 122.317 12.375C122.334 12.2057 122.326 12.0449 122.292 11.8926C122.241 11.8079 122.216 11.7487 122.216 11.7148C122.233 11.681 122.233 11.6471 122.216 11.6133C122.148 11.5117 122.106 11.4525 122.089 11.4355C122.089 11.4017 122.08 11.3594 122.064 11.3086C121.928 11.2409 121.827 11.1562 121.759 11.0547C121.691 10.9362 121.606 10.8346 121.505 10.75C121.386 10.7161 121.319 10.6823 121.302 10.6484C121.285 10.6146 121.259 10.5892 121.226 10.5723C121.039 10.5384 120.87 10.5215 120.718 10.5215C120.582 10.5046 120.447 10.4876 120.312 10.4707C120.176 10.4538 120.041 10.4368 119.905 10.4199C119.77 10.403 119.634 10.403 119.499 10.4199C119.33 10.4538 119.211 10.4707 119.144 10.4707C119.093 10.4538 119.05 10.4453 119.017 10.4453C118.797 10.5299 118.619 10.5723 118.483 10.5723C118.348 10.5723 118.213 10.5892 118.077 10.623C118.043 10.7415 118.035 10.86 118.052 10.9785C118.086 11.097 118.103 11.224 118.103 11.3594C118.12 11.4271 118.12 11.4863 118.103 11.5371C118.103 11.5879 118.103 11.6471 118.103 11.7148C118.103 11.7995 118.111 11.8841 118.128 11.9688C118.162 12.0534 118.179 12.138 118.179 12.2227C118.179 12.3073 118.17 12.3919 118.153 12.4766C118.136 12.5612 118.128 12.6458 118.128 12.7305C118.111 12.832 118.111 12.9421 118.128 13.0605C118.145 13.179 118.153 13.2637 118.153 13.3145C118.136 13.5007 118.136 13.6361 118.153 13.7207C118.187 13.7884 118.221 13.8646 118.255 13.9492C118.17 14.1693 118.162 14.3978 118.23 14.6348C118.297 14.8548 118.365 15.0579 118.433 15.2441C118.517 15.2272 118.602 15.2018 118.687 15.168C118.788 15.1341 118.881 15.1087 118.966 15.0918C119.101 15.0579 119.228 15.0495 119.347 15.0664C119.482 15.0833 119.618 15.0749 119.753 15.041C119.855 15.0072 119.956 14.9648 120.058 14.9141C120.176 14.8633 120.303 14.8548 120.439 14.8887C120.642 14.7363 120.896 14.6602 121.2 14.6602C121.234 14.5755 121.302 14.5163 121.403 14.4824C121.505 14.4486 121.598 14.4147 121.683 14.3809C121.717 14.3301 121.75 14.2878 121.784 14.2539C121.835 14.2031 121.877 14.1523 121.911 14.1016C121.979 14 122.03 13.9408 122.064 13.9238C122.114 13.89 122.148 13.8561 122.165 13.8223C122.199 13.7715 122.207 13.7122 122.19 13.6445C122.19 13.5599 122.233 13.4922 122.317 13.4414C122.284 13.3229 122.275 13.2129 122.292 13.1113C122.326 12.9928 122.36 12.8828 122.394 12.7812ZM124.171 20.627C124.103 20.5423 124.044 20.4408 123.993 20.3223C123.959 20.2038 123.925 20.0768 123.892 19.9414C123.858 19.8737 123.815 19.8314 123.765 19.8145C123.731 19.7975 123.697 19.7637 123.663 19.7129C123.595 19.5775 123.528 19.4844 123.46 19.4336C123.392 19.3828 123.342 19.3405 123.308 19.3066C123.223 19.222 123.155 19.1628 123.105 19.1289C123.054 19.0951 122.986 19.0527 122.901 19.002C122.766 18.9173 122.639 18.8496 122.521 18.7988C122.402 18.7311 122.292 18.6549 122.19 18.5703C121.903 18.5026 121.615 18.4518 121.327 18.418C121.056 18.3841 120.794 18.3503 120.54 18.3164C120.202 18.2995 119.905 18.3333 119.651 18.418C119.397 18.4857 119.084 18.5111 118.712 18.4941C118.678 18.5618 118.627 18.6126 118.56 18.6465C118.509 18.6634 118.467 18.7057 118.433 18.7734C118.45 19.2982 118.424 19.8229 118.356 20.3477C118.289 20.8724 118.28 21.3633 118.331 21.8203C118.297 22.0742 118.289 22.3027 118.306 22.5059C118.34 22.6921 118.348 22.8275 118.331 22.9121C118.314 23.0475 118.323 23.166 118.356 23.2676C118.39 23.3522 118.407 23.4368 118.407 23.5215C118.407 23.5553 118.399 23.5977 118.382 23.6484C118.365 23.6992 118.356 23.75 118.356 23.8008C118.356 23.8685 118.348 23.9277 118.331 23.9785C118.331 24.0124 118.348 24.0632 118.382 24.1309C118.568 24.1309 118.746 24.1055 118.915 24.0547C119.101 23.987 119.296 23.9362 119.499 23.9023C119.634 23.8685 119.77 23.8431 119.905 23.8262C120.041 23.8092 120.176 23.7923 120.312 23.7754C120.396 23.7585 120.455 23.7415 120.489 23.7246C120.54 23.7077 120.582 23.6992 120.616 23.6992C120.667 23.6823 120.718 23.6738 120.769 23.6738C120.819 23.6738 120.87 23.6654 120.921 23.6484C121.259 23.5807 121.573 23.513 121.86 23.4453C122.165 23.3607 122.461 23.2422 122.749 23.0898C122.817 23.0729 122.876 23.0645 122.927 23.0645C122.995 23.0475 123.071 23.0306 123.155 23.0137C123.24 22.929 123.325 22.8359 123.409 22.7344C123.511 22.6159 123.629 22.5228 123.765 22.4551C123.799 22.4043 123.815 22.3451 123.815 22.2773C123.815 22.2096 123.858 22.1673 123.942 22.1504C123.959 22.0658 123.976 21.998 123.993 21.9473C124.027 21.8965 124.061 21.8457 124.095 21.7949C124.146 21.5579 124.154 21.3379 124.12 21.1348C124.103 20.9316 124.12 20.7624 124.171 20.627ZM135.742 27.0254C135.708 27.1608 135.64 27.2454 135.539 27.2793C135.454 27.3301 135.37 27.4062 135.285 27.5078C135.234 27.5078 135.175 27.4909 135.107 27.457C135.056 27.4401 134.997 27.4316 134.929 27.4316C134.879 27.4147 134.819 27.4147 134.752 27.4316C134.684 27.4486 134.608 27.457 134.523 27.457C134.472 27.457 134.422 27.4486 134.371 27.4316C134.32 27.4147 134.269 27.4062 134.219 27.4062C134.083 27.4062 133.948 27.4062 133.812 27.4062C133.677 27.4232 133.525 27.4316 133.355 27.4316C133.271 27.4316 133.186 27.4316 133.101 27.4316C133.034 27.4486 132.957 27.4316 132.873 27.3809C132.737 27.4147 132.594 27.4486 132.441 27.4824C132.306 27.5332 132.153 27.5586 131.984 27.5586C131.9 27.4909 131.84 27.4062 131.806 27.3047C131.789 27.2031 131.739 27.127 131.654 27.0762C131.637 26.9238 131.629 26.7546 131.629 26.5684C131.646 26.3822 131.637 26.196 131.603 26.0098C131.603 25.959 131.595 25.9082 131.578 25.8574C131.578 25.7897 131.578 25.7305 131.578 25.6797C131.561 25.612 131.544 25.5527 131.527 25.502C131.51 25.4342 131.502 25.3665 131.502 25.2988C131.502 25.248 131.51 25.1973 131.527 25.1465C131.544 25.0788 131.553 25.0195 131.553 24.9688C131.553 24.8841 131.536 24.7995 131.502 24.7148C131.485 24.6133 131.476 24.5202 131.476 24.4355C131.476 24.3171 131.485 24.2155 131.502 24.1309C131.519 24.0462 131.527 23.9616 131.527 23.877C131.527 23.6908 131.519 23.5046 131.502 23.3184C131.485 23.1152 131.476 22.9206 131.476 22.7344C131.476 22.6497 131.485 22.5651 131.502 22.4805C131.519 22.3789 131.527 22.2858 131.527 22.2012C131.527 22.1335 131.519 22.0827 131.502 22.0488C131.485 21.998 131.468 21.9473 131.451 21.8965C131.417 21.7103 131.409 21.5918 131.426 21.541C131.459 21.4902 131.485 21.431 131.502 21.3633C131.502 21.3294 131.493 21.2702 131.476 21.1855C131.459 21.084 131.459 20.9824 131.476 20.8809C131.476 20.7116 131.476 20.4915 131.476 20.2207C131.493 19.9329 131.502 19.679 131.502 19.459C131.502 19.3405 131.51 19.2305 131.527 19.1289C131.561 19.0273 131.527 18.9258 131.426 18.8242C131.493 18.4857 131.536 18.2233 131.553 18.0371C131.569 17.8509 131.553 17.5885 131.502 17.25C131.569 17.1992 131.595 17.14 131.578 17.0723C131.578 17.0046 131.586 16.9368 131.603 16.8691C131.62 16.6152 131.62 16.3529 131.603 16.082C131.603 15.9297 131.612 15.7858 131.629 15.6504C131.646 15.515 131.646 15.3796 131.629 15.2441C131.629 15.1426 131.62 15.0749 131.603 15.041C131.586 15.0072 131.586 14.9733 131.603 14.9395C131.569 14.6009 131.561 14.3216 131.578 14.1016C131.612 13.8815 131.629 13.6784 131.629 13.4922C131.629 13.4076 131.62 13.3314 131.603 13.2637C131.586 13.196 131.586 13.1283 131.603 13.0605C131.603 12.9421 131.603 12.8405 131.603 12.7559C131.62 12.6712 131.62 12.5612 131.603 12.4258C131.603 12.2227 131.603 12.0026 131.603 11.7656C131.603 11.5286 131.544 11.3509 131.426 11.2324C131.493 11.1478 131.51 11.0462 131.476 10.9277C131.442 10.8092 131.434 10.7077 131.451 10.623C131.451 10.5723 131.451 10.4792 131.451 10.3438C131.468 10.2083 131.485 10.0898 131.502 9.98828C131.502 9.9375 131.51 9.88672 131.527 9.83594C131.544 9.78516 131.553 9.74284 131.553 9.70898C131.553 9.62435 131.527 9.53125 131.476 9.42969C131.426 9.3112 131.442 9.18424 131.527 9.04883C131.476 8.94727 131.417 8.86263 131.349 8.79492C131.299 8.72721 131.282 8.65104 131.299 8.56641C131.316 8.41406 131.383 8.30404 131.502 8.23633C131.637 8.16862 131.789 8.11784 131.959 8.08398C132.06 8.08398 132.12 8.06706 132.136 8.0332C132.17 7.99935 132.204 7.98242 132.238 7.98242C132.306 7.98242 132.365 7.99935 132.416 8.0332C132.483 8.05013 132.543 8.06706 132.594 8.08398C132.695 8.10091 132.805 8.10938 132.924 8.10938C133.042 8.09245 133.118 8.11784 133.152 8.18555C133.288 8.16862 133.414 8.15169 133.533 8.13477C133.668 8.10091 133.804 8.08398 133.939 8.08398C133.99 8.08398 134.032 8.10091 134.066 8.13477C134.1 8.15169 134.151 8.16016 134.219 8.16016C134.269 8.17708 134.312 8.16862 134.345 8.13477C134.396 8.10091 134.447 8.10091 134.498 8.13477C134.582 8.20247 134.667 8.25326 134.752 8.28711C134.836 8.32096 134.921 8.35482 135.006 8.38867C135.056 8.47331 135.082 8.57487 135.082 8.69336C135.099 8.79492 135.116 8.90495 135.133 9.02344C135.133 9.14193 135.133 9.26042 135.133 9.37891C135.15 9.48047 135.158 9.58203 135.158 9.68359C135.141 9.81901 135.116 9.94596 135.082 10.0645C135.065 10.1829 135.056 10.3099 135.056 10.4453C135.039 10.5977 135.048 10.7415 135.082 10.877C135.133 10.9954 135.116 11.1139 135.031 11.2324C135.065 11.334 135.09 11.4102 135.107 11.4609C135.141 11.5117 135.124 11.5794 135.056 11.6641C135.141 11.7995 135.175 11.9264 135.158 12.0449C135.141 12.1634 135.133 12.3073 135.133 12.4766C135.133 12.612 135.133 12.7643 135.133 12.9336C135.133 13.0859 135.124 13.2467 135.107 13.416C135.107 13.5853 135.099 13.7038 135.082 13.7715C135.065 13.8223 135.056 13.8646 135.056 13.8984C135.107 14.1016 135.133 14.2878 135.133 14.457C135.133 14.6094 135.166 14.7448 135.234 14.8633C135.2 15.0326 135.192 15.151 135.209 15.2188C135.226 15.2695 135.234 15.3118 135.234 15.3457C135.234 15.4303 135.226 15.515 135.209 15.5996C135.192 15.6673 135.192 15.7435 135.209 15.8281C135.243 15.8789 135.251 15.9466 135.234 16.0312C135.234 16.099 135.243 16.1667 135.26 16.2344C135.226 16.4206 135.217 16.5475 135.234 16.6152C135.268 16.666 135.285 16.7253 135.285 16.793C135.285 16.8776 135.268 16.9707 135.234 17.0723C135.2 17.1569 135.183 17.2415 135.183 17.3262C135.2 17.4447 135.2 17.5293 135.183 17.5801C135.166 17.6309 135.15 17.6816 135.133 17.7324C135.166 17.8001 135.183 17.8763 135.183 17.9609C135.2 18.0286 135.226 18.0964 135.26 18.1641C135.293 18.2487 135.293 18.3164 135.26 18.3672C135.243 18.418 135.234 18.4857 135.234 18.5703C135.234 18.6549 135.251 18.7396 135.285 18.8242C135.319 18.9089 135.344 18.985 135.361 19.0527C135.361 19.1374 135.353 19.222 135.336 19.3066C135.319 19.3913 135.31 19.4759 135.31 19.5605C135.293 19.7806 135.31 20.0007 135.361 20.2207C135.412 20.4238 135.42 20.6185 135.386 20.8047C135.386 20.8893 135.37 20.974 135.336 21.0586C135.319 21.1263 135.31 21.2025 135.31 21.2871C135.31 21.3548 135.319 21.4225 135.336 21.4902C135.37 21.541 135.395 21.6087 135.412 21.6934C135.446 21.8457 135.454 22.0404 135.437 22.2773C135.437 22.5143 135.437 22.7513 135.437 22.9883C135.42 23.293 135.403 23.6146 135.386 23.9531C135.37 24.2747 135.386 24.571 135.437 24.8418C135.505 25.1973 135.53 25.485 135.513 25.7051C135.497 25.9251 135.497 26.1283 135.513 26.3145C135.53 26.3652 135.547 26.4245 135.564 26.4922C135.598 26.543 135.623 26.6022 135.64 26.6699C135.674 26.7884 135.7 26.873 135.717 26.9238C135.733 26.9577 135.742 26.9915 135.742 27.0254ZM157.241 8.21094C157.241 8.39714 157.232 8.65104 157.215 8.97266C157.215 9.27734 157.173 9.50586 157.088 9.6582C157.122 9.99674 157.088 10.3268 156.987 10.6484C156.902 10.9701 156.843 11.3001 156.809 11.6387C156.792 11.8079 156.784 11.9688 156.784 12.1211C156.801 12.2734 156.792 12.4342 156.758 12.6035C156.724 12.7389 156.699 12.8997 156.682 13.0859C156.682 13.2552 156.674 13.4329 156.657 13.6191C156.64 13.7546 156.614 13.8815 156.581 14C156.547 14.1185 156.521 14.2454 156.504 14.3809C156.487 14.5332 156.479 14.6771 156.479 14.8125C156.479 14.9479 156.471 15.0833 156.454 15.2188C156.42 15.5573 156.403 15.8789 156.403 16.1836C156.403 16.4714 156.394 16.7591 156.377 17.0469C156.36 17.25 156.344 17.4531 156.327 17.6562C156.327 17.8594 156.318 18.054 156.301 18.2402C156.284 18.4603 156.267 18.6719 156.25 18.875C156.234 19.0612 156.217 19.2474 156.2 19.4336C156.183 19.5182 156.166 19.6198 156.149 19.7383C156.149 19.8398 156.149 19.9499 156.149 20.0684C156.149 20.1361 156.157 20.2038 156.174 20.2715C156.191 20.3223 156.191 20.39 156.174 20.4746C156.174 20.5592 156.166 20.6354 156.149 20.7031C156.132 20.7708 156.107 20.847 156.073 20.9316C156.039 21.1348 156.013 21.3464 155.997 21.5664C155.997 21.7865 155.971 22.0065 155.92 22.2266C155.954 22.2773 155.946 22.3366 155.895 22.4043C155.861 22.472 155.836 22.5397 155.819 22.6074C155.802 22.929 155.777 23.2591 155.743 23.5977C155.726 23.9193 155.709 24.2155 155.692 24.4863C155.692 24.6725 155.692 24.8757 155.692 25.0957C155.709 25.3158 155.7 25.5358 155.666 25.7559C155.65 25.8236 155.624 25.8913 155.59 25.959C155.556 26.0267 155.523 26.1029 155.489 26.1875C155.455 26.306 155.438 26.4414 155.438 26.5938C155.455 26.7292 155.463 26.89 155.463 27.0762C155.497 27.2116 155.514 27.3132 155.514 27.3809C155.497 27.4993 155.463 27.5924 155.413 27.6602C155.362 27.7448 155.311 27.8294 155.26 27.9141C155.125 27.931 154.981 27.931 154.829 27.9141C154.676 27.8971 154.549 27.9056 154.448 27.9395C154.346 27.8717 154.245 27.8125 154.143 27.7617C154.058 27.7279 153.974 27.6602 153.889 27.5586C153.805 27.4232 153.737 27.3385 153.686 27.3047C153.652 27.2878 153.618 27.2539 153.584 27.2031C153.449 27.0677 153.356 26.9661 153.305 26.8984C153.254 26.8307 153.229 26.763 153.229 26.6953C153.178 26.6953 153.127 26.6868 153.077 26.6699C153.043 26.6361 153.009 26.6022 152.975 26.5684C152.958 26.5007 152.916 26.4583 152.848 26.4414C152.78 26.4076 152.721 26.3737 152.67 26.3398C152.637 26.306 152.611 26.2552 152.594 26.1875C152.594 26.1029 152.527 26.0859 152.391 26.1367C152.391 26.069 152.374 26.0267 152.34 26.0098C152.306 25.9759 152.298 25.9167 152.315 25.832C152.247 25.7982 152.18 25.7728 152.112 25.7559C152.044 25.7389 151.976 25.7135 151.909 25.6797C151.858 25.6458 151.807 25.5951 151.756 25.5273C151.722 25.4596 151.68 25.3835 151.629 25.2988C151.579 25.265 151.519 25.2227 151.452 25.1719C151.401 25.1042 151.359 25.0534 151.325 25.0195C151.223 24.9349 151.172 24.8841 151.172 24.8672C151.172 24.8333 151.155 24.7995 151.122 24.7656C151.037 24.6979 150.961 24.6387 150.893 24.5879C150.842 24.5371 150.783 24.4948 150.715 24.4609C150.681 24.3763 150.639 24.3001 150.588 24.2324C150.538 24.1647 150.47 24.1139 150.385 24.0801C150.351 24.0124 150.326 23.9531 150.309 23.9023C150.309 23.8346 150.292 23.7839 150.258 23.75C150.191 23.6823 150.148 23.6315 150.131 23.5977C150.131 23.5638 150.123 23.5299 150.106 23.4961C149.987 23.3607 149.903 23.2591 149.852 23.1914C149.818 23.1068 149.784 23.0306 149.75 22.9629C149.666 22.8613 149.607 22.7936 149.573 22.7598C149.539 22.7259 149.513 22.7005 149.497 22.6836C149.446 22.599 149.412 22.5059 149.395 22.4043C149.378 22.3027 149.344 22.2012 149.293 22.0996C149.26 22.0319 149.2 21.9727 149.116 21.9219C149.048 21.8542 148.989 21.778 148.938 21.6934C148.904 21.6426 148.862 21.5833 148.811 21.5156C148.777 21.4479 148.726 21.3971 148.659 21.3633C148.557 21.2617 148.481 21.2109 148.43 21.2109C148.396 21.194 148.362 21.1686 148.329 21.1348C148.261 21.0332 148.21 20.9486 148.176 20.8809C148.142 20.7962 148.109 20.7201 148.075 20.6523C147.99 20.5677 147.931 20.4915 147.897 20.4238C147.863 20.3561 147.829 20.2969 147.795 20.2461C147.677 20.0938 147.55 19.9668 147.415 19.8652C147.279 19.7637 147.194 19.6198 147.161 19.4336C147.059 19.349 146.966 19.2643 146.881 19.1797C146.814 19.0951 146.737 19.002 146.653 18.9004C146.568 18.748 146.484 18.6634 146.399 18.6465C146.331 18.6296 146.28 18.6042 146.247 18.5703C146.213 18.4518 146.145 18.3757 146.043 18.3418C145.959 18.3079 145.9 18.2402 145.866 18.1387C145.815 18.1556 145.764 18.1471 145.713 18.1133C145.68 18.0794 145.646 18.0456 145.612 18.0117C145.527 17.9779 145.443 17.9355 145.358 17.8848C145.324 17.8509 145.29 17.8086 145.256 17.7578C145.239 17.6901 145.214 17.6309 145.18 17.5801C145.129 17.5293 145.079 17.487 145.028 17.4531C144.977 17.4193 144.935 17.377 144.901 17.3262C144.816 17.1738 144.749 17.0553 144.698 16.9707C144.664 16.8861 144.596 16.8268 144.495 16.793C144.478 16.6745 144.444 16.5814 144.393 16.5137C144.359 16.429 144.317 16.3444 144.266 16.2598C144.165 16.1243 144.088 16.0312 144.038 15.9805C144.004 15.9297 143.97 15.8874 143.936 15.8535C143.851 15.7689 143.809 15.7096 143.809 15.6758C143.826 15.625 143.826 15.5911 143.809 15.5742C143.708 15.4388 143.64 15.3457 143.606 15.2949C143.572 15.2441 143.538 15.1934 143.504 15.1426C143.42 15.0072 143.352 14.9141 143.301 14.8633C143.25 14.8125 143.208 14.7702 143.174 14.7363C143.005 15.5488 142.895 16.4036 142.844 17.3008C142.81 18.1979 142.777 19.1458 142.743 20.1445C142.743 20.2969 142.751 20.4577 142.768 20.627C142.802 20.7962 142.81 20.974 142.793 21.1602C142.793 21.2109 142.785 21.2617 142.768 21.3125C142.751 21.3633 142.751 21.4141 142.768 21.4648C142.768 21.6003 142.777 21.7272 142.793 21.8457C142.81 21.9473 142.819 22.0911 142.819 22.2773C142.819 22.4128 142.819 22.599 142.819 22.8359C142.819 23.0729 142.827 23.3099 142.844 23.5469C142.844 23.7331 142.861 23.9193 142.895 24.1055C142.929 24.2747 142.963 24.4525 142.997 24.6387C143.03 24.8079 143.073 24.9857 143.124 25.1719C143.174 25.3411 143.191 25.5104 143.174 25.6797C143.174 25.8151 143.14 25.9421 143.073 26.0605C143.022 26.1621 143.013 26.2806 143.047 26.416C142.963 26.5007 142.887 26.5938 142.819 26.6953C142.768 26.7799 142.692 26.8392 142.59 26.873C142.506 26.873 142.421 26.8561 142.336 26.8223C142.269 26.7884 142.193 26.763 142.108 26.7461C142.006 26.7799 141.93 26.7799 141.879 26.7461C141.846 26.7292 141.82 26.7122 141.803 26.6953C141.685 26.6953 141.558 26.7122 141.422 26.7461C141.304 26.7799 141.185 26.7461 141.067 26.6445C140.999 26.6615 140.948 26.6784 140.915 26.6953C140.881 26.7122 140.83 26.7207 140.762 26.7207C140.661 26.7207 140.576 26.7122 140.508 26.6953C140.441 26.6784 140.356 26.6868 140.254 26.7207C140.204 26.7207 140.119 26.7207 140 26.7207C139.899 26.7207 139.789 26.7038 139.67 26.6699C139.603 26.6022 139.543 26.5176 139.493 26.416C139.425 26.2129 139.374 26.0605 139.34 25.959C139.306 25.8574 139.281 25.7643 139.264 25.6797C139.264 25.6458 139.273 25.6035 139.29 25.5527C139.306 25.502 139.315 25.4512 139.315 25.4004C139.315 25.3327 139.306 25.2734 139.29 25.2227C139.29 25.1719 139.29 25.1211 139.29 25.0703C139.29 25.0026 139.298 24.9349 139.315 24.8672C139.332 24.7995 139.34 24.7233 139.34 24.6387C139.34 24.5033 139.332 24.3594 139.315 24.207C139.298 24.0547 139.281 23.8854 139.264 23.6992C139.264 23.6484 139.256 23.6061 139.239 23.5723C139.239 23.5215 139.239 23.4707 139.239 23.4199C139.256 23.166 139.29 22.9206 139.34 22.6836C139.408 22.4297 139.425 22.1419 139.391 21.8203C139.391 21.7357 139.374 21.651 139.34 21.5664C139.323 21.4818 139.315 21.3971 139.315 21.3125C139.315 21.1602 139.323 21.0163 139.34 20.8809C139.374 20.7454 139.4 20.61 139.416 20.4746C139.45 20.4069 139.459 20.3561 139.442 20.3223C139.425 20.2884 139.425 20.2461 139.442 20.1953C139.442 20.1445 139.459 20.0938 139.493 20.043C139.527 19.9922 139.552 19.9414 139.569 19.8906C139.552 19.7383 139.56 19.5605 139.594 19.3574C139.628 19.1543 139.653 18.9089 139.67 18.6211C139.653 18.3841 139.67 18.1895 139.721 18.0371C139.772 17.8678 139.797 17.7155 139.797 17.5801C139.797 17.4277 139.806 17.3008 139.823 17.1992C139.857 17.0977 139.882 17.0046 139.899 16.9199V16.6152C139.933 16.429 139.933 16.3021 139.899 16.2344C139.882 16.1667 139.874 16.099 139.874 16.0312C139.907 15.9466 139.916 15.862 139.899 15.7773C139.899 15.6758 139.89 15.5827 139.874 15.498C139.907 15.4303 139.916 15.3711 139.899 15.3203C139.899 15.2695 139.882 15.2018 139.848 15.1172C139.848 14.7448 139.865 14.4401 139.899 14.2031C139.95 13.9661 139.958 13.7461 139.924 13.543C139.924 13.4583 139.916 13.3991 139.899 13.3652C139.882 13.3145 139.865 13.2637 139.848 13.2129C139.831 13.0267 139.831 12.8913 139.848 12.8066C139.882 12.722 139.899 12.6458 139.899 12.5781C139.916 12.5104 139.907 12.4427 139.874 12.375C139.857 12.3073 139.84 12.2396 139.823 12.1719C139.823 12.1211 139.84 12.0534 139.874 11.9688C139.907 11.8841 139.882 11.8164 139.797 11.7656C139.848 11.5964 139.865 11.4863 139.848 11.4355C139.831 11.3678 139.823 11.3086 139.823 11.2578C139.857 11.1224 139.865 11.0462 139.848 11.0293C139.831 10.9954 139.823 10.9616 139.823 10.9277C139.857 10.8431 139.865 10.7839 139.848 10.75C139.831 10.6992 139.823 10.6569 139.823 10.623C139.84 10.5553 139.857 10.4876 139.874 10.4199C139.89 10.3522 139.907 10.276 139.924 10.1914C139.924 10.1406 139.916 10.0814 139.899 10.0137C139.882 9.94596 139.874 9.88672 139.874 9.83594C139.89 9.71745 139.907 9.60742 139.924 9.50586C139.941 9.4043 139.958 9.3112 139.975 9.22656C139.992 9.15885 139.992 9.09961 139.975 9.04883C139.975 8.98112 139.984 8.92188 140 8.87109C140.034 8.63411 140.043 8.44792 140.026 8.3125C140.009 8.17708 140.017 8.05013 140.051 7.93164C140.102 7.79622 140.221 7.70312 140.407 7.65234C140.61 7.58464 140.788 7.61849 140.94 7.75391C141.109 7.77083 141.253 7.79622 141.372 7.83008C141.507 7.86393 141.575 7.97396 141.575 8.16016C141.659 8.16016 141.719 8.19401 141.752 8.26172C141.803 8.32943 141.862 8.38021 141.93 8.41406C142.167 8.53255 142.303 8.61719 142.336 8.66797C142.472 8.80339 142.565 8.89648 142.616 8.94727C142.683 8.99805 142.734 9.04883 142.768 9.09961C142.853 9.2181 142.895 9.29427 142.895 9.32812C142.912 9.36198 142.937 9.38737 142.971 9.4043C143.005 9.43815 143.047 9.4974 143.098 9.58203C143.166 9.64974 143.225 9.71745 143.276 9.78516C143.36 9.88672 143.454 9.98828 143.555 10.0898C143.657 10.1745 143.75 10.276 143.834 10.3945C143.885 10.4453 143.928 10.5046 143.961 10.5723C143.995 10.623 144.046 10.6738 144.114 10.7246C144.232 10.86 144.351 11.0124 144.469 11.1816C144.605 11.334 144.74 11.4948 144.875 11.6641C144.926 11.7487 144.977 11.8333 145.028 11.918C145.079 11.9857 145.155 12.0449 145.256 12.0957C145.273 12.265 145.375 12.4089 145.561 12.5273C145.612 12.6797 145.688 12.8151 145.79 12.9336C145.891 13.0521 145.976 13.179 146.043 13.3145C146.162 13.416 146.263 13.526 146.348 13.6445C146.433 13.7461 146.526 13.8561 146.627 13.9746C146.661 14.0085 146.687 14.0508 146.704 14.1016C146.737 14.1523 146.78 14.2031 146.831 14.2539C146.915 14.3385 146.958 14.4147 146.958 14.4824C146.974 14.5332 147 14.5755 147.034 14.6094C147.068 14.6771 147.101 14.7448 147.135 14.8125C147.186 14.8633 147.228 14.9225 147.262 14.9902C147.448 15.2441 147.584 15.4642 147.668 15.6504C147.753 15.8366 147.846 16.0143 147.948 16.1836C148.049 16.319 148.125 16.429 148.176 16.5137C148.227 16.5983 148.269 16.6745 148.303 16.7422C148.456 16.8945 148.557 17.0046 148.608 17.0723C148.693 17.1738 148.769 17.2754 148.836 17.377C148.921 17.4616 149.006 17.5547 149.09 17.6562C149.175 17.7747 149.217 17.8509 149.217 17.8848C149.234 17.9186 149.243 17.9525 149.243 17.9863C149.361 18.071 149.42 18.1302 149.42 18.1641C149.42 18.181 149.437 18.1979 149.471 18.2148C149.607 18.418 149.776 18.6296 149.979 18.8496C150.182 19.0527 150.385 19.2474 150.588 19.4336C150.69 19.5352 150.791 19.6283 150.893 19.7129C150.995 19.7975 151.088 19.9076 151.172 20.043C151.24 20.1784 151.282 20.263 151.299 20.2969C151.333 20.3138 151.359 20.3392 151.375 20.373C151.477 20.5254 151.596 20.6777 151.731 20.8301C151.883 20.9655 152.053 21.084 152.239 21.1855C152.256 21.0671 152.264 20.957 152.264 20.8555C152.264 20.737 152.264 20.6354 152.264 20.5508C152.264 20.4661 152.264 20.39 152.264 20.3223C152.264 20.2546 152.298 20.1953 152.366 20.1445C152.332 20.043 152.298 19.916 152.264 19.7637C152.23 19.5944 152.256 19.4421 152.34 19.3066C152.29 19.1374 152.273 19.0273 152.29 18.9766C152.306 18.9089 152.306 18.8411 152.29 18.7734C152.29 18.7057 152.281 18.6549 152.264 18.6211C152.247 18.5703 152.239 18.5111 152.239 18.4434C152.222 18.3079 152.23 18.1725 152.264 18.0371C152.298 17.8848 152.323 17.724 152.34 17.5547C152.34 17.2669 152.34 16.9707 152.34 16.666C152.34 16.3444 152.366 16.0651 152.416 15.8281C152.416 15.7943 152.433 15.7435 152.467 15.6758C152.501 15.6081 152.527 15.5573 152.543 15.5234C152.527 15.388 152.527 15.2949 152.543 15.2441C152.577 15.1764 152.594 15.1003 152.594 15.0156C152.594 14.8971 152.586 14.7786 152.569 14.6602C152.552 14.5417 152.552 14.3809 152.569 14.1777C152.552 13.9915 152.56 13.8477 152.594 13.7461C152.628 13.6276 152.653 13.5007 152.67 13.3652C152.637 13.2806 152.628 13.196 152.645 13.1113C152.662 13.0098 152.67 12.9167 152.67 12.832C152.67 12.7812 152.662 12.7305 152.645 12.6797C152.645 12.612 152.645 12.5443 152.645 12.4766C152.645 12.3581 152.662 12.2565 152.696 12.1719C152.73 12.0703 152.755 11.9688 152.772 11.8672C152.772 11.7487 152.763 11.6387 152.747 11.5371C152.747 11.4186 152.772 11.2917 152.823 11.1562C152.789 11.0885 152.763 11.0293 152.747 10.9785C152.73 10.9277 152.704 10.86 152.67 10.7754C152.755 10.5046 152.78 10.2591 152.747 10.0391C152.73 9.80208 152.738 9.52279 152.772 9.20117C152.755 9.11654 152.763 9.0319 152.797 8.94727C152.814 8.91341 152.823 8.87956 152.823 8.8457C152.823 8.76107 152.806 8.69336 152.772 8.64258C152.738 8.57487 152.73 8.50716 152.747 8.43945C152.78 8.37174 152.84 8.28711 152.924 8.18555C153.026 8.06706 153.119 7.99935 153.204 7.98242C153.288 7.96549 153.373 7.98242 153.458 8.0332C153.542 8.06706 153.627 8.08398 153.711 8.08398C153.898 8.10091 154.092 8.08398 154.295 8.0332C154.515 7.96549 154.719 7.91471 154.905 7.88086C155.04 7.84701 155.235 7.84701 155.489 7.88086C155.76 7.91471 155.997 7.91471 156.2 7.88086C156.42 7.91471 156.623 7.95703 156.809 8.00781C156.894 8.04167 156.978 8.06706 157.063 8.08398C157.148 8.10091 157.207 8.14323 157.241 8.21094Z" fill="#F1CD84"/>
<ellipse cx="101.565" cy="25.4442" rx="10.9315" ry="3.58552" transform="rotate(-8.53868 101.565 25.4442)" fill="#D9D9D9"/>
<path d="M84.9689 21.1962L83.3194 8.55616L82.6595 3.93978C82.6595 3.61004 83.2094 2.7747 85.4088 2.07125C88.1581 1.19194 89.6977 0.862205 95.0862 0.642378C100.475 0.42255 104.214 1.41177 107.073 2.29108C109.36 2.99453 109.272 3.68891 109.162 4.26953L108.503 9.21564C108.099 11.7803 107.227 17.7449 106.963 21.0863C106.699 24.4277 105.314 26.1423 104.654 26.582C100.365 29.3298 98.4953 29.11 95.7461 29.3298C92.9968 29.5497 89.1478 27.901 87.1683 26.4721C85.5848 25.329 85.0422 22.4785 84.9689 21.1962Z" fill="#BBB9B5" stroke="#79564C" stroke-width="0.7"/>
<path d="M83.1106 6.02344C86.9195 8.26018 97.3939 11.3916 108.82 6.02344" stroke="#79564C" stroke-width="0.7" stroke-linecap="round"/>
<path d="M88.7097 19.1505V13.0965C88.7097 12.9348 88.8938 12.8403 89.0292 12.9287C94.0791 16.224 99.5645 14.4191 102.007 12.9163C102.144 12.8323 102.323 12.9298 102.323 13.0903V19.1412C102.323 19.2025 102.293 19.2615 102.245 19.2991C96.4631 23.7872 90.9053 21.2068 88.7733 19.296C88.7316 19.2587 88.7097 19.2065 88.7097 19.1505Z" fill="#F8EFDD" stroke="#79564C" stroke-width="0.2" stroke-linecap="round"/>
</svg>
